<svg width="18" height="11" viewBox="0 0 18 11" fill="none" xmlns="http://www.w3.org/2000/svg">
<path fill-rule="evenodd" clip-rule="evenodd" d="M0.25 5.58645C0.25 5.43041 0.315848 5.28076 0.433058 5.17042C0.550268 5.06008 0.709239 4.9981 0.875 4.9981L15.6162 4.9981L11.6825 1.29621C11.5651 1.18573 11.4992 1.0359 11.4992 0.879659C11.4992 0.723423 11.5651 0.573585 11.6825 0.463109C11.7999 0.352632 11.959 0.290568 12.125 0.290568C12.291 0.290568 12.4501 0.352632 12.5675 0.463109L17.5675 5.16989C17.6257 5.22455 17.6719 5.28947 17.7034 5.36095C17.7349 5.43243 17.7511 5.50906 17.7511 5.58645C17.7511 5.66383 17.7349 5.74046 17.7034 5.81194C17.6719 5.88342 17.6257 5.94834 17.5675 6.003L12.5675 10.7098C12.4501 10.8203 12.291 10.8823 12.125 10.8823C11.959 10.8823 11.7999 10.8203 11.6825 10.7098C11.5651 10.5993 11.4992 10.4495 11.4992 10.2932C11.4992 10.137 11.5651 9.98716 11.6825 9.87668L15.6162 6.17479L0.875 6.17479C0.709239 6.17479 0.550268 6.11281 0.433058 6.00247C0.315848 5.89213 0.25 5.74249 0.25 5.58645Z" fill="#1F1C1C"/>
</svg>
