<svg width="31" height="22" viewBox="0 0 31 22" fill="none" xmlns="http://www.w3.org/2000/svg">
<path fill-rule="evenodd" clip-rule="evenodd" d="M0.1875 10.973C0.1875 10.6751 0.302734 10.3894 0.507852 10.1787C0.712969 9.96805 0.991169 9.8497 1.28125 9.8497L27.0784 9.8497L20.1944 2.78183C19.989 2.5709 19.8736 2.28482 19.8736 1.98652C19.8736 1.68823 19.989 1.40215 20.1944 1.19122C20.3998 0.980292 20.6783 0.861795 20.9688 0.861795C21.2592 0.861795 21.5378 0.980292 21.7431 1.19122L30.4931 10.1777C30.595 10.2821 30.6758 10.406 30.7309 10.5425C30.7861 10.679 30.8145 10.8253 30.8145 10.973C30.8145 11.1208 30.7861 11.2671 30.7309 11.4035C30.6758 11.54 30.595 11.664 30.4931 11.7683L21.7431 20.7548C21.5378 20.9657 21.2592 21.0842 20.9688 21.0842C20.6783 21.0842 20.3998 20.9657 20.1944 20.7548C19.989 20.5439 19.8736 20.2578 19.8736 19.9595C19.8736 19.6612 19.989 19.3751 20.1944 19.1642L27.0784 12.0963L1.28125 12.0963C0.991169 12.0963 0.71297 11.978 0.507852 11.7673C0.302734 11.5566 0.1875 11.2709 0.1875 10.973Z" fill="#E5E5E5"/>
</svg>
