<svg width="18" height="12" viewBox="0 0 18 12" fill="none" xmlns="http://www.w3.org/2000/svg">
<path fill-rule="evenodd" clip-rule="evenodd" d="M0.25 5.70998C0.25 5.55394 0.315848 5.40429 0.433058 5.29396C0.550268 5.18362 0.709239 5.12163 0.875 5.12163L15.6162 5.12163L11.6825 1.41974C11.5651 1.30927 11.4992 1.15943 11.4992 1.00319C11.4992 0.846958 11.5651 0.69712 11.6825 0.586644C11.7999 0.476167 11.959 0.414103 12.125 0.414103C12.291 0.414103 12.4501 0.476167 12.5675 0.586644L17.5675 5.29343C17.6257 5.34808 17.6719 5.41301 17.7034 5.48449C17.7349 5.55597 17.7511 5.63259 17.7511 5.70998C17.7511 5.78737 17.7349 5.864 17.7034 5.93548C17.6719 6.00695 17.6257 6.07188 17.5675 6.12653L12.5675 10.8333C12.4501 10.9438 12.291 11.0059 12.125 11.0059C11.959 11.0059 11.7999 10.9438 11.6825 10.8333C11.5651 10.7228 11.4992 10.573 11.4992 10.4168C11.4992 10.2605 11.5651 10.1107 11.6825 10.0002L15.6162 6.29833L0.875 6.29833C0.709239 6.29833 0.550268 6.23634 0.433058 6.12601C0.315848 6.01567 0.25 5.86602 0.25 5.70998Z" fill="white"/>
</svg>
