<svg width="253" height="55" viewBox="0 0 253 55" fill="none" xmlns="http://www.w3.org/2000/svg">
<g clip-path="url(#clip0)">
<path d="M26.1389 7.72363C27.0971 7.72363 27.8738 6.95531 27.8738 6.00753C27.8738 5.05976 27.0971 4.29144 26.1389 4.29144C25.1808 4.29144 24.4041 5.05976 24.4041 6.00753C24.4041 6.95531 25.1808 7.72363 26.1389 7.72363Z" fill="white"/>
<path d="M27.7349 3.43218C28.693 3.43218 29.4697 2.66386 29.4697 1.71609C29.4697 0.768321 28.693 0 27.7349 0C26.7767 0 26 0.768321 26 1.71609C26 2.66386 26.7767 3.43218 27.7349 3.43218Z" fill="white"/>
<path d="M41.7282 11.6392C42.6863 11.6392 43.463 10.8708 43.463 9.92306C43.463 8.97529 42.6863 8.20697 41.7282 8.20697C40.77 8.20697 39.9933 8.97529 39.9933 9.92306C39.9933 10.8708 40.77 11.6392 41.7282 11.6392Z" fill="white"/>
<path d="M56.3641 25.5609C57.3223 25.5609 58.099 24.7925 58.099 23.8448C58.099 22.897 57.3223 22.1287 56.3641 22.1287C55.406 22.1287 54.6293 22.897 54.6293 23.8448C54.6293 24.7925 55.406 25.5609 56.3641 25.5609Z" fill="white"/>
<path d="M54.9229 38.2742C55.881 38.2742 56.6577 37.5059 56.6577 36.5581C56.6577 35.6103 55.881 34.842 54.9229 34.842C53.9647 34.842 53.188 35.6103 53.188 36.5581C53.188 37.5059 53.9647 38.2742 54.9229 38.2742Z" fill="white"/>
<path d="M42.6566 45.9844C43.6148 45.9844 44.3915 45.2161 44.3915 44.2683C44.3915 43.3206 43.6148 42.5522 42.6566 42.5522C41.6985 42.5522 40.9218 43.3206 40.9218 44.2683C40.9218 45.2161 41.6985 45.9844 42.6566 45.9844Z" fill="white"/>
<path d="M37.5254 47.7005C38.4835 47.7005 39.2603 46.9322 39.2603 45.9844C39.2603 45.0366 38.4835 44.2683 37.5254 44.2683C36.5673 44.2683 35.7905 45.0366 35.7905 45.9844C35.7905 46.9322 36.5673 47.7005 37.5254 47.7005Z" fill="white"/>
<path d="M12.3826 36.8484C13.3407 36.8484 14.1174 36.0801 14.1174 35.1324C14.1174 34.1846 13.3407 33.4163 12.3826 33.4163C11.4244 33.4163 10.6477 34.1846 10.6477 35.1324C10.6477 36.0801 11.4244 36.8484 12.3826 36.8484Z" fill="white"/>
<path d="M37.3298 55C38.288 55 39.0647 54.2317 39.0647 53.2839C39.0647 52.3361 38.288 51.5678 37.3298 51.5678C36.3717 51.5678 35.595 52.3361 35.595 53.2839C35.595 54.2317 36.3717 55 37.3298 55Z" fill="white"/>
<path d="M43.4629 53.5495C44.421 53.5495 45.1978 52.7812 45.1978 51.8334C45.1978 50.8856 44.421 50.1173 43.4629 50.1173C42.5048 50.1173 41.728 50.8856 41.728 51.8334C41.728 52.7812 42.5048 53.5495 43.4629 53.5495Z" fill="white"/>
<path d="M8.17994 35.7604C9.13808 35.7604 9.9148 34.9921 9.9148 34.0443C9.9148 33.0966 9.13808 32.3282 8.17994 32.3282C7.2218 32.3282 6.44507 33.0966 6.44507 34.0443C6.44507 34.9921 7.2218 35.7604 8.17994 35.7604Z" fill="white"/>
<path d="M36.4018 52.5646C32.0128 52.9811 27.5895 52.2688 23.5605 50.497C16.6191 47.454 11.712 41.7474 9.52517 35.1314C9.22302 35.3974 8.83406 35.5468 8.42959 35.5522C8.17744 35.5517 7.92907 35.4914 7.70532 35.3764C9.99401 42.5885 15.2903 48.8296 22.8281 52.1309C27.1025 54.0104 31.7923 54.7759 36.4506 54.3547C36.2575 54.0839 36.1648 53.7453 36.1498 53.4157C36.1377 53.1315 36.2406 52.8196 36.4018 52.5646Z" fill="white"/>
<path d="M45.1143 2.33699C39.5926 -0.0900633 33.4149 -0.644174 27.542 0.760837C27.5541 0.808599 27.5652 0.853504 27.5739 0.900789C27.7776 1.17399 27.8708 1.5217 27.8863 1.85603V1.85986C27.9757 2.05606 28.03 2.26616 28.0466 2.48076C33.51 1.19265 39.25 1.71726 44.3823 3.9738C57.3708 9.66131 63.2364 24.6863 57.4867 37.5334C54.8566 43.4319 50.0534 48.1175 44.0544 50.6369C44.1246 50.6861 44.1915 50.7397 44.2548 50.7974C44.5739 51.0869 44.712 51.5181 44.7309 51.9337C44.7351 52.0625 44.7202 52.1913 44.6864 52.3158C51.142 49.6273 56.3134 44.598 59.1404 38.2589C65.2943 24.5058 59.0145 8.42427 45.1143 2.33699Z" fill="white"/>
<path d="M56.6475 23.4904C56.9588 23.4918 57.2629 23.5827 57.5229 23.7521C55.8218 12.3947 45.9259 3.68007 33.9711 3.68007C31.1448 3.67712 28.3406 4.17285 25.6903 5.14397C25.809 5.21368 25.9201 5.29547 26.0216 5.38803C26.3407 5.67795 26.4788 6.10877 26.4976 6.52478C26.5014 6.64051 26.4892 6.75619 26.4614 6.86865C28.8682 6.00237 31.41 5.56057 33.9711 5.56334C44.9095 5.56334 53.9769 13.4856 55.6307 23.8457C55.921 23.6201 56.2783 23.4952 56.6475 23.4904Z" fill="white"/>
<path d="M55.2959 32.3354C55.289 32.3632 55.2826 32.3909 55.2758 32.4186C55.2934 32.4095 55.3116 32.4004 55.3302 32.3918C55.3184 32.3737 55.3067 32.3546 55.2959 32.3354Z" fill="white"/>
<path d="M54.9813 37.7497C54.5409 37.7497 54.1498 37.5678 53.8321 37.2788C53.7338 37.1892 53.6501 37.0852 53.584 36.9703C49.9814 44.073 42.5519 48.948 33.9712 48.948C24.7619 48.948 16.8784 43.3326 13.6293 35.3745C13.5024 35.6572 13.2951 35.8972 13.0327 36.0653C12.7702 36.2334 12.464 36.3223 12.1514 36.3212H11.9978C15.5931 44.8176 24.0772 50.7874 33.9712 50.7874C43.3147 50.7874 51.402 45.4638 55.3005 37.7158C55.1955 37.7379 55.0886 37.7493 54.9813 37.7497Z" fill="white"/>
<path d="M36.6089 45.2231C35.7353 45.3474 34.8538 45.4096 33.9712 45.4093C27.1065 45.4093 21.1212 41.6839 17.9667 36.1683C17.8835 36.3771 17.7593 36.5676 17.6012 36.7286C17.3147 37.0047 16.9381 37.1706 16.5389 37.1967C20.0203 43.145 26.5237 47.1465 33.9721 47.1465C34.9449 47.1467 35.9165 47.0776 36.8793 46.9396C36.6075 46.6531 36.4873 46.2538 36.4699 45.8683C36.4653 45.6455 36.5129 45.4247 36.6089 45.2231Z" fill="white"/>
<path d="M42.6001 9.23816C42.6001 9.26729 42.6045 9.29594 42.6059 9.32508C42.6243 9.72532 42.4128 10.1848 42.1298 10.4613C42.0105 10.5782 41.8733 10.6758 41.7233 10.7503C47.9969 13.6423 52.3459 19.9354 52.3459 27.2335C52.3459 33.9565 48.6555 39.8269 43.1718 42.9711C43.2767 43.036 43.3753 43.1104 43.4664 43.1932C43.7855 43.4831 43.9236 43.9144 43.9424 44.3299C43.9452 44.4013 43.9415 44.4727 43.9313 44.5434C50.0075 41.1155 54.1039 34.6481 54.1039 27.2335C54.102 19.2907 49.4005 12.4344 42.6001 9.23816Z" fill="white"/>
<path d="M34.1261 15.4625C27.5111 15.4625 22.1515 20.7641 22.1515 27.3075C22.1515 33.8509 27.5111 39.1525 34.1261 39.1525C40.7411 39.1525 46.1007 33.8509 46.1007 27.3075C46.1007 20.7641 40.7411 15.4625 34.1261 15.4625ZM34.1261 37.4503C28.47 37.4503 23.8844 32.9129 23.8844 27.3195C23.8844 21.726 28.4715 17.1887 34.1261 17.1887C39.7807 17.1887 44.3678 21.726 44.3678 27.3195C44.3678 32.9129 39.7836 37.4503 34.1261 37.4503Z" fill="white"/>
<path d="M34.1261 12.5514C25.8873 12.5514 19.2062 19.1579 19.2062 27.3099C19.2062 35.4619 25.8854 42.0684 34.1261 42.0684C42.3669 42.0684 49.0461 35.4619 49.0461 27.3099C49.0461 19.1579 42.3664 12.5514 34.1261 12.5514ZM34.1261 40.6637C26.6695 40.6637 20.6243 34.6844 20.6243 27.308C20.6243 19.9316 26.6695 13.9522 34.1261 13.9522C41.5827 13.9522 47.628 19.9316 47.628 27.308C47.628 34.6844 41.5842 40.6637 34.1261 40.6637Z" fill="white"/>
<path d="M34.1262 18.8298C32.431 18.8298 30.7739 19.327 29.3644 20.2586C27.9549 21.1902 26.8563 22.5144 26.2076 24.0635C25.5589 25.6127 25.3892 27.3174 25.7199 28.9621C26.0506 30.6067 26.8669 32.1174 28.0656 33.3031C29.2643 34.4888 30.7915 35.2962 32.4541 35.6234C34.1167 35.9505 35.84 35.7826 37.4062 35.1409C38.9723 34.4992 40.3109 33.4125 41.2527 32.0183C42.1945 30.6241 42.6972 28.9849 42.6972 27.308C42.6972 25.0595 41.7942 22.903 40.1868 21.313C38.5794 19.723 36.3994 18.8298 34.1262 18.8298ZM34.1262 34.0544C32.7773 34.0544 31.4587 33.6588 30.3371 32.9174C29.2155 32.1761 28.3414 31.1225 27.8252 29.8898C27.3089 28.657 27.1739 27.3005 27.437 25.9919C27.7002 24.6832 28.3498 23.4811 29.3036 22.5376C30.2574 21.5941 31.4726 20.9516 32.7956 20.6913C34.1186 20.4309 35.4899 20.5646 36.7362 21.0752C37.9824 21.5858 39.0476 22.4505 39.797 23.5599C40.5464 24.6694 40.9464 25.9737 40.9464 27.308C40.9464 29.0973 40.2279 30.8132 38.9488 32.0784C37.6698 33.3436 35.935 34.0544 34.1262 34.0544Z" fill="white"/>
<path d="M34.1262 22.0399C33.0729 22.0399 32.0432 22.3488 31.1674 22.9277C30.2915 23.5066 29.6089 24.3294 29.2058 25.292C28.8027 26.2546 28.6973 27.3139 28.9028 28.3358C29.1083 29.3577 29.6155 30.2964 30.3603 31.0332C31.1051 31.7699 32.0541 32.2717 33.0872 32.475C34.1203 32.6782 35.1912 32.5739 36.1643 32.1752C37.1375 31.7764 37.9692 31.1012 38.5545 30.2349C39.1397 29.3685 39.452 28.35 39.452 27.308C39.452 25.9108 38.8909 24.5708 37.8921 23.5829C36.8934 22.5949 35.5387 22.0399 34.1262 22.0399ZM34.0683 31.1194C33.3001 31.1194 32.5492 30.8941 31.9105 30.4719C31.2717 30.0498 30.7739 29.4498 30.4799 28.7477C30.186 28.0457 30.109 27.2732 30.2589 26.5279C30.4087 25.7826 30.7787 25.0981 31.3218 24.5608C31.865 24.0234 32.5571 23.6575 33.3106 23.5093C34.064 23.361 34.8449 23.4371 35.5546 23.7279C36.2643 24.0187 36.871 24.5112 37.2977 25.143C37.7245 25.7748 37.9523 26.5176 37.9523 27.2775C37.9523 28.2964 37.5431 29.2736 36.8147 29.9941C36.0863 30.7146 35.0984 31.1194 34.0683 31.1194Z" fill="white"/>
<path d="M55.2898 9.9226C55.283 9.32319 67.0408 3.42025 68.1712 4.77479C68.8472 5.58674 65.5735 8.86275 65.2258 9.20568C64.0974 10.3132 62.8602 11.3066 61.5325 12.1712C41.66 25.0465 37.4385 27.4499 37.4385 27.4499C22.4277 35.9912 7.896 45.2651 1.82372 45.7595C1.32542 45.8001 0.182048 45.8808 0.0198119 45.3081C-0.454343 43.6479 7.6821 37.8749 8.25235 38.139C8.6898 38.3415 4.34998 41.9442 4.95402 42.5193C5.85984 43.3819 16.8272 36.421 36.1459 24.8473C52.9779 14.7642 62.4335 9.39626 62.1535 8.37749C61.9212 7.5407 55.2951 10.3725 55.2898 9.9226Z" fill="white"/>
<path d="M86.3165 42.1974C85.354 42.1974 84.873 41.7215 84.8733 40.7698V20.5798C84.8733 19.6284 85.3544 19.1525 86.3165 19.1522C86.9461 19.1522 87.4731 19.4582 87.8974 20.0702L96.0063 32.1363L95.3882 32.238L103.566 20.0702C103.955 19.4585 104.539 19.1525 105.318 19.1522C106.098 19.1518 106.487 19.6277 106.486 20.5798V40.7698C106.486 41.7212 106.006 42.1971 105.044 42.1974C104.082 42.1977 103.601 41.7218 103.6 40.7698V23.435L104.494 23.7407L97.2776 34.2436C96.8537 34.8559 96.2696 35.1617 95.5254 35.1611C95.0103 35.1611 94.5407 34.8552 94.1164 34.2436L86.9012 23.7407L87.7598 23.9795V40.7703C87.7594 41.7214 87.2783 42.1971 86.3165 42.1974Z" fill="white"/>
<path d="M117.62 42.1973C115.34 42.1973 113.647 41.6535 112.542 40.5658C111.438 39.4781 110.885 37.8126 110.884 35.5694V31.6261C110.884 29.3492 111.437 27.6697 112.542 26.5877C113.648 25.5057 115.34 24.9644 117.62 24.9638H120.437C122.728 24.9638 124.423 25.5076 125.522 26.5953C126.622 27.683 127.172 29.3598 127.172 31.6257V35.5345C127.172 37.7892 126.622 39.4633 125.522 40.5567C124.423 41.6501 122.728 42.1969 120.437 42.1969L117.62 42.1973ZM113.771 35.5694C113.771 37.0309 114.04 38.0252 114.578 38.5521C115.116 39.0791 116.13 39.3424 117.62 39.3421H120.437C121.937 39.3421 122.954 39.0758 123.487 38.5431C124.02 38.0104 124.286 37.0074 124.286 35.534V31.6252C124.286 30.1417 124.02 29.1363 123.487 28.609C122.954 28.0817 121.937 27.8182 120.437 27.8186H117.62C116.622 27.8186 115.846 27.929 115.292 28.15C115.025 28.2512 114.783 28.4062 114.58 28.6053C114.378 28.8043 114.219 29.0429 114.115 29.3058C113.886 29.8557 113.771 30.6289 113.771 31.6252L113.771 35.5694Z" fill="white"/>
<path d="M137.48 42.1974C135.2 42.1974 133.507 41.6507 132.402 40.5572C131.297 39.4638 130.744 37.7897 130.744 35.5351V31.6262C130.744 29.3604 131.296 27.6836 132.401 26.5959C133.506 25.5082 135.199 24.9643 137.479 24.9643H144.142V19.6962C144.142 18.7447 144.623 18.2689 145.585 18.2686C146.548 18.2682 147.029 18.7441 147.029 19.6962V40.7698C147.029 41.7212 146.548 42.1971 145.585 42.1974C144.623 42.1977 144.142 41.7218 144.142 40.7698V40.531C143.604 41.0751 142.899 41.4891 142.029 41.7728C141.159 42.0565 140.077 42.198 138.782 42.1974H137.48ZM137.48 39.3422H138.784C140.297 39.3422 141.568 39.1495 142.598 38.7642C143.628 38.379 144.143 37.7899 144.143 36.997V27.8196H137.48C135.991 27.8196 134.977 28.0886 134.438 28.6267C133.899 29.1649 133.63 30.1647 133.631 31.6262V35.5351C133.631 37.008 133.903 38.011 134.446 38.5441C134.99 39.0771 136.001 39.3431 137.48 39.3422Z" fill="white"/>
<path d="M153.973 34.7536V35.5694C153.973 37.0309 154.242 38.0252 154.78 38.5522C155.319 39.0791 156.333 39.3425 157.822 39.3422H160.64C161.808 39.3422 162.673 39.2345 163.234 39.0193C163.795 38.804 164.168 38.4243 164.351 37.8801C164.477 37.4503 164.651 37.1218 164.875 36.8948C165.098 36.6678 165.439 36.5544 165.897 36.5547C166.378 36.5547 166.745 36.6794 166.997 36.9287C167.249 37.178 167.329 37.5406 167.238 38.0163C166.986 39.4211 166.31 40.4692 165.21 41.1604C164.11 41.8517 162.587 42.1974 160.64 42.1974H157.822C155.543 42.1974 153.85 41.6535 152.745 40.5658C151.64 39.4781 151.088 37.8126 151.088 35.5694V31.6262C151.088 29.3269 151.64 27.6361 152.745 26.5539C153.85 25.4716 155.543 24.9417 157.822 24.9643H160.64C162.93 24.9643 164.626 25.5056 165.726 26.5882C166.825 27.6708 167.375 29.3503 167.375 31.6267V33.3265C167.375 34.2786 166.894 34.7544 165.932 34.7541L153.973 34.7536ZM157.821 27.8195C156.332 27.7973 155.318 28.052 154.779 28.5837C154.241 29.1155 153.971 30.1295 153.972 31.6257V31.8975H164.487V31.6257C164.487 30.1422 164.22 29.1368 163.687 28.6095C163.155 28.0822 162.138 27.8187 160.638 27.8191L157.821 27.8195Z" fill="white"/>
<path d="M173.215 42.1974C172.252 42.1974 171.771 41.7215 171.772 40.7698V26.391C171.772 25.4392 172.253 24.9632 173.215 24.9629C174.177 24.9626 174.658 25.4386 174.658 26.391V27.7164C175.322 26.8185 176.214 26.1092 177.243 25.6597C178.291 25.1948 179.491 24.9626 180.843 24.9629C181.805 24.9629 182.286 25.4389 182.287 26.391C182.287 27.343 181.806 27.8187 180.843 27.8181C178.861 27.8181 177.349 28.1806 176.307 28.9056C175.265 29.6307 174.715 30.588 174.658 31.7776V40.7683C174.658 41.7207 174.177 42.1971 173.215 42.1974Z" fill="white"/>
<path d="M185.963 42.1974C185 42.1974 184.519 41.7215 184.519 40.7698V26.391C184.519 25.4392 185 24.9632 185.963 24.9629C186.925 24.9626 187.406 25.4386 187.405 26.391V26.9512C188.619 25.626 190.406 24.9632 192.765 24.9629H193.727C196.017 24.9629 197.713 25.5067 198.813 26.5944C199.912 27.6821 200.462 29.3589 200.462 31.6248V40.7683C200.462 41.7198 199.981 42.1956 199.019 42.1959C198.057 42.1963 197.575 41.7204 197.575 40.7683V31.6262C197.575 30.1427 197.303 29.1373 196.759 28.61C196.215 28.0827 195.204 27.8192 193.727 27.8195H192.765C191.39 27.8195 190.193 27.9756 189.174 28.2876C188.154 28.5997 187.565 29.0894 187.404 29.7568V40.7698C187.405 41.7212 186.924 42.1971 185.963 42.1974Z" fill="white"/>
<path d="M212.214 42.1974C209.591 42.1974 207.653 41.5764 206.398 40.3346C205.144 39.0928 204.516 37.1752 204.515 34.5817V26.7659C204.515 24.1492 205.139 22.2202 206.388 20.979C207.637 19.7379 209.567 19.1289 212.178 19.1521H216.336C218.489 19.1521 220.133 19.5912 221.266 20.4694C222.4 21.3476 223.059 22.7327 223.242 24.6247C223.311 25.1004 223.219 25.4629 222.967 25.7123C222.715 25.9616 222.348 26.0862 221.868 26.0862C220.998 26.0862 220.495 25.6104 220.356 24.6586C220.241 23.6171 219.877 22.9147 219.265 22.5514C218.652 22.188 217.676 22.0067 216.336 22.0074H212.178C210.963 21.9959 210.01 22.1318 209.317 22.4152C208.624 22.6986 208.132 23.1887 207.839 23.8854C207.547 24.5824 207.401 25.5425 207.401 26.7659V34.5836C207.401 35.7958 207.547 36.7475 207.839 37.4388C207.974 37.7706 208.175 38.0719 208.43 38.3246C208.686 38.5773 208.99 38.7761 209.326 38.9089C210.024 39.198 210.986 39.3425 212.212 39.3421H216.336C217.4 39.3421 218.233 39.2261 218.835 38.994C219.122 38.8892 219.383 38.7251 219.601 38.5126C219.819 38.3001 219.988 38.0441 220.098 37.7617C220.338 37.1729 220.459 36.3401 220.459 35.2632V33.6656L217.779 33.6317C216.816 33.6317 216.335 33.1558 216.336 32.2041C216.336 31.2523 216.817 30.7766 217.779 30.777L221.902 30.8104C222.864 30.8104 223.345 31.2863 223.346 32.238V35.2632C223.346 37.6768 222.778 39.4359 221.644 40.5405C220.51 41.6451 218.74 42.1974 216.336 42.1974H212.214Z" fill="white"/>
<path d="M228.862 42.1974C228.369 42.1974 228.005 42.0813 227.77 41.8492C227.535 41.6171 227.418 41.2573 227.418 40.7698V20.6118C227.418 20.1131 227.536 19.7506 227.77 19.5242C228.005 19.2978 228.369 19.1845 228.862 19.1841C229.365 19.1841 229.732 19.2975 229.961 19.5242C230.19 19.7509 230.305 20.1134 230.307 20.6118V40.7674C230.307 41.2546 230.192 41.6144 229.963 41.8468C229.734 42.0793 229.367 42.1961 228.862 42.1974Z" fill="white"/>
<path d="M241.352 42.1974C239.393 42.1974 237.867 41.8064 236.773 41.0243C235.679 40.2423 234.995 39.0357 234.72 37.4045C234.674 36.9061 234.777 36.5323 235.029 36.283C235.282 36.0337 235.648 35.9092 236.129 35.9095C236.61 35.9095 236.962 36.0227 237.185 36.2491C237.408 36.4755 237.56 36.8267 237.641 37.3027C237.812 38.0844 238.182 38.6198 238.748 38.909C239.315 39.1981 240.183 39.3425 241.352 39.3422H246.3C247.777 39.3422 248.782 39.0788 249.315 38.5522C249.847 38.0255 250.113 37.0426 250.114 35.6033C250.114 34.1418 249.839 33.142 249.289 32.6039C248.74 32.0658 247.743 31.7967 246.3 31.7967H242.04C239.876 31.7967 238.269 31.2726 237.221 30.2244C236.172 29.1762 235.648 27.5814 235.648 25.44C235.648 23.3102 236.167 21.7297 237.203 20.6987C238.24 19.6677 239.841 19.1522 242.006 19.1522H246.096C247.917 19.1522 249.346 19.5206 250.382 20.2574C251.418 20.9942 252.074 22.1214 252.35 23.6389C252.418 24.1261 252.326 24.4971 252.074 24.7518C251.823 25.0065 251.445 25.1339 250.941 25.1339C250.483 25.1339 250.139 25.015 249.91 24.7771C249.681 24.5393 249.532 24.1936 249.463 23.7402C249.28 23.0715 248.93 22.6155 248.415 22.3723C247.9 22.129 247.127 22.0072 246.097 22.0069H242.009C240.634 22.0069 239.712 22.2476 239.242 22.7291C238.773 23.2105 238.538 24.114 238.538 25.4396C238.538 26.7769 238.778 27.6947 239.259 28.1931C239.74 28.6914 240.668 28.9405 242.043 28.9405H246.304C248.56 28.9405 250.24 29.4844 251.346 30.5721C252.451 31.6598 253.004 33.3367 253.004 35.6029C253.004 37.8576 252.454 39.5202 251.355 40.5907C250.255 41.6612 248.571 42.1966 246.304 42.1969L241.352 42.1974Z" fill="white"/>
</g>
<defs>
<clipPath id="clip0">
<rect width="253" height="55" fill="white"/>
</clipPath>
</defs>
</svg>
