<svg width="67" height="80" viewBox="0 0 67 80" fill="none" xmlns="http://www.w3.org/2000/svg">
<g opacity="0.9">
<path opacity="0.9" d="M33.6798 21.4497C39.556 21.4497 44.3196 16.6868 44.3196 10.8115C44.3196 4.93621 39.556 0.17334 33.6798 0.17334C27.8036 0.17334 23.04 4.93621 23.04 10.8115C23.04 16.6868 27.8036 21.4497 33.6798 21.4497Z" stroke="white" stroke-width="0.6" stroke-miterlimit="10"/>
<path opacity="0.9" d="M33.6797 23.8233C39.9167 23.8233 44.9728 18.7682 44.9728 12.5325C44.9728 6.29676 39.9167 1.2417 33.6797 1.2417C27.4426 1.2417 22.3865 6.29676 22.3865 12.5325C22.3865 18.7682 27.4426 23.8233 33.6797 23.8233Z" stroke="white" stroke-width="0.6" stroke-miterlimit="10"/>
<path opacity="0.9" d="M33.6797 26.2894C40.3319 26.2894 45.7246 20.9008 45.7246 14.2536C45.7246 7.60639 40.3319 2.21777 33.6797 2.21777C27.0275 2.21777 21.6348 7.60639 21.6348 14.2536C21.6348 20.9008 27.0275 26.2894 33.6797 26.2894Z" stroke="white" stroke-width="0.6" stroke-miterlimit="10"/>
<path opacity="0.9" d="M46.1178 19.2897C45.4602 21.7456 44.0883 23.9517 42.1755 25.629C40.2628 27.3063 37.8951 28.3795 35.3717 28.713C32.8483 29.0465 30.2826 28.6253 27.9989 27.5027C25.7151 26.38 23.8159 24.6063 22.5414 22.4058C21.2668 20.2052 20.674 17.6767 20.838 15.1398C21.0021 12.6028 21.9155 10.1714 23.4629 8.15286C25.0103 6.13433 27.1221 4.61934 29.5314 3.79938C31.9408 2.97941 34.5394 2.8913 36.9989 3.54618C38.633 3.98129 40.1653 4.73378 41.5081 5.76063C42.8509 6.78747 43.978 8.06854 44.8248 9.53063C45.6717 10.9927 46.2218 12.6072 46.4437 14.2817C46.6655 15.9562 46.5548 17.658 46.1178 19.2897Z" stroke="white" stroke-width="0.6" stroke-miterlimit="10"/>
<path opacity="0.9" d="M33.6921 31.4642C41.296 31.4549 47.4526 25.2882 47.4433 17.6905C47.4341 10.0928 41.2623 3.94121 33.6584 3.95049C26.0546 3.95976 19.8979 10.1264 19.9072 17.7241C19.9165 25.3218 26.0882 31.4734 33.6921 31.4642Z" stroke="white" stroke-width="0.6" stroke-miterlimit="10"/>
<path opacity="0.9" d="M33.3617 34.4673C41.4893 34.4673 48.0781 27.8841 48.0781 19.7633C48.0781 11.6425 41.4893 5.05933 33.3617 5.05933C25.234 5.05933 18.6453 11.6425 18.6453 19.7633C18.6453 27.8841 25.234 34.4673 33.3617 34.4673Z" stroke="white" stroke-width="0.6" stroke-miterlimit="10"/>
<path opacity="0.9" d="M33.6798 36.8469C42.3536 36.8469 49.385 29.8189 49.385 21.1495C49.385 12.4801 42.3536 5.45215 33.6798 5.45215C25.0061 5.45215 17.9746 12.4801 17.9746 21.1495C17.9746 29.8189 25.0061 36.8469 33.6798 36.8469Z" stroke="white" stroke-width="0.6" stroke-miterlimit="10"/>
<path opacity="0.9" d="M33.6796 39.6016C42.9186 39.6016 50.4083 32.1134 50.4083 22.8763C50.4083 13.6391 42.9186 6.15088 33.6796 6.15088C24.4406 6.15088 16.9509 13.6391 16.9509 22.8763C16.9509 32.1134 24.4406 39.6016 33.6796 39.6016Z" stroke="white" stroke-width="0.6" stroke-miterlimit="10"/>
<path opacity="0.9" d="M49.1131 33.4451C47.3627 36.4941 44.7463 38.9562 41.5949 40.5202C38.4435 42.0841 34.8985 42.6795 31.4083 42.2312C27.918 41.783 24.6392 40.3111 21.9865 38.0016C19.3338 35.6922 17.4263 32.6491 16.5053 29.2569C15.5842 25.8648 15.691 22.2761 16.812 18.9445C17.933 15.613 20.018 12.6882 22.8033 10.5402C25.5886 8.39213 28.9491 7.11721 32.4598 6.87665C35.9706 6.63608 39.4739 7.44066 42.5268 9.18867C44.5552 10.3483 46.3347 11.8959 47.7637 13.7429C49.1927 15.59 50.243 17.7003 50.8548 19.9532C51.4665 22.206 51.6275 24.5572 51.3286 26.8723C51.0298 29.1874 50.2769 31.4209 49.1131 33.4451V33.4451Z" stroke="white" stroke-width="0.6" stroke-miterlimit="10"/>
<path opacity="0.9" d="M52.5356 26.3383C52.552 15.921 44.1177 7.46283 33.6971 7.44648C23.2764 7.43013 14.8156 15.8618 14.7992 26.2791C14.7828 36.6964 23.2171 45.1546 33.6377 45.171C44.0584 45.1873 52.5192 36.7556 52.5356 26.3383Z" stroke="white" stroke-width="0.6" stroke-miterlimit="10"/>
<path opacity="0.9" d="M33.6797 48.0046C44.7103 48.0046 53.6524 39.0684 53.6524 28.045C53.6524 17.0217 44.7103 8.08545 33.6797 8.08545C22.6491 8.08545 13.707 17.0217 13.707 28.045C13.707 39.0684 22.6491 48.0046 33.6797 48.0046Z" stroke="white" stroke-width="0.6" stroke-miterlimit="10"/>
<path opacity="0.9" d="M33.6798 50.8463C45.3267 50.8463 54.7685 41.4084 54.7685 29.7663C54.7685 18.1241 45.3267 8.68628 33.6798 8.68628C22.0328 8.68628 12.5911 18.1241 12.5911 29.7663C12.5911 41.4084 22.0328 50.8463 33.6798 50.8463Z" stroke="white" stroke-width="0.6" stroke-miterlimit="10"/>
<path opacity="0.9" d="M33.6798 53.7049C45.9527 53.7049 55.9019 43.7603 55.9019 31.493C55.9019 19.2256 45.9527 9.28101 33.6798 9.28101C21.4069 9.28101 11.4578 19.2256 11.4578 31.493C11.4578 43.7603 21.4069 53.7049 33.6798 53.7049Z" stroke="white" stroke-width="0.6" stroke-miterlimit="10"/>
<path opacity="0.9" d="M33.6797 56.5753C46.5881 56.5753 57.0524 46.1161 57.0524 33.214C57.0524 20.312 46.5881 9.85278 33.6797 9.85278C20.7712 9.85278 10.3069 20.312 10.3069 33.214C10.3069 46.1161 20.7712 56.5753 33.6797 56.5753Z" stroke="white" stroke-width="0.6" stroke-miterlimit="10"/>
<path opacity="0.9" d="M33.6797 59.4572C47.2268 59.4572 58.2089 48.4809 58.2089 34.9409C58.2089 21.4009 47.2268 10.4246 33.6797 10.4246C20.1325 10.4246 9.15039 21.4009 9.15039 34.9409C9.15039 48.4809 20.1325 59.4572 33.6797 59.4572Z" stroke="white" stroke-width="0.6" stroke-miterlimit="10"/>
<path opacity="0.9" d="M33.6798 62.3449C47.872 62.3449 59.3771 50.8462 59.3771 36.6619C59.3771 22.4776 47.872 10.979 33.6798 10.979C19.4875 10.979 7.98242 22.4776 7.98242 36.6619C7.98242 50.8462 19.4875 62.3449 33.6798 62.3449Z" stroke="white" stroke-width="0.6" stroke-miterlimit="10"/>
<path opacity="0.9" d="M33.6798 65.2441C48.5203 65.2441 60.551 53.2206 60.551 38.3888C60.551 23.557 48.5203 11.5334 33.6798 11.5334C18.8392 11.5334 6.80859 23.557 6.80859 38.3888C6.80859 53.2206 18.8392 65.2441 33.6798 65.2441Z" stroke="white" stroke-width="0.6" stroke-miterlimit="10"/>
<path opacity="0.9" d="M33.6797 68.1491C49.1717 68.1491 61.7305 55.5955 61.7305 40.1098C61.7305 24.6242 49.1717 12.0706 33.6797 12.0706C18.1877 12.0706 5.62891 24.6242 5.62891 40.1098C5.62891 55.5955 18.1877 68.1491 33.6797 68.1491Z" stroke="white" stroke-width="0.6" stroke-miterlimit="10"/>
<path opacity="0.9" d="M33.6797 71.0598C49.8296 71.0598 62.9217 57.9735 62.9217 41.8308C62.9217 25.6881 49.8296 12.6018 33.6797 12.6018C17.5298 12.6018 4.43774 25.6881 4.43774 41.8308C4.43774 57.9735 17.5298 71.0598 33.6797 71.0598Z" stroke="white" stroke-width="0.6" stroke-miterlimit="10"/>
<path opacity="0.9" d="M64.0949 43.5762C64.1155 26.7765 50.5068 13.1409 33.699 13.1204C16.8912 13.0999 3.24917 26.7022 3.22862 43.502C3.20807 60.3017 16.8168 73.9373 33.6246 73.9578C50.4323 73.9783 64.0744 60.376 64.0949 43.5762Z" stroke="white" stroke-width="0.6" stroke-miterlimit="10"/>
<path opacity="0.9" d="M33.6796 76.8986C51.1517 76.8986 65.3156 62.7419 65.3156 45.2787C65.3156 27.8154 51.1517 13.6587 33.6796 13.6587C16.2076 13.6587 2.0437 27.8154 2.0437 45.2787C2.0437 62.7419 16.2076 76.8986 33.6796 76.8986Z" stroke="white" stroke-width="0.6" stroke-miterlimit="10"/>
<path opacity="0.9" d="M33.6795 79.8268C51.8158 79.8268 66.5182 65.1323 66.5182 47.0056C66.5182 28.8789 51.8158 14.1843 33.6795 14.1843C15.5432 14.1843 0.84082 28.8789 0.84082 47.0056C0.84082 65.1323 15.5432 79.8268 33.6795 79.8268Z" stroke="white" stroke-width="0.6" stroke-miterlimit="10"/>
</g>
</svg>
