<svg width="81" height="80" viewBox="0 0 81 80" fill="none" xmlns="http://www.w3.org/2000/svg">
<g opacity="0.9">
<path opacity="0.9" d="M40.6231 79.6725C62.5483 79.6725 80.3222 61.9091 80.3222 39.9968C80.3222 18.0845 62.5483 0.321045 40.6231 0.321045C18.6979 0.321045 0.924072 18.0845 0.924072 39.9968C0.924072 61.9091 18.6979 79.6725 40.6231 79.6725Z" stroke="white" stroke-miterlimit="10"/>
<path opacity="0.9" d="M79.4227 39.1429C79.4642 41.0946 79.3719 43.0469 79.1462 44.9861C78.5743 49.6665 77.082 54.1879 74.7552 58.2905C73.2483 60.8979 71.4982 63.3573 69.5284 65.6361C67.577 67.9409 65.3462 69.9943 62.8873 71.749C59.9343 73.8486 56.6692 75.4715 53.2116 76.5584C50.8113 77.3076 48.3403 77.809 45.8376 78.0545C44.2113 78.204 42.5778 78.2598 40.9451 78.2215C38.723 78.1679 36.5078 77.9533 34.3168 77.5794C33.061 77.3696 31.8288 77.1084 30.6201 76.796C24.8728 75.3537 19.5637 72.535 15.152 68.5835C13.7818 67.3292 12.4934 65.9888 11.2946 64.5703C9.86099 62.8886 8.55445 61.1029 7.38572 59.2279C6.23069 57.3586 5.23086 55.3979 4.39624 53.3655C3.69464 51.6501 3.13348 49.8806 2.71828 48.0746C2.09481 45.3112 1.81198 42.4821 1.87607 39.6501C1.91315 37.4022 2.12812 35.1607 2.51897 32.9465C3.4965 27.0362 5.79983 21.4233 9.25656 16.5279C11.6693 13.207 14.6226 10.3138 17.9936 7.96864C21.3623 5.62526 25.0785 3.82471 29.0064 2.63274C32.8389 1.46949 36.8177 0.857604 40.8229 0.815571C47.2746 0.715856 53.6451 2.26155 59.3318 5.30647C65.0186 8.3514 69.8336 12.7949 73.3215 18.2166C77.2647 24.4894 79.3776 31.7364 79.4227 39.1429V39.1429Z" stroke="white" stroke-miterlimit="10"/>
<path opacity="0.9" d="M78.5161 38.2888C78.5963 40.1984 78.5598 42.1112 78.4068 44.0164C77.9748 48.6538 76.552 53.1446 74.2344 57.186C72.716 59.7393 71.0143 62.1793 69.1426 64.4868C67.3307 66.8055 65.221 68.8759 62.8679 70.6445C59.9939 72.7883 56.7644 74.4097 53.3273 75.4346C50.9555 76.1264 48.5151 76.557 46.0497 76.7188C44.4522 76.8057 42.8511 76.8057 41.2536 76.7188C39.0817 76.6222 36.9177 76.3949 34.7732 76.0382C33.5474 75.8328 32.3387 75.5866 31.1472 75.2998C25.4768 73.8872 20.1536 71.3894 15.9684 67.4212C14.6603 66.1667 13.424 64.8398 12.2653 63.4466C10.8744 61.8021 9.58619 60.0736 8.40786 58.2711C7.24345 56.4848 6.22851 54.6056 5.37337 52.6527C4.63939 50.9974 4.06045 49.2778 3.64397 47.5159C3.01971 44.8123 2.76452 42.0368 2.88535 39.2648C2.97659 37.0624 3.22582 34.8693 3.63112 32.7025C4.71119 26.7501 6.6206 21.2794 9.98297 16.515C12.3338 13.2422 15.2513 10.4153 18.5978 8.16762C21.9355 5.91931 25.6032 4.20362 29.4693 3.08215C33.2316 1.97409 37.1208 1.35259 41.0415 1.23288C47.3011 1.04518 53.5027 2.47873 59.0433 5.39411C64.5838 8.30948 69.2746 12.6074 72.6593 17.8698C76.3945 23.8157 78.2782 30.8275 78.5161 38.2888Z" stroke="white" stroke-miterlimit="10"/>
<path opacity="0.9" d="M77.6031 37.4156C77.729 39.2814 77.7526 41.1527 77.6738 43.0211C77.3837 47.614 76.0279 52.0765 73.7136 56.0559C72.1847 58.5579 70.5282 60.9796 68.7504 63.3117C67.0883 65.6487 65.1035 67.7392 62.855 69.5209C60.0615 71.7075 56.8661 73.3262 53.4493 74.2853C51.1057 74.9382 48.6932 75.3132 46.2617 75.4026C44.6964 75.4468 43.1298 75.4082 41.5686 75.287C39.4406 75.1457 37.319 74.8953 35.236 74.555C34.0273 74.3559 32.8444 74.1376 31.6808 73.8679C26.1325 72.5837 20.8286 70.2978 16.7912 66.3168C15.5375 65.0775 14.361 63.7484 13.2167 62.3871C11.8473 60.7497 10.5294 59.0866 9.35928 57.3658C8.19428 55.6616 7.16464 53.8689 6.27979 52.0042C5.51744 50.4157 4.92276 48.7523 4.50539 47.0407C3.89113 44.3949 3.67445 41.6725 3.86249 38.963C3.99963 36.8074 4.27449 34.6626 4.6854 32.542C5.77833 26.6924 7.39843 21.3244 10.6579 16.5921C12.9424 13.3526 15.8249 10.5783 19.1506 8.41808C22.4595 6.27083 26.0781 4.6424 29.8806 3.58943C33.5872 2.54431 37.4003 1.92177 41.2471 1.73373C47.3459 1.44632 53.4122 2.7755 58.8304 5.58637C64.2043 8.3514 68.746 12.4931 71.9906 17.5873C75.5908 23.3727 77.2559 30.2047 77.6031 37.4156Z" stroke="white" stroke-miterlimit="10"/>
<path opacity="0.9" d="M76.6966 36.5808C76.8188 38.4751 76.9795 40.2665 76.9345 42.0708C76.787 46.6157 75.5006 51.051 73.1928 54.9707C71.6434 57.5392 69.9333 59.8443 68.3646 62.1816C66.8489 64.5316 64.9871 66.6401 62.8421 68.4358C60.1332 70.6595 56.9786 72.2774 53.5908 73.1809C51.2819 73.7854 48.9058 74.0961 46.5189 74.1055C44.9952 74.1055 43.4844 73.9899 41.9222 73.8487C39.8585 73.6625 37.7819 73.3864 35.731 73.0589C34.5481 72.8727 33.3845 72.6736 32.2465 72.4168C26.8204 71.2353 21.5487 69.2063 17.6527 65.1995C16.4505 63.9667 15.3254 62.6311 14.2068 61.3083C12.8695 59.7031 11.5516 58.0978 10.3494 56.454C9.1779 54.8228 8.13129 53.1057 7.21844 51.3172C6.42892 49.793 5.81634 48.1837 5.3926 46.5207C4.7722 43.9346 4.57464 41.2654 4.80756 38.6163C4.9935 36.5083 5.29396 34.412 5.70762 32.3365C6.80698 26.5576 8.13778 21.318 11.3008 16.6178C13.5184 13.4208 16.3615 10.7058 19.6585 8.63638C22.9384 6.59038 26.5079 5.04918 30.2471 4.06459C33.8872 3.08967 37.6148 2.4767 41.3757 2.2346C47.2729 1.856 53.1636 3.06681 58.4318 5.74048C63.6741 8.35998 68.1035 12.3555 71.2448 17.2984C74.8065 22.9297 76.2337 29.5755 76.6966 36.5808Z" stroke="white" stroke-miterlimit="10"/>
<path opacity="0.9" d="M75.7838 35.7267C75.9445 37.5888 76.1824 39.3289 76.1952 41.0947C76.1926 45.5908 74.9754 50.003 72.6721 53.8662C71.1163 56.4346 69.4255 58.6691 67.9725 61.0321C66.6076 63.3938 64.871 65.5206 62.8293 67.3311C60.1982 69.6001 57.0682 71.217 53.6937 72.0506C51.4041 72.612 49.0492 72.8626 46.6926 72.7954C45.201 72.7569 43.7288 72.5707 42.1923 72.3909C40.1864 72.1597 38.1613 71.8644 36.149 71.5498C34.9918 71.37 33.8474 71.1902 32.7288 70.9654C27.4313 69.8931 22.1788 68.0824 18.4243 64.0757C17.2799 62.8428 16.2062 61.5458 15.1133 60.223C13.8275 58.6434 12.4903 57.0959 11.3009 55.5356C10.1212 53.993 9.0596 52.3639 8.125 50.6621C7.30268 49.2058 6.67173 47.6498 6.24773 46.0325C5.6265 43.5138 5.45673 40.905 5.74627 38.3272C5.95843 36.2532 6.33131 34.2241 6.72991 32.1886C7.83569 26.5381 8.86434 21.3627 11.9374 16.7075C14.0923 13.5475 16.9061 10.8904 20.1858 8.91873C23.435 6.96565 26.9586 5.50908 30.6394 4.59737C34.2232 3.66909 37.8794 3.04613 41.5686 2.73524C47.261 2.26147 52.9746 3.35175 58.0912 5.88801C63.2138 8.37263 67.5352 12.2437 70.5634 17.0606C73.9772 22.4928 75.2116 28.9524 75.7838 35.7267Z" stroke="white" stroke-miterlimit="10"/>
<path opacity="0.9" d="M74.8772 34.8471C75.0637 36.6835 75.3851 38.3722 75.4558 40.1059C75.6048 44.5462 74.459 48.9341 72.1578 52.7361C70.5827 55.3046 68.9433 57.4684 67.5867 59.8571C66.3752 62.2328 64.7613 64.3813 62.8164 66.2075C60.2663 68.5148 57.1681 70.1328 53.8158 70.9078C51.55 71.4183 49.2229 71.6042 46.9047 71.46C45.4453 71.3701 44.0116 71.1325 42.5072 70.9142C40.5785 70.6381 38.5855 70.3235 36.6118 70.0217C35.4803 69.8483 34.3553 69.6877 33.2623 69.4822C28.1191 68.5255 22.8602 66.9138 19.2535 62.9199C18.1606 61.6999 17.1384 60.4093 16.039 59.1123C14.7532 57.5648 13.4674 56.0751 12.2459 54.6176C11.0697 53.1541 9.99565 51.6115 9.03143 50.0008C8.18284 48.5992 7.53372 47.0864 7.10273 45.506C6.48289 43.0363 6.34321 40.4708 6.69127 37.9485C6.94201 35.9258 7.33417 33.9481 7.75205 31.9512C8.86427 26.4034 9.60361 21.3243 12.5802 16.7076C14.6707 13.5834 17.4535 10.9819 20.7129 9.10503C23.9247 7.25592 27.3902 5.88657 30.9993 5.04053C34.5335 4.17424 38.1228 3.54993 41.7422 3.17198C47.2313 2.60948 52.7689 3.58092 57.7375 5.97798C62.7312 8.31745 66.9402 12.0507 69.8562 16.7269C73.1671 22.0499 74.1957 28.3361 74.8772 34.8471Z" stroke="white" stroke-miterlimit="10"/>
<path opacity="0.9" d="M73.9644 34.0125C74.1894 35.8168 74.6073 37.4541 74.7165 39.1493C75.0118 43.5326 73.9357 47.8991 71.6371 51.6447C70.0491 54.181 68.4226 56.3 67.1946 58.7079C66.1381 61.1009 64.6472 63.278 62.7972 65.1289C60.3317 67.4738 57.2661 69.0936 53.938 69.8098C51.6951 70.2699 49.3958 70.3911 47.1169 70.1694C45.6832 70.0346 44.2945 69.7392 42.8223 69.4823C40.945 69.1613 39.0099 68.8403 37.0748 68.5385C35.9625 68.3715 34.8632 68.2303 33.7895 68.0505C28.7428 67.1965 23.5353 65.8545 20.0765 61.8156C19.035 60.6021 18.0642 59.3243 17.0227 58.0465C15.7819 56.5247 14.4511 55.0992 13.2553 53.6866C12.0664 52.3049 10.9731 50.8439 9.98296 49.3139C9.11147 47.9875 8.44603 46.537 8.00926 45.0117C7.38909 42.5995 7.27744 40.085 7.68138 37.6275C7.97712 35.6563 8.42072 33.7299 8.82574 31.7715C9.94439 26.32 10.388 21.3437 13.2682 16.7591C15.2944 13.6762 18.0444 11.1346 21.2787 9.35557C24.4656 7.60289 27.8889 6.3183 31.443 5.54146C34.9202 4.7348 38.4374 4.11111 41.9801 3.67295C47.2633 3.01414 52.6255 3.85997 57.4483 6.11294C62.3122 8.31293 66.4101 11.9096 69.2198 16.4444C72.3635 21.6134 73.1864 27.7134 73.9644 34.0125Z" stroke="white" stroke-miterlimit="10"/>
<path opacity="0.9" d="M73.0578 33.1583C73.315 34.9305 73.7907 36.5165 73.9771 38.1796C74.4261 42.5029 73.4194 46.8522 71.1162 50.5401C69.5154 53.0571 67.9017 55.1247 66.8088 57.6032C65.793 59.902 64.7772 62.0595 62.7843 64.0243C60.4034 66.4101 57.3632 68.0311 54.0537 68.6796C51.836 69.0984 49.5653 69.157 47.3289 68.853C45.9274 68.6667 44.5773 68.3136 43.1372 68.0247C41.3178 67.6587 39.4277 67.3055 37.5312 67.0294C36.4447 66.8689 35.371 66.7468 34.3167 66.5927C29.3985 65.8479 24.2103 64.7371 20.8929 60.6854C19.9028 59.4782 18.9642 58.2069 17.9741 56.9548C16.7655 55.4651 15.4411 54.0974 14.226 52.7618C13.0354 51.4597 11.9295 50.0828 10.9151 48.6395C10.0126 47.3787 9.32603 45.977 8.88354 44.4915C8.26676 42.1377 8.18766 39.6755 8.65209 37.287C8.97997 35.3607 9.46215 33.4922 9.86717 31.5723C10.9922 26.2236 11.153 21.3436 13.9303 16.8039C15.8935 13.7598 18.6108 11.2737 21.8187 9.58658C24.9743 7.93312 28.3489 6.73543 31.8415 6.02932C35.191 5.28448 38.7462 4.66807 42.1729 4.15439C47.2512 3.40814 52.4372 4.13472 57.1139 6.24766C61.8475 8.30779 65.8348 11.768 68.5382 16.1618C71.592 21.1702 72.177 27.0904 73.0578 33.1583Z" stroke="white" stroke-miterlimit="10"/>
<path opacity="0.9" d="M72.1514 32.2785C72.4407 34.0186 72.9872 35.5533 73.2443 37.1842C73.835 41.4358 72.8964 45.7588 70.5956 49.3842C68.9948 51.882 67.3811 53.879 66.4167 56.3703C65.536 58.6691 64.6873 60.8651 62.7715 62.8556C60.4793 65.2842 57.4657 66.9118 54.1759 67.498C51.9803 67.8738 49.7368 67.8738 47.5412 67.498C46.1718 67.2604 44.8603 66.8559 43.4523 66.522C41.6908 66.1175 39.8521 65.7386 37.9941 65.4689C36.9269 65.3213 35.8726 65.2185 34.8439 65.0837C30.0479 64.4416 24.8854 63.5812 21.7159 59.5103C20.7773 58.3095 19.9158 57.051 18.9322 55.8181C17.7492 54.3606 16.4248 53.0442 15.2033 51.7921C14.0064 50.5763 12.8836 49.2897 11.841 47.9395C10.9102 46.7509 10.2063 45.4014 9.76441 43.9584C9.13542 41.6518 9.08464 39.2261 9.61654 36.8953C9.983 35.0267 10.5037 33.2032 10.9023 31.3218C12.0403 26.0694 11.9053 21.2985 14.5862 16.7781C16.4932 13.7903 19.1807 11.3792 22.3588 9.8048C25.4863 8.25093 28.8137 7.13599 32.2466 6.49155C35.5318 5.8045 39.0292 5.20732 42.3658 4.623C47.2457 3.77505 52.2675 4.38024 56.8054 6.36312C61.4087 8.27917 65.2848 11.6042 67.8761 15.8599C70.7499 20.7206 71.1678 26.4996 72.1514 32.2785Z" stroke="white" stroke-miterlimit="10"/>
<path opacity="0.9" d="M71.2384 31.4504C71.5662 33.1648 72.1899 34.6609 72.5242 36.234C73.2715 40.4283 72.4034 44.7496 70.094 48.3313C68.4803 50.8099 66.8795 52.7555 66.0502 55.2725C65.2915 57.5648 64.6229 59.7672 62.7778 61.8027C60.5738 64.2684 57.5854 65.8991 54.3172 66.4195C52.1417 66.7508 49.9239 66.6833 47.7725 66.2204C46.4289 65.9314 45.1624 65.4756 43.7801 65.1031C42.0344 64.6265 40.2609 64.2577 38.4698 63.9987C37.4283 63.8575 36.3996 63.774 35.3903 63.6648C30.7228 63.1383 25.5732 62.5026 22.5323 58.4188C21.6515 57.2245 20.8415 55.9724 19.8835 54.7717C18.7343 53.4085 17.4973 52.1215 16.1804 50.919C14.972 49.7778 13.8321 48.5664 12.7666 47.2911C11.8118 46.1728 11.0885 44.8764 10.6386 43.477C10.0203 41.2353 10.0003 38.8711 10.5808 36.6193C10.9922 34.8086 11.5451 33.0299 11.9566 31.1871C13.0945 26.0502 12.6702 21.3629 15.2546 16.881C17.089 13.9145 19.7439 11.5417 22.8987 10.049C25.9939 8.59403 29.2727 7.56581 32.6451 6.99253C35.8596 6.35042 39.3184 5.76611 42.5586 5.11759C47.2224 4.18757 52.0581 4.67052 56.4452 6.50452C60.918 8.27775 64.6851 11.4672 67.1688 15.5839C69.9461 20.2905 70.1647 25.8576 71.2384 31.4504Z" stroke="white" stroke-miterlimit="10"/>
<path opacity="0.9" d="M70.3063 30.59C70.6727 32.2787 71.367 33.6978 71.7399 35.2645C72.1865 37.3041 72.2208 39.4122 71.8411 41.4652C71.4613 43.5183 70.675 45.475 69.5283 47.2206C67.9018 49.6862 66.3139 51.5676 65.6195 54.1232C64.9766 56.4091 64.4944 58.6179 62.7136 60.6984C60.6004 63.1998 57.639 64.8364 54.3945 65.2959C52.2462 65.5787 50.0634 65.4458 47.9655 64.9042C46.6797 64.5703 45.426 64.0566 44.0759 63.62C42.3945 63.1009 40.6748 62.7145 38.9327 62.4641C37.917 62.3293 36.914 62.2651 35.924 62.1752C31.3851 61.7643 26.2805 61.3662 23.381 57.2631C22.5517 56.0816 21.793 54.8359 20.8608 53.6545C19.7398 52.3178 18.5075 51.0784 17.177 49.9495C15.9667 48.886 14.8142 47.7586 13.7246 46.572C12.7436 45.5249 12.0002 44.2786 11.5452 42.9184C10.9153 40.7347 10.9153 38.4178 11.5452 36.2341C11.9952 34.4747 12.5931 32.7475 12.9982 30.9431C14.149 25.8962 13.4289 21.3116 15.9169 16.8682C17.5692 13.9081 20.4172 11.6735 23.4389 10.2288C26.4958 8.88708 29.7167 7.95442 33.0181 7.45493C36.2326 6.88345 39.5757 6.2991 42.7259 5.57352C47.1856 4.54703 51.8528 4.9032 56.1046 6.59449C60.4466 8.22625 64.1067 11.2797 66.4874 15.2565C69.1362 19.8476 69.1683 25.2156 70.3063 30.59Z" stroke="white" stroke-miterlimit="10"/>
<path opacity="0.9" d="M69.4191 29.7103C69.8241 31.3669 70.5956 32.7346 71.0263 34.2628C71.5467 36.263 71.6387 38.3502 71.2964 40.3883C70.9541 42.4264 70.1851 44.3694 69.0398 46.0904C67.4004 48.5304 65.8253 50.354 65.2531 52.9417C64.7516 55.2212 64.4302 57.4364 62.7265 59.5682C60.7043 62.1062 57.7656 63.7501 54.5424 64.1464C52.4031 64.3878 50.237 64.1889 48.1777 63.5621C46.8919 63.1833 45.7089 62.6118 44.391 62.1624C42.7615 61.5948 41.0795 61.1904 39.3699 60.9552C38.3799 60.8268 37.3898 60.7818 36.4254 60.7176C32.0152 60.4094 26.8977 60.2553 24.1782 56.133C23.4003 54.9579 22.6931 53.7186 21.7866 52.5628C20.6964 51.2572 19.4702 50.0711 18.1285 49.0248C16.9056 48.0433 15.7361 46.9973 14.6247 45.8913C13.6223 44.9161 12.8589 43.723 12.3939 42.4047C11.7776 40.272 11.8179 38.0034 12.5096 35.8938C13.0046 34.1858 13.6347 32.5099 14.0461 30.7569C15.1969 25.8063 14.1875 21.3308 16.5791 16.9196C18.1542 13.998 20.9959 11.8212 23.9853 10.4985C27.0139 9.23941 30.1925 8.37613 33.4424 7.93007C36.5733 7.41638 39.8714 6.83849 42.9445 6.0487C47.1869 4.94144 51.6692 5.1793 55.7703 6.72933C59.9815 8.21798 63.5341 11.1388 65.806 14.9804C68.3326 19.4366 68.1718 24.6056 69.4191 29.7103Z" stroke="white" stroke-miterlimit="10"/>
<path opacity="0.9" d="M68.5125 28.882C68.9561 30.5066 69.7983 31.8229 70.2869 33.319C70.8818 35.2766 71.0319 37.3421 70.726 39.3649C70.4201 41.3878 69.6661 43.3169 68.5189 45.0117C66.8667 47.4325 65.3044 49.1919 64.8672 51.8181C64.4879 54.0912 64.3465 56.3577 62.7135 58.4895C61.7567 59.7611 60.5474 60.8219 59.1613 61.6052C57.7752 62.3886 56.2421 62.8778 54.658 63.0421C52.54 63.2402 50.4041 62.9796 48.3961 62.278C47.1425 61.8413 45.9917 61.2185 44.7059 60.7305C43.136 60.111 41.498 59.6799 39.8263 59.4463C38.8619 59.3179 37.8976 59.2986 36.9525 59.2537C32.6708 59.0546 27.5662 59.1445 24.9946 55.0029C24.305 53.787 23.5517 52.6082 22.738 51.4713C21.6759 50.1936 20.4528 49.0583 19.0992 48.0939C17.8688 47.1927 16.6843 46.2305 15.5504 45.2108C14.5261 44.3115 13.7436 43.1701 13.2745 41.8911C12.6526 39.8127 12.7225 37.5888 13.4738 35.5535C14.0074 33.8969 14.6761 32.2723 15.0875 30.5451C16.2512 25.6972 14.9525 21.318 17.2412 16.9388C18.7456 14.0558 21.5679 11.9497 24.5253 10.6847C27.4826 9.41979 30.6071 8.88684 33.8473 8.39242C36.9822 7.9681 40.0856 7.33746 43.1372 6.50462C47.1683 5.31164 51.4742 5.4263 55.4359 6.8321C59.5094 8.17748 62.9518 10.9604 65.118 14.6594C67.5288 18.9679 67.1817 23.9892 68.5125 28.882Z" stroke="white" stroke-miterlimit="10"/>
<path opacity="0.9" d="M67.5995 28.0278C68.0817 29.6203 68.9946 30.8852 69.5282 32.3492C70.1983 34.2617 70.4073 36.305 70.138 38.3133C69.8688 40.3216 69.1291 42.2381 67.9788 43.9071C66.3137 46.3086 64.7643 48.0102 64.4557 50.6685C64.1986 52.9351 64.2371 55.2274 62.6813 57.3913C61.7725 58.6787 60.5925 59.7517 59.2242 60.5349C57.8558 61.318 56.3323 61.7924 54.7608 61.9246C52.6574 62.0786 50.5466 61.7514 48.589 60.9679C47.361 60.4799 46.2552 59.8121 44.9951 59.2856C43.4894 58.627 41.8989 58.1818 40.2698 57.9628C39.3362 57.8703 38.3985 57.8253 37.4604 57.828C33.3008 57.7317 28.2155 58.0656 25.7982 53.9047C25.1667 52.6948 24.4558 51.5279 23.6702 50.4116C22.6372 49.1633 21.4187 48.0805 20.0571 47.2011C18.7713 46.3343 17.614 45.5317 16.4632 44.5685C15.4187 43.7407 14.6133 42.6503 14.1295 41.4093C13.4545 39.5536 13.6538 37.409 14.4253 35.2451C15.0682 33.652 15.6304 32.0275 16.1096 30.3779C17.2797 25.6328 15.6918 21.3884 17.8776 17.0093C19.3113 14.1583 22.1272 12.1165 25.046 10.9478C27.9647 9.7792 31.0442 9.34253 34.2266 8.9059C37.3065 8.53784 40.3468 7.89312 43.3107 6.97958C47.1316 5.70993 51.2614 5.70993 55.0822 6.97958C59.0199 8.182 62.3554 10.8296 64.4171 14.3895C66.7187 18.5247 66.1915 23.3661 67.5995 28.0278Z" stroke="white" stroke-miterlimit="10"/>
<path opacity="0.9" d="M66.6931 27.174C67.2139 28.7343 68.1911 29.948 68.8083 31.3734C69.5512 33.2386 69.8185 35.2588 69.5862 37.2527C69.354 39.2465 68.6293 41.1515 67.4775 42.7965C65.7995 45.1787 64.263 46.816 64.0894 49.5129C63.948 51.7731 64.173 54.0911 62.6879 56.2807C61.8259 57.5796 60.6744 58.6614 59.3236 59.4412C57.9728 60.2211 56.4595 60.6778 54.9024 60.7755C52.8122 60.8842 50.7264 60.49 48.8205 59.6261C47.6247 59.0931 46.5575 58.374 45.3296 57.8025C43.886 57.1 42.338 56.6359 40.7457 56.4284C39.8355 56.3431 38.9207 56.3153 38.0069 56.3449C33.976 56.3449 28.9035 56.9292 26.6341 52.7491C26.0605 51.5477 25.3941 50.3927 24.6411 49.2946C23.6329 48.0781 22.4187 47.0479 21.0537 46.251C19.7679 45.4548 18.5785 44.7485 17.4084 43.8624C16.3453 43.1128 15.5197 42.0743 15.0297 40.8702C14.3482 39.0851 14.5861 37.0175 15.409 34.8793C16.0954 33.3419 16.6858 31.7636 17.177 30.1534C18.3535 25.5046 16.4762 21.3309 18.5592 17.0223C19.9222 14.2099 22.7188 12.2258 25.6311 11.1471C28.5435 10.0683 31.5522 9.73443 34.6703 9.36201C37.6941 9.06306 40.6733 8.41668 43.5488 7.43569C47.1514 6.06901 51.1064 5.93574 54.7931 7.05683C58.5978 8.10987 61.8325 10.6206 63.7937 14.0429C65.9152 18.0818 65.208 22.7435 66.6931 27.174Z" stroke="white" stroke-miterlimit="10"/>
<path opacity="0.9" d="M65.8058 26.3135C66.3716 27.8481 67.4131 29.0103 68.0945 30.4037C68.9067 32.2189 69.2306 34.2143 69.0344 36.1929C68.8383 38.1714 68.1287 40.0646 66.9759 41.6855C65.2851 44.0484 63.7614 45.628 63.7164 48.3634C63.7164 50.6108 64.1021 52.9544 62.6877 55.1761C61.8795 56.4932 60.7598 57.5919 59.4269 58.3756C58.0941 59.1593 56.5889 59.6041 55.0437 59.6709C52.9653 59.7404 50.9034 59.2808 49.0518 58.3352C47.8882 57.7509 46.8596 56.9869 45.6638 56.3704C44.2853 55.6272 42.7815 55.144 41.2278 54.945C40.3405 54.8681 39.4488 54.8552 38.5597 54.9064C34.6509 55.022 29.5591 55.8503 27.4761 51.6445C26.9627 50.4523 26.3385 49.3107 25.6117 48.2349C24.6327 47.0382 23.4183 46.0548 22.0436 45.3455C20.7578 44.6327 19.5427 44.0163 18.3534 43.2137C17.2762 42.5376 16.4308 41.5499 15.9296 40.382C15.2417 38.6611 15.5118 36.6128 16.3925 34.5645C17.1236 33.0854 17.7404 31.5528 18.2376 29.9799C19.4206 25.4337 17.254 21.3628 19.2406 17.08C20.5264 14.3061 23.3101 12.3926 26.1646 11.3973C29.0191 10.402 32.0086 10.1837 35.0623 9.86909C38.0304 9.64304 40.9508 8.99437 43.7351 7.94277C47.1174 6.51105 50.8848 6.26218 54.4265 7.23647C56.2398 7.68548 57.9418 8.50048 59.4278 9.63128C60.9138 10.7621 62.1523 12.1847 63.0671 13.8116C65.1051 17.645 64.2307 22.1141 65.8058 26.3135Z" stroke="white" stroke-miterlimit="10"/>
<path opacity="0.9" d="M64.8738 25.4595C65.4846 26.9556 66.5968 28.0729 67.3362 29.4278C68.2205 31.1913 68.6046 33.1629 68.4471 35.129C68.2896 37.095 67.5964 38.9805 66.4425 40.5811C64.7324 42.9248 63.1959 44.4338 63.3116 47.2077C63.408 49.455 63.9995 51.818 62.6687 54.0718C61.9126 55.4051 60.8234 56.52 59.5074 57.3078C58.1914 58.0955 56.6934 58.5292 55.1596 58.5665C53.0922 58.5898 51.0556 58.0647 49.2578 57.0447C48.1199 56.4026 47.1298 55.5872 45.9726 54.9322C44.6581 54.15 43.1961 53.6472 41.678 53.4554C40.8224 53.3829 39.9621 53.3829 39.1064 53.4554C35.3262 53.6737 30.273 54.7396 28.3186 50.521C27.8605 49.3393 27.2787 48.2094 26.5827 47.1499C25.6281 45.9816 24.4156 45.0498 23.0403 44.4274C21.7545 43.7853 20.5073 43.2651 19.3051 42.5395C18.2098 41.9444 17.3387 41.0089 16.8235 39.8748C16.1292 38.2182 16.4378 36.2212 17.3764 34.2307C18.1525 32.8109 18.7981 31.3237 19.3051 29.7873C20.4945 25.3375 18.0193 21.3693 19.948 17.125C21.1631 14.3896 23.934 12.5339 26.7499 11.635C29.5658 10.736 32.536 10.6076 35.5126 10.3508C38.4219 10.1935 41.2831 9.54202 43.9732 8.42445C47.1387 6.89373 50.7381 6.50795 54.1567 7.3329C55.8979 7.71165 57.5382 8.45676 58.9682 9.51858C60.3983 10.5804 61.5853 11.9345 62.4501 13.4907C64.3017 17.202 63.2345 21.4913 64.8738 25.4595Z" stroke="white" stroke-miterlimit="10"/>
<path opacity="0.9" d="M63.9672 24.6055C64.6101 26.0695 65.793 27.1354 66.5967 28.4581C67.5572 30.1634 68.0073 32.1083 67.8933 34.0616C67.7794 36.0149 67.1062 37.8944 65.9538 39.4767C64.2372 41.7947 62.6943 43.2586 62.9514 46.0582C63.1636 48.2992 63.9415 50.6814 62.675 52.9673C61.9654 54.3067 60.9042 55.4279 59.6051 56.2107C58.306 56.9934 56.8181 57.4083 55.3009 57.4107C53.2508 57.3894 51.2472 56.7979 49.5148 55.7027C48.409 55.0156 47.4576 54.1488 46.3003 53.4489C45.0561 52.6275 43.6396 52.1024 42.1601 51.9142C41.3155 51.8583 40.4676 51.8799 39.627 51.9785C35.9754 52.306 30.9286 53.6287 29.1285 49.4101C28.73 48.2405 28.1949 47.1219 27.5341 46.0775C26.601 44.9296 25.3845 44.0444 24.0046 43.5091C22.7188 42.944 21.433 42.5202 20.2243 41.8653C19.1198 41.3473 18.2276 40.4653 17.6977 39.3675C16.9969 37.7751 17.3377 35.8295 18.3406 33.8968C19.156 32.5357 19.8282 31.0939 20.3465 29.5946C21.5422 25.2476 18.8035 21.3757 20.5843 17.1635C21.7287 14.4666 24.4803 12.6687 27.2705 11.8661C30.0607 11.0635 32.9537 11.0378 35.8854 10.8451C38.682 10.6654 41.6714 10.203 44.1466 8.91882C47.088 7.31073 50.5058 6.7987 53.7901 7.47408C55.4584 7.78125 57.0372 8.45583 58.4117 9.4488C59.7863 10.4418 60.922 11.7282 61.7364 13.2145C63.4915 16.7654 62.2828 20.8556 63.9672 24.6055Z" stroke="white" stroke-miterlimit="10"/>
<path opacity="0.9" d="M63.0542 23.7515C63.7614 25.1769 64.9829 26.1979 65.8573 27.4821C66.8893 29.1364 67.3978 31.063 67.3163 33.0104C67.2349 34.9578 66.5673 36.8354 65.4008 38.3979C63.6714 40.7031 62.1285 42.1093 62.5335 44.941C62.8549 47.1755 63.8193 49.5834 62.6299 51.895C61.973 53.2478 60.941 54.3838 59.6566 55.168C58.3723 55.9523 56.8895 56.3518 55.3844 56.3191C53.3323 56.2455 51.3462 55.5761 49.6691 54.3928C48.5954 53.6608 47.6761 52.749 46.5832 51.9977C45.4057 51.1402 44.03 50.5946 42.5843 50.4117C41.7618 50.3634 40.9364 50.4021 40.122 50.5273C36.5925 50.9511 31.5522 52.5307 29.9192 48.2543C29.5804 47.0957 29.0874 45.9878 28.4534 44.9602C27.5386 43.8453 26.3225 43.0163 24.9496 42.5716C23.6638 42.0836 22.378 41.7561 21.0922 41.1782C19.983 40.7309 19.0708 39.9018 18.5206 38.841C17.8134 37.3127 18.1927 35.4185 19.2471 33.5436C20.1035 32.2437 20.8028 30.847 21.3301 29.3827C22.5323 25.1384 19.5042 21.3693 21.1886 17.1827C22.2623 14.518 25.001 12.7971 27.7526 12.0459C30.5042 11.2946 33.3523 11.4038 36.226 11.2753C38.9712 11.1533 41.8771 10.7296 44.2816 9.34902C47.0041 7.66595 50.2465 7.02924 53.4043 7.55756C56.6188 8.10335 59.5697 9.97832 60.997 12.8742C62.6878 16.3223 61.3056 20.2263 63.0542 23.7515Z" stroke="white" stroke-miterlimit="10"/>
<path opacity="0.9" d="M62.1478 22.8976C62.9064 24.2845 64.1922 25.2605 65.118 26.5126C66.2126 28.1027 66.7786 29.9963 66.7359 31.9254C66.6932 33.8545 66.044 35.7213 64.8801 37.2615C63.1378 39.541 61.5884 40.8958 62.1478 43.7532C62.5785 45.9941 63.7357 48.4149 62.6171 50.7586C62.0117 52.1209 61.0097 53.2697 59.7415 54.0553C58.4733 54.841 56.9976 55.2271 55.5066 55.1634C53.463 55.0484 51.502 54.3187 49.8812 53.0701C48.8397 52.2868 47.9525 51.33 46.8982 50.5017C45.7883 49.6109 44.4532 49.0441 43.0408 48.8643C42.2379 48.8211 41.4327 48.875 40.6428 49.0248C37.2418 49.5514 32.2015 51.3814 30.7293 47.0985C30.4494 45.9536 30.0009 44.8565 29.3984 43.8431C28.5055 42.7502 27.2873 41.9698 25.9204 41.615C24.6346 41.204 23.2973 40.9729 22.063 40.472C20.9418 40.1093 20.0014 39.3331 19.4335 38.3017C18.7199 36.8441 19.1313 34.9949 20.2436 33.1649C21.0408 31.8806 21.9794 30.5964 22.4101 29.1453C23.6188 24.9973 20.3143 21.3373 21.8829 17.1828C22.8859 14.563 25.6053 12.9 28.3119 12.2707C31.0186 11.6415 33.8345 11.8277 36.6696 11.757C39.3634 11.6864 42.2243 11.3011 44.5195 9.83071C47.1425 8.16123 49.8555 7.2623 53.115 7.67967C56.1624 8.09062 59.0426 9.82431 60.3605 12.5854C61.8842 15.8794 60.3476 19.5907 62.1478 22.8976Z" stroke="white" stroke-miterlimit="10"/>
<path opacity="0.9" d="M61.235 22.0371C62.045 23.3919 63.3951 24.323 64.3787 25.5366C65.5435 27.0624 66.1744 28.9281 66.1744 30.8468C66.1744 32.7656 65.5435 34.6312 64.3787 36.157C62.6301 38.4172 61.0742 39.7143 61.775 42.5781C62.3215 44.8126 63.7037 47.2526 62.6172 49.6413C62.0669 51.0123 61.0963 52.1743 59.8445 52.9609C58.5927 53.7475 57.1239 54.1183 55.6482 54.0204C53.6116 53.8626 51.6769 53.0671 50.1192 51.7473C49.1035 50.9062 48.2484 49.9045 47.2326 49.0634C46.1987 48.1338 44.9037 47.5443 43.5231 47.3746C42.7413 47.3393 41.9583 47.4105 41.1958 47.5865C37.917 48.2286 32.8831 50.2962 31.5523 45.9748C31.3283 44.8466 30.9223 43.7623 30.3501 42.7643C29.473 41.6955 28.2495 40.9664 26.8913 40.7031C25.6055 40.3692 24.2425 40.2408 22.9696 39.8106C21.8468 39.5173 20.8842 38.7956 20.2887 37.8008C19.5686 36.4074 20.0187 34.5903 21.1952 32.8502C22.0245 31.6045 23.0017 30.3973 23.4325 28.9976C24.6475 24.9523 21.0537 21.3886 22.526 17.2727C23.4582 14.7043 26.1583 13.0926 28.8457 12.5532C31.533 12.0139 34.291 12.3028 37.0426 12.2899C39.6721 12.2899 42.488 11.9239 44.6803 10.3636C47.104 8.64277 49.6113 7.57044 52.7423 7.85939C55.661 8.14192 58.4384 9.72792 59.647 12.3541C61.0742 15.4427 59.377 18.9486 61.235 22.0371Z" stroke="white" stroke-miterlimit="10"/>
<path opacity="0.9" d="M21.1758 37.2935C21.481 37.7695 21.8801 38.1784 22.3488 38.4952C22.8174 38.8121 23.3458 39.0302 23.9017 39.1364C25.1875 39.4959 26.5569 39.528 27.8748 39.7785C29.2249 39.9549 30.4547 40.6449 31.3079 41.7048C31.9508 42.623 32.0987 43.7852 32.3815 44.8768C33.513 49.2238 38.5534 46.8866 41.7036 46.161C42.4402 45.959 43.2033 45.8702 43.9666 45.8977C45.3151 46.0641 46.569 46.6767 47.5283 47.6379C48.5055 48.5304 49.322 49.5641 50.312 50.4631C51.8068 51.8561 53.717 52.7222 55.751 52.9288C57.2123 53.058 58.6753 52.7003 59.9116 51.9116C61.1479 51.1228 62.088 49.9474 62.585 48.5689C63.5622 46.161 62.0257 43.7081 61.3699 41.5057C60.5148 38.5906 62.0771 37.3449 63.8451 35.0847C65.0144 33.5772 65.6316 31.7153 65.5942 29.8088C65.5568 27.9023 64.8669 26.066 63.6393 24.6055C62.5914 23.424 61.1899 22.5315 60.3284 21.2216C58.3997 18.3386 60.2705 15.0381 58.9655 12.078C57.879 9.59304 55.1916 8.15475 52.4143 8.01349C49.3991 7.85296 47.1039 9.09223 44.8795 10.8644C42.8029 12.5211 40.0256 12.8357 37.4476 12.7908C34.7603 12.7394 32.0472 12.3477 29.3921 12.7908C26.7369 13.2338 24.0496 14.7749 23.1945 17.2855C21.8187 21.3693 25.7082 24.8366 24.4803 28.7792C24.0496 30.1661 23.0338 31.3476 22.1659 32.5162C20.9315 34.205 20.4493 35.9643 21.1758 37.2935Z" stroke="white" stroke-miterlimit="10"/>
</g>
</svg>
