<svg width="84" height="80" viewBox="0 0 84 80" fill="none" xmlns="http://www.w3.org/2000/svg">
<g opacity="0.9">
<path opacity="0.9" d="M2.32867 4.54206C2.54479 4.0806 2.60357 3.56112 2.496 3.06312C2.38844 2.56513 2.12045 2.11607 1.73306 1.78465C1.46375 1.64327 1.152 1.60508 0.856469 1.67726C0.560937 1.74944 0.302007 1.92701 0.128418 2.17656V5.57783L0.198489 5.62682C0.941248 6.06073 1.90824 5.57784 2.32867 4.54206Z" fill="white"/>
<path opacity="0.9" d="M8.99959 1.07776C9.76337 1.67263 10.6112 1.3157 10.7794 0.28692C10.7901 0.191573 10.7901 0.0953477 10.7794 0H8.25684C8.40853 0.41655 8.66418 0.787507 8.99959 1.07776Z" fill="white"/>
<path opacity="0.9" d="M8.13071 8.32121C8.33582 7.86459 8.38589 7.35353 8.27331 6.86585C8.16073 6.37818 7.89166 5.94062 7.50707 5.6198C6.74329 5.08791 5.80433 5.50081 5.40492 6.4806C5.18547 6.91941 5.1235 7.42017 5.22936 7.89914C5.33523 8.37811 5.6025 8.80628 5.98651 9.11205C6.17598 9.21861 6.38638 9.28274 6.60313 9.3C6.81988 9.31726 7.03779 9.28723 7.24177 9.212C7.44574 9.13677 7.6309 9.01816 7.78439 8.86434C7.93789 8.71052 8.05606 8.52518 8.13071 8.32121Z" fill="white"/>
<path opacity="0.9" d="M2.16037 16.5374C2.60764 16.6809 3.0923 16.6537 3.52068 16.4611C3.94907 16.2685 4.29076 15.9242 4.47973 15.4946C4.73771 15.1019 4.83364 14.6248 4.74744 14.163C4.66125 13.7013 4.39961 13.2907 4.01726 13.0172C3.25348 12.5903 2.23744 13.0662 1.72592 14.0669C1.2144 15.0677 1.45965 16.1735 2.16037 16.5374Z" fill="white"/>
<path opacity="0.9" d="M0.128418 20.5686V23.319C0.263096 23.1602 0.382595 22.9892 0.485344 22.8081C0.982238 21.8843 0.821271 20.9045 0.128418 20.5686Z" fill="white"/>
<path opacity="0.9" d="M14.8994 5.84363C15.6772 6.4735 16.5391 6.22853 16.7353 5.30473C16.7825 4.76555 16.7018 4.22286 16.4997 3.72067C16.2976 3.21847 15.9798 2.77091 15.5721 2.41434C14.7873 1.71449 14.1006 1.94546 13.9184 2.91826C13.8336 3.44874 13.8786 3.99183 14.0494 4.50121C14.2202 5.01059 14.5118 5.47115 14.8994 5.84363Z" fill="white"/>
<path opacity="0.9" d="M13.3721 9.87482C13.2007 9.75371 13.0043 9.67258 12.7973 9.63745C12.5904 9.60233 12.3781 9.6141 12.1764 9.67188C11.9746 9.72966 11.7883 9.83197 11.6314 9.97127C11.4745 10.1106 11.351 10.2833 11.2699 10.4767C11.06 10.8968 11.0047 11.3772 11.1136 11.8339C11.2225 12.2906 11.4886 12.6946 11.8655 12.9752C12.0416 13.0973 12.2418 13.1804 12.4527 13.2187C12.6636 13.2571 12.8803 13.2498 13.0882 13.1974C13.296 13.145 13.4902 13.0487 13.6576 12.915C13.8251 12.7813 13.9618 12.6133 14.0587 12.4223C14.2531 11.9832 14.291 11.4909 14.166 11.0274C14.0411 10.5638 13.7609 10.1571 13.3721 9.87482Z" fill="white"/>
<path opacity="0.9" d="M8.06744 19.4488C8.48466 19.6203 8.94987 19.6354 9.37737 19.4913C9.80486 19.3473 10.1658 19.0538 10.3938 18.665C10.5169 18.4847 10.6023 18.2815 10.645 18.0676C10.6877 17.8536 10.6868 17.6332 10.6423 17.4196C10.5979 17.206 10.5108 17.0036 10.3862 16.8243C10.2616 16.6451 10.1022 16.4928 9.91734 16.3765C9.50834 16.1751 9.03609 16.1437 8.60401 16.2893C8.17193 16.4349 7.81521 16.7456 7.61197 17.1533C7.48283 17.3311 7.39184 17.5337 7.34472 17.7483C7.29759 17.9629 7.29534 18.1848 7.3381 18.4003C7.38085 18.6158 7.4677 18.8202 7.5932 19.0006C7.7187 19.181 7.88015 19.3336 8.06744 19.4488Z" fill="white"/>
<path opacity="0.9" d="M3.61104 23.949C3.09251 24.8378 3.31674 25.7686 4.08753 26.0485C4.53311 26.1426 4.99709 26.093 5.41264 25.9068C5.82818 25.7207 6.17387 25.4076 6.3999 25.0128C6.53494 24.8546 6.63161 24.6673 6.68236 24.4657C6.73312 24.2641 6.73659 24.0536 6.69252 23.8504C6.64844 23.6472 6.55801 23.4569 6.42825 23.2943C6.2985 23.1318 6.13292 23.0014 5.94443 22.9132C5.49558 22.7879 5.01706 22.8228 4.59119 23.0119C4.16531 23.2009 3.81872 23.5323 3.61104 23.949Z" fill="white"/>
<path opacity="0.9" d="M2.76311 31.3672C3.18354 30.5414 2.91727 29.7086 2.14648 29.5126C1.75325 29.4598 1.35312 29.5223 0.994814 29.6925C0.636511 29.8628 0.335495 30.1334 0.128418 30.4714V32.389C0.272836 32.5097 0.447083 32.5895 0.632935 32.62C1.0731 32.6502 1.51213 32.5468 1.89232 32.3232C2.27251 32.0996 2.57608 31.7663 2.76311 31.3672Z" fill="white"/>
<path opacity="0.9" d="M0.128418 36.6511V37.9878C0.163703 37.9089 0.191812 37.8269 0.212402 37.7429C0.325356 37.3817 0.295292 36.9908 0.128418 36.6511Z" fill="white"/>
<path opacity="0.9" d="M21.6335 4.26904C22.4393 4.96889 23.0349 4.87789 22.8107 4.07306C22.4226 3.02517 21.7739 2.09313 20.9258 1.36464C20.0919 0.664785 19.5874 0.664816 19.8327 1.48364C20.1943 2.54599 20.8128 3.50275 21.6335 4.26904Z" fill="white"/>
<path opacity="0.9" d="M20.8627 10.6798C21.6405 11.3027 22.5164 11.1208 22.7266 10.3019C22.7804 9.79875 22.7065 9.29014 22.5118 8.82295C22.3171 8.35577 22.0078 7.945 21.6125 7.6285C20.8277 6.96364 20.1059 7.1106 19.9027 7.97142C19.8153 8.46723 19.8577 8.97722 20.0259 9.45181C20.1941 9.9264 20.4824 10.3494 20.8627 10.6798Z" fill="white"/>
<path opacity="0.9" d="M19.9657 16.5024C20.1633 16.1081 20.209 15.6549 20.094 15.2291C19.979 14.8033 19.7114 14.4346 19.3421 14.1929C19.1783 14.0619 18.9882 13.9677 18.7846 13.9169C18.5811 13.866 18.369 13.8596 18.1627 13.8981C17.9565 13.9367 17.761 14.0192 17.5896 14.1401C17.4183 14.2611 17.2751 14.4176 17.1698 14.5989C16.9609 14.983 16.9055 15.4319 17.0147 15.8553C17.1239 16.2786 17.3897 16.6449 17.7584 16.8804C17.9276 17.0021 18.1193 17.089 18.3224 17.1359C18.5255 17.1829 18.736 17.1889 18.9414 17.1538C19.1469 17.1186 19.3433 17.0429 19.5192 16.931C19.6951 16.8192 19.8468 16.6735 19.9657 16.5024Z" fill="white"/>
<path opacity="0.9" d="M16.3151 21.8283C16.4345 21.669 16.5174 21.4854 16.5579 21.2904C16.5983 21.0955 16.5954 20.8941 16.5493 20.7005C16.5031 20.5068 16.4149 20.3257 16.2909 20.1698C16.1669 20.014 16.0101 19.8873 15.8316 19.7988C15.4467 19.5879 14.9967 19.5284 14.5701 19.632C14.1436 19.7356 13.7712 19.9948 13.5262 20.3586C13.4022 20.5165 13.315 20.7 13.2708 20.8957C13.2267 21.0914 13.2268 21.2945 13.2711 21.4902C13.3154 21.6859 13.4027 21.8693 13.5269 22.0271C13.651 22.1848 13.8088 22.313 13.9887 22.4022C14.3848 22.5804 14.8294 22.6207 15.2511 22.5166C15.6729 22.4126 16.0475 22.1702 16.3151 21.8283Z" fill="white"/>
<path opacity="0.9" d="M10.0296 27.9732C10.4529 28.0786 10.898 28.0572 11.3092 27.9115C11.7204 27.7659 12.0796 27.5026 12.3419 27.1544C12.4649 27.0148 12.5519 26.8473 12.5953 26.6666C12.6386 26.4858 12.6371 26.2971 12.5908 26.1171C12.5446 25.937 12.4549 25.7709 12.3297 25.6334C12.2045 25.4958 12.0475 25.3909 11.8725 25.3277C11.4479 25.1929 10.9911 25.1991 10.5704 25.3455C10.1497 25.4919 9.78783 25.7705 9.53907 26.1396C9.4132 26.2799 9.3243 26.4493 9.28042 26.6325C9.23654 26.8157 9.23905 27.0069 9.28773 27.1889C9.33642 27.3709 9.42974 27.5379 9.55926 27.6748C9.68878 27.8117 9.85042 27.9143 10.0296 27.9732Z" fill="white"/>
<path opacity="0.9" d="M8.7331 32.6201C8.83862 32.4809 8.90693 32.3172 8.93159 32.1443C8.95626 31.9715 8.93647 31.7952 8.87409 31.6321C8.81171 31.4689 8.7088 31.3244 8.57502 31.2119C8.44125 31.0995 8.28103 31.023 8.10946 30.9895C7.68003 30.9159 7.23831 30.9774 6.8454 31.1654C6.45248 31.3535 6.12779 31.6588 5.91621 32.0393C5.80839 32.1844 5.74045 32.3551 5.71914 32.5345C5.69782 32.714 5.72388 32.8959 5.79472 33.0621C5.86556 33.2284 5.97871 33.3732 6.12295 33.4823C6.26719 33.5914 6.43748 33.6609 6.61693 33.6839C7.03432 33.7249 7.4548 33.6468 7.82943 33.4584C8.20407 33.2701 8.51745 32.9794 8.7331 32.6201Z" fill="white"/>
<path opacity="0.9" d="M6.19673 38.2329C6.26003 38.0729 6.28457 37.9002 6.26835 37.7289C6.25213 37.5576 6.1956 37.3926 6.10338 37.2472C6.01116 37.1019 5.88585 36.9804 5.73768 36.8927C5.58951 36.8049 5.42267 36.7534 5.25076 36.7423C4.84258 36.7172 4.43758 36.8278 4.09907 37.057C3.76057 37.2862 3.50764 37.621 3.37984 38.009C3.32112 38.1771 3.30313 38.3568 3.32736 38.5332C3.35158 38.7096 3.41733 38.8778 3.51921 39.0239C3.62109 39.17 3.75619 39.29 3.91345 39.3739C4.07071 39.4578 4.24565 39.5033 4.42391 39.5066C4.81727 39.513 5.20221 39.3925 5.52157 39.1631C5.84093 38.9336 6.0777 38.6074 6.19673 38.2329Z" fill="white"/>
<path opacity="0.9" d="M5.45374 44.0696C5.43513 43.7044 5.28151 43.3591 5.02261 43.1005C4.76372 42.842 4.41797 42.6885 4.05231 42.6699C3.68063 42.6699 3.32417 42.8174 3.06135 43.0799C2.79853 43.3424 2.65088 43.6984 2.65088 44.0696C2.6572 44.247 2.69849 44.4215 2.77236 44.5829C2.84624 44.7444 2.95126 44.8897 3.08142 45.0106C3.21158 45.1315 3.36432 45.2256 3.53092 45.2875C3.69751 45.3494 3.87469 45.3779 4.05231 45.3713C4.40761 45.3722 4.74997 45.2383 5.01015 44.9966C5.27032 44.7549 5.42887 44.4236 5.45374 44.0696Z" fill="white"/>
<path opacity="0.9" d="M2.0975 49.5356C2.06081 49.6924 2.06341 49.8559 2.10506 50.0115C2.14672 50.1671 2.22614 50.3101 2.33631 50.4277C2.44648 50.5454 2.58399 50.6341 2.73667 50.686C2.88935 50.7379 3.05248 50.7514 3.21163 50.7253C3.58739 50.7065 3.94809 50.5719 4.24419 50.3401C4.54029 50.1083 4.75727 49.7905 4.86532 49.4306C4.89626 49.2701 4.88823 49.1046 4.84189 48.9479C4.79555 48.7912 4.71226 48.6479 4.59901 48.53C4.48576 48.4121 4.34585 48.323 4.19101 48.2703C4.03618 48.2175 3.87093 48.2026 3.70914 48.2269C3.33358 48.2369 2.97188 48.3707 2.68038 48.6074C2.38887 48.8441 2.18394 49.1704 2.0975 49.5356Z" fill="white"/>
<path opacity="0.9" d="M1.6973 55.8552C2.07858 55.7815 2.43586 55.6153 2.73768 55.3712C3.0395 55.1271 3.27659 54.8126 3.42807 54.4555C3.6523 53.8186 3.21786 53.3567 2.46809 53.4337C2.08223 53.4909 1.71902 53.6511 1.41683 53.8975C1.11464 54.1439 0.884708 54.4673 0.751333 54.8334C0.548125 55.5262 0.961547 55.9672 1.6973 55.8552Z" fill="white"/>
<path opacity="0.9" d="M1.61394 59.2635C1.85218 58.6617 1.4738 58.3047 0.766072 58.4727C0.54066 58.5335 0.325698 58.6279 0.128418 58.7526V60.6772C0.776317 60.3976 1.30308 59.8964 1.61394 59.2635Z" fill="white"/>
<path opacity="0.9" d="M1.55085 77.8235C1.38746 77.6177 1.16939 77.462 0.921564 77.3741C0.673739 77.2862 0.406159 77.2698 0.149414 77.3266V80.0001H1.698C1.9531 79.6857 2.07971 79.2866 2.05242 78.8829C2.02512 78.4792 1.84594 78.1007 1.55085 77.8235Z" fill="white"/>
<path opacity="0.9" d="M26.7907 3.32441C27.7227 3.98227 28.2622 3.75128 27.9259 2.80649C27.4126 1.67769 26.6011 0.709903 25.5785 0.00708008H24.3943C24.4045 0.180657 24.4448 0.351167 24.5134 0.510995C25.0233 1.62528 25.8066 2.59299 26.7907 3.32441Z" fill="white"/>
<path opacity="0.9" d="M28.1571 9.67901C29.033 10.3789 29.7267 10.2739 29.5586 9.51105C29.2116 8.44636 28.5465 7.51336 27.6526 6.83762C26.7417 6.13777 26.1391 6.22875 26.3142 7.01258C26.652 8.06337 27.2931 8.99103 28.1571 9.67901Z" fill="white"/>
<path opacity="0.9" d="M27.0989 15.4317C27.9397 16.0265 28.8857 15.9075 29.1239 15.1937C29.3622 14.4799 28.8016 13.3811 27.9467 12.7442C27.0919 12.1074 26.3001 12.1774 26.0688 12.9472C25.9863 13.4163 26.0394 13.8991 26.2219 14.3391C26.4043 14.7792 26.7085 15.1581 27.0989 15.4317Z" fill="white"/>
<path opacity="0.9" d="M26.2371 20.4987C26.6925 19.8898 26.3632 18.959 25.5364 18.3991C25.1971 18.1368 24.7697 18.0152 24.3429 18.0595C23.9162 18.1038 23.523 18.3106 23.245 18.6371C23.144 18.8132 23.081 19.0086 23.06 19.2105C23.0391 19.4124 23.0606 19.6165 23.1233 19.8096C23.186 20.0027 23.2884 20.1805 23.424 20.3318C23.5596 20.483 23.7254 20.6042 23.9107 20.6877C24.2607 20.9292 24.6836 21.0424 25.1077 21.0079C25.5317 20.9735 25.9307 20.7936 26.2371 20.4987Z" fill="white"/>
<path opacity="0.9" d="M21.9487 23.144C21.5658 22.9358 21.1253 22.858 20.6941 22.9224C20.2629 22.9868 19.8645 23.1899 19.5593 23.5009C19.4401 23.6429 19.3578 23.812 19.3197 23.9934C19.2816 24.1747 19.2889 24.3626 19.3408 24.5405C19.3928 24.7183 19.4879 24.8807 19.6177 25.0131C19.7474 25.1455 19.9079 25.2439 20.0848 25.2995C20.4811 25.4772 20.9206 25.536 21.3497 25.4689C21.7789 25.4019 22.1793 25.2117 22.5023 24.9216C23.0138 24.3478 22.7616 23.5639 21.9487 23.144Z" fill="white"/>
<path opacity="0.9" d="M16.1048 29.9186C16.5202 30.0312 16.9578 30.0336 17.3744 29.9256C17.791 29.8176 18.1721 29.6029 18.4802 29.3027C18.9917 28.7218 18.7605 28.029 17.9547 27.728C17.5413 27.5871 17.096 27.5683 16.6722 27.6738C16.2484 27.7793 15.864 28.0047 15.5652 28.3229C15.4432 28.4475 15.358 28.6034 15.3191 28.7734C15.2803 28.9434 15.2893 29.1208 15.3451 29.2859C15.401 29.4511 15.5015 29.5976 15.6356 29.7093C15.7697 29.8209 15.9321 29.8934 16.1048 29.9186Z" fill="white"/>
<path opacity="0.9" d="M12.6713 34.7196C13.0788 34.7722 13.4929 34.7186 13.8735 34.5641C14.2541 34.4096 14.5883 34.1594 14.8435 33.8378C15.2639 33.229 14.9836 32.6061 14.1428 32.4381C13.7285 32.3556 13.2994 32.392 12.905 32.5432C12.5106 32.6943 12.1672 32.9539 11.9145 33.2919C11.814 33.4277 11.7539 33.5891 11.7413 33.7575C11.7286 33.9259 11.7639 34.0944 11.843 34.2437C11.9221 34.3929 12.0418 34.5168 12.1884 34.601C12.3349 34.6852 12.5023 34.7263 12.6713 34.7196Z" fill="white"/>
<path opacity="0.9" d="M12.2508 38.7019C12.3096 38.5504 12.3294 38.3867 12.3085 38.2256C12.2876 38.0645 12.2266 37.9112 12.1312 37.7797C12.0357 37.6482 11.9088 37.5426 11.762 37.4726C11.6153 37.4027 11.4533 37.3705 11.2909 37.3792C10.8972 37.3403 10.5013 37.4271 10.1602 37.627C9.81897 37.827 9.55002 38.1298 9.39192 38.492C9.34002 38.653 9.3284 38.8243 9.35811 38.9909C9.38781 39.1575 9.45793 39.3143 9.56232 39.4475C9.66672 39.5808 9.80221 39.6865 9.95696 39.7553C10.1117 39.8242 10.281 39.8542 10.45 39.8427C10.8306 39.8573 11.2066 39.7561 11.5283 39.5523C11.8499 39.3486 12.1019 39.052 12.2508 38.7019Z" fill="white"/>
<path opacity="0.9" d="M11.4169 44.0697C11.3989 43.7107 11.2433 43.3724 10.9824 43.1249C10.7215 42.8773 10.3753 42.7395 10.0154 42.7399C9.83528 42.7324 9.65544 42.7612 9.48662 42.8245C9.31779 42.8878 9.16343 42.9843 9.03269 43.1083C8.90196 43.2324 8.79753 43.3814 8.72561 43.5465C8.65368 43.7117 8.61574 43.8896 8.61401 44.0697C8.61933 44.2465 8.6601 44.4204 8.73391 44.5812C8.80773 44.742 8.91308 44.8864 9.04375 45.0058C9.17442 45.1252 9.32774 45.2172 9.49465 45.2764C9.66155 45.3356 9.83864 45.3608 10.0154 45.3504C10.3674 45.3517 10.7069 45.2206 10.9666 44.9834C11.2262 44.7461 11.387 44.4199 11.4169 44.0697Z" fill="white"/>
<path opacity="0.9" d="M9.05545 50.4033C9.42402 50.3939 9.78161 50.276 10.0833 50.0643C10.385 49.8527 10.6174 49.5567 10.7512 49.2135C10.9123 48.5907 10.3938 48.0798 9.62302 48.0938C9.25564 48.1004 8.89964 48.2222 8.60538 48.442C8.31113 48.6618 8.09352 48.9684 7.98335 49.3185C7.82919 49.9694 8.29867 50.4453 9.05545 50.4033Z" fill="white"/>
<path opacity="0.9" d="M9.10452 53.7347C9.35677 53.1818 8.95035 52.7829 8.20059 52.8599C7.82777 52.9079 7.47202 53.0449 7.16343 53.2593C6.85485 53.4737 6.60251 53.7592 6.42777 54.0916C6.18953 54.6865 6.57492 55.0574 7.30367 54.9384C7.67257 54.8781 8.02422 54.7394 8.33488 54.5317C8.64554 54.3241 8.90799 54.0523 9.10452 53.7347Z" fill="white"/>
<path opacity="0.9" d="M6.9885 57.7657C7.2758 57.2688 6.92544 56.9959 6.21772 57.1639C5.48289 57.3541 4.85168 57.8238 4.45892 58.4726C4.19264 59.0255 4.543 59.2774 5.2297 59.0604C5.94078 58.8303 6.55792 58.376 6.9885 57.7657Z" fill="white"/>
<path opacity="0.9" d="M3.33774 62.8677C3.98002 62.5461 4.528 62.0639 4.92837 61.468C5.17362 61.0131 4.84428 60.8521 4.1786 61.1321C3.49412 61.4232 2.92337 61.9294 2.55294 62.5738C2.33572 63.0567 2.69309 63.1966 3.33774 62.8677Z" fill="white"/>
<path opacity="0.9" d="M2.58789 64.7921C1.95563 65.138 1.47206 65.7032 1.2285 66.3808C1.12339 66.9337 1.53682 67.0387 2.13943 66.6048C2.73005 66.1734 3.18277 65.5802 3.44276 64.8971C3.56189 64.4002 3.21153 64.4072 2.58789 64.7921Z" fill="white"/>
<path opacity="0.9" d="M2.42685 70.9999C2.68619 70.7458 2.88409 70.436 3.00552 70.094C3.12694 69.752 3.16868 69.3869 3.12757 69.0264C3.00845 68.4665 2.52495 68.4175 1.95037 68.9004C1.65917 69.1342 1.42786 69.4338 1.27556 69.7746C1.12325 70.1153 1.05432 70.4874 1.07447 70.86C1.21461 71.4549 1.86628 71.5248 2.42685 70.9999Z" fill="white"/>
<path opacity="0.9" d="M5.88834 75.7798C6.14495 75.4693 6.27516 75.0738 6.25309 74.6718C6.23102 74.2698 6.05828 73.8908 5.76922 73.6103C5.65826 73.4616 5.51675 73.3382 5.3542 73.2486C5.19165 73.1589 5.01179 73.105 4.82668 73.0905C4.64157 73.0759 4.45548 73.101 4.28086 73.1641C4.10625 73.2272 3.94715 73.3268 3.81422 73.4563C3.54075 73.7459 3.38843 74.129 3.38843 74.5271C3.38843 74.9252 3.54075 75.3082 3.81422 75.5978C4.06707 75.8936 4.4261 76.0784 4.81402 76.1124C5.20195 76.1465 5.58774 76.027 5.88834 75.7798Z" fill="white"/>
<path opacity="0.9" d="M7.9695 78.8663C7.67866 79.1756 7.50516 79.5766 7.479 80.0001H9.86845C9.83754 79.8319 9.78819 79.6676 9.72129 79.5102C9.32889 78.5864 8.52307 78.3624 7.9695 78.8663Z" fill="white"/>
<path opacity="0.9" d="M32.0741 -0.0209961H31.2192C31.5906 0.167964 31.9129 0.160965 32.0741 -0.0209961Z" fill="white"/>
<path opacity="0.9" d="M35.1433 6.97748C34.7124 5.83864 33.8971 4.88572 32.838 4.28307C31.899 3.80017 31.4365 4.19206 31.7589 5.17185C32.1765 6.29248 32.9522 7.2444 33.9661 7.88027C34.8981 8.37717 35.4516 7.97127 35.1433 6.97748Z" fill="white"/>
<path opacity="0.9" d="M34.6949 11.5896C33.7839 11.0577 33.1393 11.2886 33.2444 12.0374C33.4774 13.0119 34.087 13.8548 34.9401 14.382C35.823 14.9139 36.5588 14.7249 36.4887 13.983C36.3643 13.4849 36.1415 13.0166 35.8335 12.6056C35.5254 12.1946 35.1383 11.8492 34.6949 11.5896Z" fill="white"/>
<path opacity="0.9" d="M34.5195 17.2094C33.6716 16.6985 32.8307 16.8105 32.5715 17.4823C32.4699 17.8924 32.5127 18.3248 32.6926 18.7071C32.8725 19.0894 33.1786 19.3983 33.5595 19.5819C34.3933 20.0578 35.3533 19.9038 35.6266 19.267C35.8999 18.6301 35.3743 17.7133 34.5195 17.2094Z" fill="white"/>
<path opacity="0.9" d="M29.6005 22.3742C29.138 22.9271 29.4183 23.6829 30.2381 24.0608C30.6131 24.25 31.0348 24.3268 31.4526 24.2821C31.8703 24.2374 32.2661 24.0731 32.5925 23.8089C33.069 23.298 32.7607 22.5422 31.8918 22.1293C31.5316 21.9276 31.1176 21.8429 30.707 21.8868C30.2965 21.9307 29.9097 22.101 29.6005 22.3742Z" fill="white"/>
<path opacity="0.9" d="M26.3281 27.805C26.7324 27.9397 27.1623 27.9788 27.5843 27.9193C28.0062 27.8598 28.4085 27.7033 28.7596 27.4621C29.2852 27.0002 29.0469 26.3843 28.2271 26.0624C27.8329 25.8972 27.4023 25.838 26.9782 25.8908C26.554 25.9436 26.1511 26.1065 25.8096 26.3633C25.2841 26.8672 25.5153 27.5251 26.3281 27.805Z" fill="white"/>
<path opacity="0.9" d="M22.285 31.5632C22.6998 31.6444 23.1271 31.6372 23.5389 31.5419C23.9507 31.4466 24.3377 31.2655 24.6744 31.0103C25.193 30.5414 24.9687 30.0025 24.1629 29.7786C23.7516 29.664 23.3189 29.6492 22.9008 29.7357C22.4827 29.8221 22.0914 30.0072 21.7595 30.2755C21.2409 30.7724 21.4862 31.3812 22.285 31.5632Z" fill="white"/>
<path opacity="0.9" d="M20.9747 34.7755C21.4021 34.2646 21.1288 33.7677 20.33 33.6348C19.9224 33.5684 19.5047 33.6019 19.1129 33.7323C18.7211 33.8627 18.3669 34.0862 18.0807 34.3836C17.6603 34.9365 17.9896 35.4823 18.7814 35.5733C19.1834 35.6118 19.5889 35.5602 19.9684 35.4222C20.3478 35.2841 20.6916 35.0632 20.9747 34.7755Z" fill="white"/>
<path opacity="0.9" d="M18.3191 39.0306C18.5713 38.4357 18.1719 37.9388 17.3801 37.8898C16.9968 37.8543 16.6113 37.9306 16.2706 38.1095C15.9298 38.2884 15.6483 38.5622 15.4601 38.8976C15.2219 39.5275 15.7124 40.0734 16.4972 40.1014C16.8711 40.1127 17.2405 40.0181 17.5629 39.8287C17.8853 39.6392 18.1474 39.3625 18.3191 39.0306Z" fill="white"/>
<path opacity="0.9" d="M17.38 44.0695C17.3738 43.8933 17.3323 43.7201 17.2581 43.5601C17.1839 43.4001 17.0784 43.2566 16.9478 43.1379C16.8173 43.0192 16.6643 42.9278 16.4978 42.869C16.3313 42.8103 16.1548 42.7854 15.9786 42.7957C15.6245 42.7824 15.2793 42.9083 15.0172 43.1465C14.7551 43.3847 14.5971 43.7161 14.5771 44.0695C14.5826 44.2426 14.6223 44.4129 14.6941 44.5706C14.7659 44.7282 14.8683 44.8701 14.9954 44.9879C15.1225 45.1057 15.2718 45.1972 15.4345 45.257C15.5973 45.3168 15.7703 45.3437 15.9435 45.3362C16.2993 45.3467 16.6456 45.2216 16.9124 44.9864C17.1792 44.7511 17.3464 44.4233 17.38 44.0695Z" fill="white"/>
<path opacity="0.9" d="M16.6372 48.9687C16.8194 48.3948 16.3079 47.9189 15.5441 47.9329C15.1824 47.9365 14.8299 48.0466 14.5307 48.2496C14.2315 48.4525 13.999 48.7392 13.8624 49.0737C13.6942 49.6686 14.1427 50.1024 14.8994 50.0605C15.2613 50.0542 15.6145 49.9491 15.9208 49.7567C16.2271 49.5642 16.4749 49.2917 16.6372 48.9687Z" fill="white"/>
<path opacity="0.9" d="M12.9164 54.0284C13.645 53.9168 14.3077 53.5435 14.7803 52.9786C15.0676 52.5167 14.6822 52.1808 13.9395 52.2788C13.5743 52.3175 13.2216 52.4337 12.9049 52.6196C12.5883 52.8054 12.3151 53.0567 12.1036 53.3566C11.8303 53.8675 12.1877 54.1474 12.9164 54.0284Z" fill="white"/>
<path opacity="0.9" d="M12.37 56.2681C12.6924 55.8762 12.37 55.6802 11.6693 55.8552C10.9564 56.0304 10.3151 56.4215 9.83343 56.9749C9.53212 57.4158 9.83343 57.5908 10.5341 57.3668C11.2239 57.1495 11.8528 56.7731 12.37 56.2681Z" fill="white"/>
<path opacity="0.9" d="M8.29885 60.3411C8.91827 60.0241 9.48161 59.608 9.96656 59.1093C10.2539 58.7594 9.96656 58.6894 9.26585 58.9694C8.60797 59.2416 8.02435 59.6662 7.56311 60.2081C7.32487 60.614 7.6542 60.67 8.29885 60.3411Z" fill="white"/>
<path opacity="0.9" d="M7.36687 61.8317C6.76722 62.1585 6.26817 62.6424 5.92341 63.2314C5.77626 63.6653 6.15464 63.6793 6.75025 63.2314C7.31792 62.8365 7.79552 62.3261 8.15168 61.7337C8.31285 61.3768 7.9835 61.4468 7.36687 61.8317Z" fill="white"/>
<path opacity="0.9" d="M7.49304 65.1352C7.40895 64.6453 6.96049 64.6663 6.3789 65.1352C6.09535 65.3468 5.86354 65.6198 5.7009 65.9338C5.53826 66.2477 5.44904 66.5945 5.43994 66.9478C5.53804 67.4727 6.14066 67.4867 6.72225 66.9478C6.97175 66.7173 7.16946 66.4366 7.30233 66.1241C7.43519 65.8117 7.50019 65.4746 7.49304 65.1352Z" fill="white"/>
<path opacity="0.9" d="M10.1065 71.5667C10.3622 71.2554 10.4913 70.8593 10.4679 70.4573C10.4445 70.0553 10.2705 69.6769 9.98041 69.3972C9.86866 69.2508 9.72676 69.13 9.56429 69.043C9.40183 68.9559 9.22258 68.9048 9.03863 68.8928C8.85467 68.8809 8.6703 68.9085 8.49793 68.9738C8.32556 69.039 8.16921 69.1405 8.03942 69.2712C7.76141 69.5475 7.60165 69.9208 7.59381 70.3125C7.58597 70.7041 7.73065 71.0836 7.99738 71.3708C8.12145 71.5242 8.27502 71.6512 8.44904 71.7443C8.62305 71.8375 8.81398 71.8949 9.01056 71.9132C9.20715 71.9314 9.40541 71.9102 9.59364 71.8507C9.78188 71.7912 9.95627 71.6946 10.1065 71.5667Z" fill="white"/>
<path opacity="0.9" d="M12.2227 74.7582C11.6692 75.2901 11.5921 76.4309 11.9845 77.3897C12.3769 78.3485 13.1056 78.7894 13.6732 78.2715C13.9798 77.88 14.1732 77.4121 14.2325 76.9186C14.2918 76.4252 14.2147 75.9249 14.0096 75.4721C13.6031 74.5133 12.7763 74.2193 12.2227 74.7582Z" fill="white"/>
<path opacity="0.9" d="M35.7949 0.118963C36.2555 1.27061 37.148 2.19719 38.2825 2.70142C39.1864 2.95336 39.5367 2.16951 39.0532 0.979766C38.9048 0.632693 38.7167 0.30394 38.4927 0H35.7458C35.7592 0.040834 35.7756 0.0805931 35.7949 0.118963Z" fill="white"/>
<path opacity="0.9" d="M38.871 8.58718C39.0246 9.11722 39.2924 9.60733 39.6555 10.0232C40.0186 10.4391 40.4683 10.7706 40.9732 10.9947C41.8561 11.2816 42.3746 10.6447 42.1013 9.59497C41.9377 9.06336 41.657 8.57504 41.2799 8.16575C40.9029 7.75646 40.439 7.43655 39.9221 7.22947C39.0252 6.97752 38.5978 7.5584 38.871 8.58718Z" fill="white"/>
<path opacity="0.9" d="M41.5758 14.8299C40.6999 14.536 40.0483 14.9699 40.0763 15.7117C40.1318 16.1392 40.3035 16.5433 40.5729 16.8802C40.8422 17.217 41.1987 17.4737 41.6039 17.6223C42.4517 17.9163 43.2015 17.5313 43.2015 16.7755C43.1416 16.3312 42.9572 15.9128 42.6696 15.5686C42.3819 15.2244 42.0028 14.9683 41.5758 14.8299Z" fill="white"/>
<path opacity="0.9" d="M41.9682 21.8844C42.2765 21.2965 41.807 20.6107 40.9872 20.3237C40.6491 20.1613 40.2636 20.1264 39.9018 20.2254C39.54 20.3244 39.2262 20.5508 39.0182 20.8626C38.9557 21.0266 38.9297 21.2023 38.9419 21.3773C38.9541 21.5524 39.0043 21.7227 39.0889 21.8764C39.1736 22.0302 39.2907 22.1638 39.4321 22.2678C39.5736 22.3719 39.736 22.4441 39.9081 22.4793C40.2689 22.6221 40.6671 22.6411 41.0399 22.5334C41.4128 22.4258 41.7393 22.1975 41.9682 21.8844Z" fill="white"/>
<path opacity="0.9" d="M35.914 25.0967C35.4305 25.5796 35.6898 26.1534 36.4886 26.3634C36.8853 26.4663 37.3 26.4796 37.7024 26.4021C38.1049 26.3246 38.485 26.1583 38.8149 25.9155C39.3054 25.4536 39.0322 24.9147 38.2333 24.6767C37.8412 24.557 37.4261 24.5326 37.0227 24.6056C36.6192 24.6787 36.2391 24.8471 35.914 25.0967Z" fill="white"/>
<path opacity="0.9" d="M34.4355 28.05C33.6139 27.8602 32.7505 28.001 32.0321 28.4419C31.4995 28.8548 31.7097 29.3447 32.5015 29.4987C33.3313 29.6336 34.1821 29.4726 34.905 29.0438C35.4375 28.6729 35.2273 28.225 34.4355 28.05Z" fill="white"/>
<path opacity="0.9" d="M28.4233 32.599C29.2537 32.6665 30.0833 32.46 30.7847 32.0111C31.3103 31.6122 31.1071 31.2343 30.3152 31.1223C29.4792 31.0031 28.6282 31.1895 27.9188 31.6472C27.3862 32.0741 27.6315 32.515 28.4233 32.599Z" fill="white"/>
<path opacity="0.9" d="M27.0569 35.2375C27.4914 34.7826 27.2321 34.4117 26.4403 34.3557C25.6304 34.2911 24.8269 34.5419 24.198 35.0555C23.7706 35.5384 24.0929 35.9793 24.8987 36.0073C25.6885 36.0247 26.4569 35.7507 27.0569 35.2375Z" fill="white"/>
<path opacity="0.9" d="M22.5304 40.1924C22.9034 40.1937 23.27 40.0959 23.5926 39.9089C23.9153 39.722 24.1823 39.4527 24.3663 39.1286C24.6185 38.5618 24.2332 38.1349 23.4483 38.1279C23.0682 38.1111 22.6904 38.194 22.3523 38.3683C22.0142 38.5427 21.7278 38.8024 21.5214 39.1216C21.2691 39.6955 21.7806 40.1924 22.5304 40.1924Z" fill="white"/>
<path opacity="0.9" d="M21.9908 42.7959C21.6327 42.7817 21.2828 42.9052 21.013 43.1408C20.7432 43.3764 20.574 43.7062 20.5403 44.0626C20.5428 44.2348 20.5803 44.4047 20.6504 44.562C20.7205 44.7193 20.8218 44.8608 20.9482 44.9779C21.0746 45.0949 21.2235 45.1852 21.3858 45.2432C21.5482 45.3012 21.7206 45.3258 21.8927 45.3153C22.2497 45.3316 22.5995 45.2108 22.8705 44.978C23.1414 44.7451 23.313 44.4177 23.3502 44.0626C23.3476 43.8892 23.31 43.7181 23.2396 43.5596C23.1692 43.4011 23.0675 43.2584 22.9405 43.1401C22.8136 43.0218 22.664 42.9304 22.5008 42.8712C22.3376 42.8121 22.1641 42.7864 21.9908 42.7959Z" fill="white"/>
<path opacity="0.9" d="M20.7505 49.7666C21.1054 49.7649 21.454 49.6735 21.764 49.501C22.074 49.3285 22.3352 49.0803 22.5233 48.7797C22.7265 48.2619 22.229 47.814 21.4582 47.828C21.1034 47.8298 20.7561 47.9295 20.4544 48.116C20.1527 48.3025 19.9084 48.5685 19.7485 48.8847C19.5593 49.4306 19.9867 49.8086 20.7505 49.7666Z" fill="white"/>
<path opacity="0.9" d="M18.5293 53.1118C19.2433 53.0095 19.9124 52.7032 20.4562 52.23C20.7786 51.845 20.4142 51.5721 19.6714 51.6561C18.9501 51.7267 18.2783 52.0547 17.7795 52.5799C17.4712 53.0068 17.8005 53.2308 18.5293 53.1118Z" fill="white"/>
<path opacity="0.9" d="M15.8315 55.6731C16.5098 55.4668 17.1542 55.1626 17.7445 54.7703C18.1159 54.4834 17.8356 54.3714 17.1279 54.5394C16.4291 54.7082 15.776 55.0283 15.2149 55.4772C14.8645 55.8131 15.1448 55.8971 15.8315 55.6731Z" fill="white"/>
<path opacity="0.9" d="M15.0045 56.779C15.3409 56.5341 15.0816 56.5551 14.4159 56.835C13.775 57.0986 13.1737 57.4495 12.6291 57.8778C12.3208 58.1717 12.6291 58.1367 13.2528 57.8078C13.857 57.5007 14.4421 57.1571 15.0045 56.779Z" fill="white"/>
<path opacity="0.9" d="M11.3679 59.9003C11.897 59.5172 12.3896 59.0862 12.8394 58.6126C13.0566 58.3537 12.7623 58.4867 12.1386 58.8716C11.5687 59.1918 11.057 59.6059 10.6251 60.0963C10.4289 60.4042 10.7652 60.3342 11.3679 59.9003Z" fill="white"/>
<path opacity="0.9" d="M11.8514 61.2439C11.7953 60.831 11.3819 60.922 10.8073 61.4119C10.2327 61.9018 9.7282 62.6296 9.79828 63.0775C9.86835 63.5254 10.464 63.4975 11.0245 62.9726C11.2697 62.7532 11.469 62.4875 11.611 62.1908C11.7529 61.8941 11.8346 61.5723 11.8514 61.2439Z" fill="white"/>
<path opacity="0.9" d="M14.1989 65.1842C14.0857 65.0398 13.9428 64.9214 13.7798 64.837C13.6169 64.7526 13.4376 64.704 13.2543 64.6948C13.0709 64.6855 12.8877 64.7156 12.717 64.7831C12.5463 64.8507 12.3922 64.9541 12.2649 65.0862C11.9971 65.3662 11.8453 65.7369 11.84 66.124C11.8347 66.5111 11.9762 66.8859 12.2362 67.1731C12.4962 67.4602 12.8554 67.6385 13.2416 67.672C13.6277 67.7055 14.0123 67.5918 14.318 67.3538C14.5762 67.044 14.7074 66.648 14.6853 66.2456C14.6632 65.8431 14.4894 65.4639 14.1989 65.1842Z" fill="white"/>
<path opacity="0.9" d="M16.4832 70.6641C15.9297 71.196 15.8666 72.3717 16.287 73.3865C16.7075 74.4013 17.4642 74.8982 18.0318 74.3943C18.5994 73.8904 18.7325 72.5397 18.3121 71.4969C17.8917 70.4541 17.0368 70.1112 16.4832 70.6641Z" fill="white"/>
<path opacity="0.9" d="M19.3912 79.2932C19.1803 79.4837 19.0211 79.7245 18.9287 79.993H20.6875C20.3792 79.2512 19.8326 78.9503 19.3912 79.2932Z" fill="white"/>
<path opacity="0.9" d="M42.5567 1.45568C43.0472 2.65942 44.0983 3.65324 44.862 3.62524C45.6258 3.59725 45.857 2.58245 45.3736 1.37871C45.1657 0.859808 44.8613 0.384886 44.4766 -0.0209961H42.3325C42.2664 0.482502 42.3441 0.994389 42.5567 1.45568Z" fill="white"/>
<path opacity="0.9" d="M46.4738 8.23727C45.7171 8.27227 45.3036 9.11909 45.5839 10.1689C45.8642 11.2186 46.7191 12.0725 47.4829 12.0375C48.2466 12.0025 48.6461 11.1207 48.3658 10.0709C48.0855 9.02111 47.2306 8.20928 46.4738 8.23727Z" fill="white"/>
<path opacity="0.9" d="M48.0153 15.8515C47.6406 15.8886 47.2921 16.06 47.0344 16.3342C46.7767 16.6083 46.6273 16.9664 46.6139 17.3422C46.5904 17.5203 46.606 17.7012 46.6595 17.8727C46.7131 18.0441 46.8033 18.2019 46.9239 18.335C47.0446 18.4682 47.1928 18.5735 47.3582 18.6438C47.5237 18.714 47.7025 18.7475 47.8822 18.7419C48.2604 18.7028 48.614 18.5358 48.8842 18.2685C49.1544 18.0012 49.325 17.6497 49.3677 17.2722C49.3897 17.0864 49.3705 16.898 49.3114 16.7204C49.2522 16.5428 49.1546 16.3804 49.0255 16.2447C48.8964 16.1091 48.7389 16.0036 48.5643 15.9356C48.3897 15.8676 48.2023 15.8389 48.0153 15.8515Z" fill="white"/>
<path opacity="0.9" d="M45.8992 23.515C46.2766 23.4708 46.6397 23.3445 46.963 23.145C47.2862 22.9455 47.5617 22.6776 47.7701 22.3602C48.0925 21.7794 47.7701 21.3735 47.0694 21.4295C46.6969 21.456 46.3349 21.5652 46.01 21.7492C45.6851 21.9333 45.4055 22.1875 45.1915 22.4932C44.8622 23.0741 45.1915 23.571 45.8992 23.515Z" fill="white"/>
<path opacity="0.9" d="M44.2034 25.5586C43.3997 25.6134 42.6287 25.8976 41.9821 26.3774C41.4846 26.8183 41.7088 27.1893 42.4446 27.1543C43.2422 27.0905 44.0008 26.7826 44.6168 26.2724C45.1073 25.8175 44.9041 25.5096 44.2034 25.5586Z" fill="white"/>
<path opacity="0.9" d="M38.4857 30.0167C39.3044 29.9889 40.1016 29.7476 40.7981 29.3168C41.3166 28.9459 41.1484 28.701 40.3987 28.722C39.5771 28.7516 38.7746 28.9771 38.0583 29.3798C37.5257 29.7227 37.7149 30.0307 38.4857 30.0167Z" fill="white"/>
<path opacity="0.9" d="M36.3134 31.4724C35.4761 31.4937 34.6592 31.7351 33.945 32.1723C33.4195 32.5432 33.6297 32.8721 34.4355 32.8721C35.2709 32.8664 36.0874 32.6237 36.7899 32.1723C37.3014 31.7524 37.1052 31.4724 36.3134 31.4724Z" fill="white"/>
<path opacity="0.9" d="M33.1461 35.2374C33.5735 34.7965 33.2932 34.4676 32.4453 34.4466C31.6272 34.4319 30.8303 34.7071 30.196 35.2234C29.7686 35.6643 30.0769 36.0073 30.8968 36.0353C31.7195 36.0562 32.5208 35.772 33.1461 35.2374Z" fill="white"/>
<path opacity="0.9" d="M28.5495 40.0944C28.9272 40.1029 29.3005 40.0116 29.6315 39.8297C29.9625 39.6478 30.2395 39.3818 30.4344 39.0586C30.7007 38.4918 30.3083 38.0718 29.4885 38.0509C29.1037 38.0291 28.7201 38.1095 28.3766 38.2841C28.0332 38.4587 27.7423 38.7211 27.5335 39.0446C27.2812 39.6115 27.7507 40.0804 28.5495 40.0944Z" fill="white"/>
<path opacity="0.9" d="M29.2432 44.0205C29.2534 43.8506 29.2274 43.6804 29.167 43.5213C29.1065 43.3621 29.0129 43.2176 28.8924 43.0972C28.7719 42.9768 28.6271 42.8834 28.4678 42.823C28.3084 42.7626 28.1381 42.7366 27.9679 42.7468C27.5996 42.7296 27.2393 42.858 26.9652 43.1043C26.691 43.3506 26.5251 43.6949 26.5034 44.0625C26.5028 44.2298 26.5371 44.3955 26.6041 44.5488C26.6711 44.7021 26.7694 44.8398 26.8927 44.9531C27.016 45.0664 27.1616 45.1527 27.3202 45.2066C27.4788 45.2605 27.6469 45.2809 27.8138 45.2663C28.1617 45.2632 28.497 45.1359 28.7592 44.9075C29.0214 44.679 29.193 44.3644 29.2432 44.0205Z" fill="white"/>
<path opacity="0.9" d="M26.5245 49.3536C27.2018 49.2251 27.8052 48.845 28.2132 48.2899C28.4374 47.835 28.017 47.52 27.3163 47.625C26.9753 47.6607 26.6469 47.7731 26.3556 47.9537C26.0644 48.1343 25.8178 48.3784 25.6345 48.6678C25.4243 49.1647 25.8378 49.5006 26.5245 49.3536Z" fill="white"/>
<path opacity="0.9" d="M24.086 52.083C24.7527 51.8712 25.3835 51.5597 25.9569 51.1592C26.3072 50.8583 26.0129 50.7393 25.3402 50.9353C24.6609 51.1123 24.0213 51.4162 23.4553 51.8311C23.112 52.167 23.4133 52.321 24.086 52.083Z" fill="white"/>
<path opacity="0.9" d="M22.5444 53.1676C21.8785 53.416 21.226 53.6987 20.5894 54.0145C20.204 54.2454 20.4423 54.2384 21.122 53.9375C21.8017 53.6365 22.6846 53.2726 23.077 53.0697C23.4694 52.8667 23.2241 52.8597 22.5444 53.1676Z" fill="white"/>
<path opacity="0.9" d="M20.197 54.3364H20.155C19.8046 54.4904 18.9498 54.8613 18.2561 55.2182L17.6885 55.5122H17.7656C18.158 55.3092 18.9147 54.9593 19.5524 54.6514L20.197 54.3364Z" fill="white"/>
<path opacity="0.9" d="M16.9878 55.8901C16.4091 56.2078 15.852 56.5632 15.3201 56.9538C15.0818 57.1428 15.3621 56.9538 16.0698 56.5479C16.7775 56.142 17.5694 55.6871 17.8076 55.5191C17.9267 55.4421 17.8987 55.4351 17.7656 55.5191H17.6885C17.5343 55.5961 17.2961 55.7221 16.9878 55.8901Z" fill="white"/>
<path opacity="0.9" d="M16.5952 57.4998C16.5952 57.1569 16.0557 57.2199 15.3479 57.6748C14.6402 58.1297 14.1217 58.8155 14.1567 59.1865C14.1917 59.5574 14.7453 59.4594 15.446 58.9695C16.1467 58.4796 16.6162 57.8428 16.5952 57.4998Z" fill="white"/>
<path opacity="0.9" d="M18.7183 61.0059C18.4484 60.7241 18.0818 60.5545 17.692 60.5311C17.3022 60.5077 16.9179 60.6324 16.6162 60.88C16.4564 60.9995 16.3241 61.1517 16.228 61.3265C16.1319 61.5012 16.0743 61.6944 16.059 61.8932C16.0438 62.092 16.0712 62.2918 16.1395 62.4791C16.2078 62.6664 16.3154 62.8371 16.455 62.9795C16.7273 63.2849 17.1083 63.4719 17.5168 63.5007C17.9252 63.5294 18.3287 63.3977 18.6413 63.1335C18.7914 63.0021 18.9131 62.8414 18.9987 62.6613C19.0844 62.4812 19.1324 62.2855 19.1396 62.0863C19.1468 61.887 19.1132 61.6885 19.0407 61.5027C18.9683 61.3169 18.8586 61.1478 18.7183 61.0059Z" fill="white"/>
<path opacity="0.9" d="M22.4391 70.5171C23.0698 70.0622 23.273 68.7745 22.8175 67.6617C22.362 66.549 21.4161 66.0591 20.7994 66.556C20.1828 67.0529 20.1408 68.2846 20.5892 69.3554C21.0377 70.4261 21.7804 70.972 22.4391 70.5171Z" fill="white"/>
<path opacity="0.9" d="M25.7115 77.7116C25.4102 76.2419 24.5904 75.3741 23.9527 75.787C23.3151 76.1999 23.1119 77.6975 23.4062 79.1322C23.4655 79.4281 23.5498 79.7185 23.6584 80.0001H25.6835C25.8695 79.2496 25.8791 78.4663 25.7115 77.7116Z" fill="white"/>
<path opacity="0.9" d="M50.2717 2.6804C50.9233 2.47044 51.1125 1.35068 50.6781 0.181925C50.6781 0.118939 50.629 0.0629866 50.601 0H48.0364C48.077 0.309088 48.1547 0.612174 48.2676 0.902793C48.7301 2.07854 49.62 2.89036 50.2717 2.6804Z" fill="white"/>
<path opacity="0.9" d="M52.6752 10.9456C53.2778 10.7007 53.5861 9.6789 53.3409 8.65012C53.0956 7.62134 52.3669 6.97747 51.7503 7.20143C51.1336 7.42538 50.8604 8.45414 51.1266 9.49692C51.3929 10.5397 52.0726 11.1766 52.6752 10.9456Z" fill="white"/>
<path opacity="0.9" d="M53.1726 14.7389C52.8511 14.9463 52.5804 15.2231 52.3803 15.5489C52.1802 15.8748 52.0558 16.2413 52.0164 16.6215C51.9113 17.3704 52.2547 17.7693 52.8222 17.5103C53.1497 17.3154 53.4324 17.054 53.6521 16.7429C53.8718 16.4319 54.0236 16.0781 54.0975 15.7047C54.2447 14.9628 53.7612 14.487 53.1726 14.7389Z" fill="white"/>
<path opacity="0.9" d="M50.7343 22.3182C51.3947 21.967 51.9415 21.4354 52.3109 20.7855C52.6262 20.1976 52.437 19.9317 51.8834 20.1907C51.235 20.5463 50.6932 21.0681 50.3138 21.7023C49.9985 22.2832 50.1807 22.5631 50.7343 22.3182Z" fill="white"/>
<path opacity="0.9" d="M49.1576 24.4738C48.4613 24.7751 47.8251 25.1995 47.2797 25.7265C46.8242 26.2024 46.9644 26.4264 47.567 26.1884C48.2718 25.9178 48.9065 25.492 49.4239 24.9427C49.8513 24.4738 49.7392 24.2428 49.1576 24.4738Z" fill="white"/>
<path opacity="0.9" d="M43.9862 29.3168C44.7279 29.1066 45.4175 28.7443 46.0112 28.2531C46.4737 27.8471 46.3476 27.6862 45.7169 27.8751C44.979 28.0979 44.283 28.4408 43.6568 28.8899C43.1663 29.2748 43.3205 29.4848 43.9862 29.3168Z" fill="white"/>
<path opacity="0.9" d="M40.3146 32.3962C41.0851 32.2347 41.8059 31.8915 42.4167 31.3954C42.8722 30.9825 42.704 30.7865 42.0033 30.9265C41.2261 31.0915 40.4899 31.4104 39.8381 31.8643C39.3686 32.2632 39.5858 32.5152 40.3146 32.3962Z" fill="white"/>
<path opacity="0.9" d="M37.0211 35.7833C37.8151 35.6728 38.5523 35.3096 39.1233 34.7476C39.5227 34.2787 39.2634 34.0477 38.5136 34.1247C37.7341 34.232 37.0032 34.5654 36.4115 35.0835C35.935 35.5314 36.2573 35.8673 37.0211 35.7833Z" fill="white"/>
<path opacity="0.9" d="M34.5826 39.8704C34.9633 39.8233 35.3284 39.6913 35.6511 39.4841C35.9737 39.277 36.2456 39 36.4465 38.6737C36.7268 38.1138 36.3695 37.7639 35.5987 37.8479C35.2124 37.8774 34.8375 37.9918 34.5008 38.183C34.164 38.3742 33.8737 38.6373 33.6507 38.9536C33.3774 39.4925 33.8189 39.9264 34.5826 39.8704Z" fill="white"/>
<path opacity="0.9" d="M34.926 43.4748C35.0311 42.7749 34.5546 42.32 33.8048 42.404C33.4309 42.4396 33.0787 42.5952 32.8007 42.8476C32.5228 43.0999 32.3343 43.4353 32.2633 43.8037C32.2002 44.4126 32.6907 44.7975 33.4124 44.6925C33.7558 44.6579 34.0816 44.5244 34.3503 44.3082C34.619 44.092 34.819 43.8025 34.926 43.4748Z" fill="white"/>
<path opacity="0.9" d="M33.5666 47.2329C33.8119 46.834 33.4195 46.582 32.7187 46.715C32.0516 46.8372 31.4542 47.2042 31.044 47.7437C30.7988 48.1637 31.1421 48.3456 31.8358 48.1987C32.5051 48.0804 33.1149 47.7402 33.5666 47.2329Z" fill="white"/>
<path opacity="0.9" d="M29.3763 50.5503C30.0456 50.4082 30.6855 50.1525 31.2682 49.7944C31.6046 49.5215 31.3033 49.4025 30.6096 49.5635C29.9423 49.7206 29.3102 50.0007 28.7457 50.3893C28.4023 50.6623 28.6756 50.7112 29.3763 50.5503Z" fill="white"/>
<path opacity="0.9" d="M26.5455 52.1109C27.2226 51.9705 27.8861 51.7714 28.5286 51.516C28.8929 51.3271 28.6056 51.2781 27.8909 51.446C27.215 51.6202 26.556 51.8544 25.9219 52.1459C25.5435 52.2998 25.8168 52.2719 26.5455 52.1109Z" fill="white"/>
<path opacity="0.9" d="M25.081 52.7478C24.4106 52.8932 23.7523 53.0897 23.112 53.3356C22.7687 53.4756 23.112 53.4196 23.8758 53.2587C24.5433 53.1376 25.2013 52.9692 25.8448 52.7548C26.1671 52.6078 25.8308 52.5798 25.081 52.7478Z" fill="white"/>
<path opacity="0.9" d="M21.8506 54.3993C22.4881 54.3086 23.1104 54.1321 23.7005 53.8744C23.9247 53.7205 23.4833 53.6785 22.7055 53.8324C22.0645 53.9417 21.4419 54.1396 20.8556 54.4203C20.6173 54.5673 21.0798 54.5673 21.8506 54.3993Z" fill="white"/>
<path opacity="0.9" d="M21.2271 56.5409C22.0259 56.3869 22.5934 56.037 22.5794 55.7221C22.5654 55.4071 21.9698 55.2462 21.178 55.4001C20.3862 55.5541 19.6785 55.967 19.6785 56.2679C19.6785 56.5689 20.4212 56.6669 21.2271 56.5409Z" fill="white"/>
<path opacity="0.9" d="M24.0087 60.3692C24.1595 60.345 24.3004 60.2789 24.4153 60.1784C24.5301 60.0779 24.6143 59.947 24.6582 59.801C24.7021 59.6549 24.7039 59.4994 24.6634 59.3524C24.6228 59.2053 24.5417 59.0726 24.4292 58.9695C24.1428 58.6827 23.7913 58.4692 23.4045 58.3474C23.0177 58.2255 22.6072 58.1988 22.2079 58.2697C21.4231 58.4306 21.1078 59.0255 21.6333 59.5854C21.945 59.8856 22.3204 60.112 22.7316 60.2476C23.1428 60.3833 23.5793 60.4249 24.0087 60.3692Z" fill="white"/>
<path opacity="0.9" d="M27.7085 68.3195C28.4092 68.1935 28.7316 67.1227 28.2901 65.961C27.8487 64.7992 26.8396 63.9944 26.0969 64.1413C25.3541 64.2883 25.1649 65.3031 25.6134 66.4508C26.0618 67.5986 26.9728 68.4524 27.7085 68.3195Z" fill="white"/>
<path opacity="0.9" d="M30.4274 79.1462C31.1701 79.0202 31.5485 77.7465 31.2262 76.2348C30.9039 74.7232 29.9929 73.6454 29.2572 73.7643C28.5214 73.8833 28.2201 75.164 28.5565 76.6827C28.8928 78.2014 29.6776 79.2722 30.4274 79.1462Z" fill="white"/>
<path opacity="0.9" d="M54.9245 0.559873C55.1219 0.422236 55.2713 0.226517 55.352 0H53.6562C54.0487 0.545884 54.5321 0.790823 54.9245 0.559873Z" fill="white"/>
<path opacity="0.9" d="M56.1156 4.87795C55.5971 5.24188 55.3729 6.36164 55.5901 7.36942C55.8073 8.37721 56.3398 8.87409 56.8233 8.48917C57.1013 8.14837 57.2976 7.74861 57.3972 7.32043C57.4968 6.89225 57.497 6.44701 57.3979 6.01872C57.2157 5.05292 56.6271 4.53503 56.1156 4.87795Z" fill="white"/>
<path opacity="0.9" d="M57.1176 12.1984C56.6222 12.8067 56.2852 13.528 56.1367 14.2979C55.9615 14.9978 56.1367 15.2917 56.5921 14.8788C57.1207 14.2918 57.5046 13.5896 57.7133 12.8282C57.9095 12.1354 57.5661 11.7925 57.1176 12.1984Z" fill="white"/>
<path opacity="0.9" d="M54.532 19.8547C55.0751 19.3252 55.521 18.7046 55.8494 18.0211C56.1367 17.3983 56.0316 17.2233 55.6041 17.6292C55.0783 18.1681 54.6345 18.7812 54.2868 19.4488C54.0135 20.0507 54.0976 20.2746 54.532 19.8547Z" fill="white"/>
<path opacity="0.9" d="M53.1587 22.1852C52.5762 22.6531 52.0516 23.1888 51.5961 23.7808C51.2037 24.3127 51.3018 24.4107 51.8063 24.0818C52.4148 23.6679 52.942 23.146 53.3619 22.5421C53.7123 21.9822 53.6282 21.8282 53.1587 22.1852Z" fill="white"/>
<path opacity="0.9" d="M48.7722 27.6092C49.4309 27.2714 50.0203 26.8132 50.5099 26.2584C50.8953 25.7895 50.7762 25.6706 50.2367 25.9715C49.5957 26.338 49.0025 26.7823 48.4708 27.2943C48.0434 27.7352 48.1836 27.8821 48.7722 27.6092Z" fill="white"/>
<path opacity="0.9" d="M47.0974 29.4359C46.3889 29.7193 45.7383 30.1296 45.1775 30.6466C44.757 31.0875 44.9672 31.2974 45.6259 31.0805C46.3434 30.8192 46.9874 30.3896 47.5038 29.8278C47.8962 29.3729 47.707 29.1979 47.0974 29.4359Z" fill="white"/>
<path opacity="0.9" d="M42.7111 34.7756C43.4591 34.584 44.1281 34.163 44.624 33.5719C44.9814 33.068 44.7291 32.837 44.0354 33.026C43.2836 33.2332 42.6043 33.6451 42.0734 34.2158C41.6951 34.6637 41.9964 34.9716 42.7111 34.7756Z" fill="white"/>
<path opacity="0.9" d="M42.1785 37.6591C42.4588 37.0852 42.1155 36.7703 41.3797 36.9173C40.6127 37.0754 39.9399 37.531 39.5088 38.184C39.2285 38.7509 39.6349 39.1288 40.3707 38.9818C40.7469 38.8974 41.1016 38.7364 41.4127 38.5088C41.7238 38.2812 41.9845 37.9919 42.1785 37.6591Z" fill="white"/>
<path opacity="0.9" d="M40.4687 42.4458C40.6369 41.781 40.2024 41.3681 39.4807 41.515C39.1052 41.5898 38.7573 41.7655 38.4745 42.0233C38.1917 42.2811 37.9848 42.6111 37.876 42.9777C37.7569 43.5376 38.1984 43.8455 38.9061 43.6776C39.2482 43.6172 39.5699 43.4731 39.8426 43.2582C40.1153 43.0432 40.3304 42.7641 40.4687 42.4458Z" fill="white"/>
<path opacity="0.9" d="M38.906 46.1691C39.1582 45.7562 38.7868 45.5183 38.0931 45.6653C37.4273 45.8016 36.8286 46.1623 36.3974 46.687C36.1381 47.0859 36.4815 47.2609 37.1752 47.1279C37.8447 47.0147 38.4553 46.6765 38.906 46.1691Z" fill="white"/>
<path opacity="0.9" d="M34.821 49.5214C35.4918 49.4416 36.1336 49.2016 36.6919 48.8215C37.0072 48.5206 36.6919 48.3526 35.9912 48.4716C35.3274 48.5882 34.6965 48.846 34.1413 49.2275C33.7979 49.5144 34.1062 49.6264 34.821 49.5214Z" fill="white"/>
<path opacity="0.9" d="M34.2184 50.8161C34.5407 50.5922 34.2184 50.4382 33.4686 50.5152C32.7911 50.5829 32.13 50.7651 31.5136 51.054C31.1703 51.25 31.5136 51.341 32.2634 51.285C32.9405 51.2652 33.6061 51.1056 34.2184 50.8161Z" fill="white"/>
<path opacity="0.9" d="M30.9741 52.0689C30.2986 52.0683 29.6288 52.1917 28.998 52.4329C28.6967 52.6008 29.1172 52.7058 29.923 52.7198C30.5895 52.7633 31.2573 52.6582 31.878 52.4118C32.1583 52.2159 31.7589 52.0479 30.9741 52.0689Z" fill="white"/>
<path opacity="0.9" d="M27.0218 53.7135C26.8186 53.8885 27.3372 54.0774 28.192 54.1474C28.8286 54.2634 29.4854 54.1854 30.077 53.9235C30.2591 53.7205 29.7476 53.4896 28.9138 53.4476C28.2707 53.3734 27.6194 53.465 27.0218 53.7135Z" fill="white"/>
<path opacity="0.9" d="M27.6875 56.4709C28.5634 56.5898 29.1941 56.4219 29.173 56.0789C29.152 55.736 28.4723 55.3791 27.6175 55.2531C26.7626 55.1271 25.9918 55.3511 26.0058 55.6801C26.0198 56.009 26.8116 56.3449 27.6875 56.4709Z" fill="white"/>
<path opacity="0.9" d="M30.1893 60.3411C31.0371 60.481 31.2964 59.9772 30.89 59.4313C30.2826 58.7863 29.4846 58.3522 28.6127 58.1925C27.7438 58.0525 27.3233 58.3815 27.7858 58.8924C28.4365 59.5891 29.2688 60.0908 30.1893 60.3411Z" fill="white"/>
<path opacity="0.9" d="M33.6928 68.3684C34.5056 68.5014 34.856 67.6686 34.4355 66.4999C34.0151 65.3311 32.971 64.3303 32.1442 64.1903C31.3174 64.0504 31.0371 64.8412 31.4435 66.003C31.8499 67.1647 32.8729 68.2355 33.6928 68.3684Z" fill="white"/>
<path opacity="0.9" d="M36.4396 79.0202C37.2525 79.1042 37.6659 77.9984 37.3365 76.5497C37.0072 75.101 36.0402 73.8623 35.2344 73.7503C34.4286 73.6383 34.0712 74.7371 34.4005 76.1998C34.7299 77.6625 35.6198 78.9362 36.4396 79.0202Z" fill="white"/>
<path opacity="0.9" d="M60.1799 5.19293C60.6588 4.44732 60.8712 3.56185 60.7825 2.68044C60.6985 1.74264 60.243 1.32974 59.7945 1.77064C59.2891 2.51975 59.0932 3.43509 59.248 4.32512C59.3811 5.28391 59.7805 5.66183 60.1799 5.19293Z" fill="white"/>
<path opacity="0.9" d="M59.4932 11.4005C59.9182 10.706 60.2592 9.96364 60.5093 9.18896C60.7405 8.48911 60.5093 8.22317 60.1799 8.71307C59.7769 9.42932 59.4728 10.1968 59.276 10.9946C59.0588 11.7154 59.1569 11.8764 59.4932 11.4005Z" fill="white"/>
<path opacity="0.9" d="M58.5051 14.186C58.0782 14.8332 57.71 15.5171 57.4049 16.2296C57.1387 16.8734 57.2087 17.0204 57.5661 16.5515C58.0126 15.9186 58.3775 15.232 58.6522 14.508C58.9185 13.8431 58.8414 13.6961 58.5051 14.186Z" fill="white"/>
<path opacity="0.9" d="M56.452 19.1131C55.9618 19.6856 55.5321 20.3071 55.1696 20.9677C54.8613 21.5695 54.9524 21.6675 55.3869 21.2266C55.9165 20.7201 56.3508 20.1227 56.6692 19.463C56.9355 18.8331 56.8163 18.6792 56.452 19.1131Z" fill="white"/>
<path opacity="0.9" d="M54.1536 23.3682C53.5899 23.8236 53.0882 24.3506 52.6611 24.9358C52.3248 25.4397 52.4789 25.5797 52.9974 25.2438C53.5938 24.8236 54.0972 24.2852 54.476 23.6621C54.7703 23.1302 54.6301 23.0042 54.1536 23.3682Z" fill="white"/>
<path opacity="0.9" d="M50.0054 28.7639C49.655 29.2677 49.8793 29.4637 50.4889 29.1978C51.1602 28.868 51.7293 28.3624 52.1356 27.7351C52.4439 27.2032 52.2407 27.0352 51.6731 27.3292C51.0265 27.6909 50.4594 28.1788 50.0054 28.7639Z" fill="white"/>
<path opacity="0.9" d="M49.1785 31.3325C48.4644 31.6178 47.8486 32.104 47.4057 32.7322C47.0834 33.257 47.4057 33.53 48.0644 33.313C48.7875 33.0566 49.4025 32.5633 49.8092 31.9133C50.1035 31.3325 49.8092 31.0875 49.1785 31.3325Z" fill="white"/>
<path opacity="0.9" d="M47.6581 36.2943C47.9174 35.6924 47.581 35.3844 46.8803 35.5944C46.1313 35.8162 45.4965 36.3174 45.1075 36.9941C44.8342 37.582 45.2126 37.9319 45.9203 37.7499C46.2928 37.6359 46.6386 37.4483 46.9372 37.1983C47.2357 36.9482 47.4808 36.6408 47.6581 36.2943Z" fill="white"/>
<path opacity="0.9" d="M44.2735 42.46C44.6217 42.3746 44.946 42.2112 45.2216 41.982C45.4972 41.7528 45.7169 41.4639 45.8641 41.1373C46.0673 40.4794 45.6819 40.0945 44.9742 40.2695C44.6024 40.376 44.261 40.5683 43.9773 40.8309C43.6937 41.0935 43.4759 41.419 43.3415 41.7811C43.1803 42.341 43.5797 42.67 44.2735 42.46Z" fill="white"/>
<path opacity="0.9" d="M42.4796 46.0921C43.1535 45.9824 43.7573 45.613 44.1613 45.0633C44.4136 44.6154 44.0702 44.3635 43.3905 44.4964C42.7207 44.6431 42.1247 45.0226 41.7088 45.5672C41.4566 45.9941 41.7929 46.2181 42.4796 46.0921Z" fill="white"/>
<path opacity="0.9" d="M42.1013 48.1987C42.3816 47.8278 42.1013 47.5968 41.4006 47.6808C40.7363 47.7549 40.1092 48.0254 39.5998 48.4577C39.3055 48.7936 39.6418 48.9896 40.3635 48.9406C41.0134 48.9107 41.6306 48.6472 42.1013 48.1987Z" fill="white"/>
<path opacity="0.9" d="M39.9572 50.7743C40.2304 50.4664 39.9011 50.2144 39.1584 50.2214C38.4957 50.2039 37.8426 50.3817 37.2804 50.7323C36.9861 50.9983 37.3715 51.2222 38.1423 51.2642C38.7878 51.3391 39.4374 51.1637 39.9572 50.7743Z" fill="white"/>
<path opacity="0.9" d="M38.0442 53.0416C38.2684 52.7547 37.883 52.4608 37.0772 52.3418C36.4253 52.2233 35.7525 52.3242 35.1642 52.6287C34.919 52.8667 35.4025 53.1536 36.2293 53.3286C36.5345 53.4156 36.855 53.4351 37.1685 53.3855C37.482 53.3359 37.7808 53.2186 38.0442 53.0416Z" fill="white"/>
<path opacity="0.9" d="M36.6428 55.2672C36.776 54.9732 36.2995 54.5673 35.4376 54.3994C34.5757 54.2314 33.7349 54.2734 33.5737 54.5253C33.4125 54.7773 34.0011 55.1622 34.884 55.4071C35.7669 55.6521 36.4957 55.5471 36.6428 55.2672Z" fill="white"/>
<path opacity="0.9" d="M34.6036 58.2416C35.5285 58.5635 36.0611 58.4446 36.005 58.0316C35.949 57.6187 35.3603 57.0798 34.4564 56.7929C33.5525 56.506 32.7747 56.5829 32.8027 56.9609C32.8308 57.3388 33.6926 57.9127 34.6036 58.2416Z" fill="white"/>
<path opacity="0.9" d="M37.6307 61.8388C37.0691 61.0992 36.3189 60.5239 35.4585 60.1732C34.5405 59.8093 34.057 59.9632 34.4704 60.5301C35.143 61.3235 35.9765 61.9652 36.9159 62.4127C37.8129 62.7976 38.0301 62.4267 37.6307 61.8388Z" fill="white"/>
<path opacity="0.9" d="M40.1394 70.181C41.0013 70.5099 41.2816 69.8031 40.8822 68.7043C40.4916 67.6131 39.7068 66.707 38.6819 66.1638C37.806 65.8069 37.4557 66.3878 37.8621 67.5145C38.2689 68.6518 39.0792 69.6005 40.1394 70.181Z" fill="white"/>
<path opacity="0.9" d="M43.7269 78.2295C43.3836 76.8718 42.5007 75.5981 41.6248 75.3111C40.7489 75.0242 40.3705 75.913 40.7138 77.3127C40.9437 78.35 41.4925 79.2897 42.2834 80.0001H43.6849C43.9045 79.4327 43.9193 78.8066 43.7269 78.2295Z" fill="white"/>
<path opacity="0.9" d="M62.3589 0.776845C62.3589 1.67265 62.6532 1.98759 62.9896 1.4767C63.2567 1.01264 63.4417 0.505947 63.5361 -0.0209961H62.422C62.3792 0.242785 62.3581 0.509628 62.3589 0.776845Z" fill="white"/>
<path opacity="0.9" d="M62.6253 4.81491C62.2794 5.55691 61.9844 6.32152 61.7424 7.10344C61.4971 7.80329 61.5251 7.98527 61.7914 7.46738C62.0577 6.94949 62.4921 5.94168 62.7234 5.21384C62.9546 4.48599 62.9055 4.29702 62.6253 4.81491Z" fill="white"/>
<path opacity="0.9" d="M60.8454 10.3507C60.4862 11.0479 60.1794 11.7707 59.9275 12.5132C59.7033 13.2131 59.7733 13.3601 60.0747 12.8772C60.451 12.1917 60.7495 11.4664 60.9646 10.7147C61.1608 10.0078 61.1257 9.83984 60.8454 10.3507Z" fill="white"/>
<path opacity="0.9" d="M58.5121 18.0351C58.9989 17.4881 59.3537 16.8369 59.5492 16.1315C59.7243 15.4317 59.5982 15.2287 59.2549 15.6766C58.8213 16.305 58.4771 16.9904 58.2318 17.7132C58.0076 18.378 58.1267 18.462 58.5121 18.0351Z" fill="white"/>
<path opacity="0.9" d="M57.6573 20.4497C57.1357 20.9445 56.7125 21.5334 56.41 22.1853C56.1648 22.7522 56.361 22.9272 56.8515 22.5702C57.4126 22.1155 57.841 21.5184 58.0918 20.8416C58.288 20.2747 58.0988 20.0647 57.6573 20.4497Z" fill="white"/>
<path opacity="0.9" d="M55.0505 27.0423C55.7009 26.6864 56.212 26.1218 56.501 25.4397C56.7182 24.8448 56.452 24.6208 55.9124 24.9358C55.2968 25.336 54.7948 25.888 54.4549 26.5384C54.1957 27.1053 54.4619 27.3293 55.0505 27.0423Z" fill="white"/>
<path opacity="0.9" d="M53.1866 31.5704C53.9018 31.2938 54.4802 30.7487 54.7982 30.0517C55.0294 29.4498 54.7001 29.1699 54.0975 29.4219C53.4023 29.731 52.8302 30.263 52.4718 30.9335C52.1775 31.5144 52.5139 31.8014 53.1866 31.5704Z" fill="white"/>
<path opacity="0.9" d="M53.0254 34.7757C53.2567 34.1458 52.8923 33.8169 52.1916 34.0269C51.4484 34.2766 50.8323 34.8065 50.4748 35.5035C50.2296 36.1194 50.608 36.4623 51.3227 36.2664C51.6947 36.1498 52.0383 35.9571 52.3315 35.7004C52.6247 35.4437 52.861 35.1288 53.0254 34.7757Z" fill="white"/>
<path opacity="0.9" d="M50.3627 38.8556C49.9847 38.9727 49.6367 39.1704 49.3427 39.435C49.0487 39.6996 48.8157 40.0249 48.66 40.3883C48.4568 40.9691 48.8211 41.2771 49.5219 41.0881C49.8864 40.9853 50.2254 40.8077 50.5174 40.5667C50.8093 40.3257 51.0478 40.0266 51.2176 39.6884C51.4628 39.0515 51.0704 38.6666 50.3627 38.8556Z" fill="white"/>
<path opacity="0.9" d="M47.5739 45.1125C47.9169 45.0459 48.2432 44.9112 48.5332 44.7165C48.8233 44.5217 49.0713 44.2709 49.2626 43.9787C49.5289 43.4609 49.1925 43.1529 48.5128 43.2789C47.8244 43.4544 47.2239 43.875 46.8241 44.4616C46.5648 44.9725 46.9012 45.2385 47.5739 45.1125Z" fill="white"/>
<path opacity="0.9" d="M47.2305 47.6669C47.4968 47.219 47.1604 46.904 46.4878 46.967C45.8255 47.0509 45.2172 47.3747 44.778 47.8768C44.5118 48.2827 44.8481 48.5766 45.5278 48.5206C45.856 48.5073 46.1777 48.4243 46.4713 48.277C46.7649 48.1298 47.0237 47.9218 47.2305 47.6669Z" fill="white"/>
<path opacity="0.9" d="M43.6078 51.5649C43.9221 51.6092 44.2424 51.5755 44.5406 51.4669C44.8388 51.3583 45.1056 51.178 45.3175 50.9421C45.5488 50.5362 45.1844 50.1862 44.4837 50.1792C44.168 50.1632 43.8525 50.2128 43.557 50.3248C43.2615 50.4368 42.9924 50.6089 42.7669 50.8301C42.5147 51.187 42.9001 51.509 43.6078 51.5649Z" fill="white"/>
<path opacity="0.9" d="M42.718 53.0768C42.4199 53.0022 42.1079 53.0021 41.8097 53.0765C41.5115 53.151 41.2362 53.2977 41.0083 53.5037C40.8121 53.8396 41.2745 54.2035 42.0243 54.3995C42.7741 54.5954 43.5238 54.3995 43.706 54.0006C43.8882 53.6016 43.4538 53.1677 42.718 53.0768Z" fill="white"/>
<path opacity="0.9" d="M42.5847 57.0238C42.6899 56.6249 42.1643 56.114 41.3935 55.8901C40.6227 55.6661 39.88 55.7781 39.7609 56.128C39.6417 56.4779 40.1813 56.9888 40.9661 57.2618C41.7509 57.5347 42.4796 57.4227 42.5847 57.0238Z" fill="white"/>
<path opacity="0.9" d="M40.8119 60.7892C41.6178 61.1601 42.2134 61.0412 42.1363 60.5373C42.0272 60.188 41.8361 59.8698 41.5789 59.6093C41.3217 59.3488 41.0059 59.1535 40.6578 59.0396C39.859 58.7107 39.1933 58.8156 39.2563 59.2775C39.3194 59.7394 39.9991 60.4183 40.8119 60.7892Z" fill="white"/>
<path opacity="0.9" d="M42.8512 65.3872C43.615 65.8141 43.8883 65.5621 43.5519 64.9113C43.0732 64.1178 42.3942 63.4638 41.5829 63.0147C40.7911 62.6018 40.3777 62.7487 40.7491 63.3646C41.2989 64.1795 42.0154 64.8688 42.8512 65.3872Z" fill="white"/>
<path opacity="0.9" d="M45.9273 72.7636C46.6701 73.1345 46.9644 72.5536 46.572 71.5248C46.1583 70.4855 45.4372 69.5969 44.5049 68.9774C43.7551 68.5715 43.4818 69.0544 43.8742 70.1181C44.2652 71.1924 44.9831 72.1176 45.9273 72.7636Z" fill="white"/>
<path opacity="0.9" d="M47.4618 77.5434C46.712 77.2145 46.4037 77.9913 46.7611 79.3C46.8268 79.5377 46.9064 79.7714 46.9993 79.9999H49.3608C49.0325 78.9857 48.3611 78.1173 47.4618 77.5434Z" fill="white"/>
<path opacity="0.9" d="M64.6224 0.846926C64.3772 1.35782 63.9918 2.36562 63.7185 3.09346C63.4452 3.82131 63.4382 3.98226 63.6625 3.47137C63.8867 2.96048 64.2581 1.95968 64.5454 1.23184C64.8326 0.503991 64.8607 0.343033 64.6224 0.846926Z" fill="white"/>
<path opacity="0.9" d="M62.8006 6.45278C62.4806 7.173 62.225 7.92009 62.0368 8.6853C61.8616 9.38515 61.9597 9.62309 62.219 9.14719C62.5467 8.43826 62.7822 7.69034 62.9197 6.92166C63.0739 6.16583 63.0318 5.95588 62.8006 6.45278Z" fill="white"/>
<path opacity="0.9" d="M61.7214 12.2055C61.3295 12.8672 61.0634 13.5956 60.9367 14.354C60.8245 15.0959 60.9787 15.2149 61.3361 14.8019C61.7832 14.2271 62.06 13.5385 62.1349 12.8144C62.2189 12.0306 62.0438 11.7576 61.7214 12.2055Z" fill="white"/>
<path opacity="0.9" d="M60.9009 17.4754C60.4161 17.9929 60.0735 18.627 59.9065 19.316C59.7665 19.9599 60.0186 20.1908 60.4808 19.8479C61.0123 19.3712 61.3634 18.7262 61.4752 18.0213C61.5662 17.3704 61.3141 17.1185 60.9009 17.4754Z" fill="white"/>
<path opacity="0.9" d="M58.7364 24.2288C58.5753 24.8587 58.8976 25.1456 59.4372 24.8727C59.7479 24.6924 60.0176 24.4492 60.2287 24.1588C60.4399 23.8683 60.588 23.537 60.6634 23.186C60.7755 22.5211 60.4532 22.2202 59.9627 22.5212C59.3719 22.935 58.9394 23.5372 58.7364 24.2288Z" fill="white"/>
<path opacity="0.9" d="M57.3911 29.0859C57.2089 29.7227 57.5733 30.0586 58.2179 29.8417C58.5631 29.7089 58.8729 29.4984 59.1233 29.2265C59.3737 28.9546 59.5578 28.6286 59.6614 28.274C59.8156 27.6161 59.4372 27.2662 58.8346 27.5042C58.1627 27.8197 57.6435 28.3885 57.3911 29.0859Z" fill="white"/>
<path opacity="0.9" d="M58.3159 33.32C58.5191 32.6692 58.1267 32.2842 57.454 32.4732C57.0933 32.5944 56.7628 32.7914 56.4848 33.051C56.2068 33.3106 55.9877 33.6266 55.8424 33.9779C55.6251 34.6217 56.0105 34.9927 56.6972 34.8107C57.0628 34.7015 57.3986 34.5105 57.6791 34.2522C57.9596 33.9939 58.1774 33.6751 58.3159 33.32Z" fill="white"/>
<path opacity="0.9" d="M54.7982 39.7655C55.1725 39.6579 55.5209 39.4751 55.8221 39.2284C56.1233 38.9818 56.3709 38.6763 56.55 38.3309C56.8163 37.701 56.4519 37.2811 55.7582 37.449C55.3855 37.5664 55.0415 37.7602 54.7483 38.0181C54.4551 38.2761 54.2191 38.5923 54.0555 38.9467C53.8032 39.5626 54.1185 39.9195 54.7982 39.7655Z" fill="white"/>
<path opacity="0.9" d="M52.6821 44.2586C53.0352 44.1927 53.3693 44.0493 53.6602 43.8387C53.951 43.6281 54.1913 43.3556 54.3638 43.0409C54.6371 42.46 54.3288 42.0681 53.6631 42.201C53.3112 42.2844 52.98 42.4384 52.6896 42.6538C52.3993 42.8692 52.1559 43.1413 51.9744 43.4538C51.7011 44.0066 52.0234 44.3496 52.6821 44.2586Z" fill="white"/>
<path opacity="0.9" d="M52.3878 47.3659C52.626 46.8201 52.2897 46.4071 51.631 46.4561C51.2947 46.4897 50.9702 46.5983 50.6816 46.774C50.3929 46.9496 50.1474 47.1878 49.9633 47.4709C49.7181 47.9678 50.0684 48.3457 50.7411 48.3387C51.0769 48.3352 51.4059 48.2435 51.695 48.0727C51.984 47.9019 52.223 47.6582 52.3878 47.3659Z" fill="white"/>
<path opacity="0.9" d="M50.7062 51.4182C50.9024 50.9073 50.51 50.4314 49.8233 50.3894C49.5036 50.3552 49.1806 50.4088 48.8892 50.5445C48.5977 50.6802 48.3489 50.8927 48.1696 51.1593C47.9594 51.6212 48.3728 52.0621 49.0805 52.16C49.3954 52.2282 49.7238 52.1927 50.0168 52.059C50.3098 51.9253 50.5516 51.7005 50.7062 51.4182Z" fill="white"/>
<path opacity="0.9" d="M49.4239 55.3442C49.557 54.8333 49.0876 54.2874 48.3588 54.1264C47.6301 53.9655 46.8873 54.2104 46.7262 54.6653C46.565 55.1202 47.0625 55.6521 47.8193 55.862C48.576 56.072 49.2838 55.8481 49.4239 55.3442Z" fill="white"/>
<path opacity="0.9" d="M47.3497 57.8217C46.5719 57.5417 45.8572 57.6957 45.7661 58.1576C45.675 58.6195 46.2496 59.2703 47.0414 59.5993C47.8332 59.9282 48.5409 59.7742 48.611 59.2563C48.6811 58.7385 48.1205 58.0666 47.3497 57.8217Z" fill="white"/>
<path opacity="0.9" d="M47.0063 63.8965C47.8191 64.3304 48.4078 64.1834 48.3447 63.5815C48.2465 63.189 48.0597 62.8241 47.7985 62.5148C47.5374 62.2055 47.2089 61.9599 46.8381 61.7969C46.0323 61.412 45.3666 61.538 45.4367 62.0909C45.562 62.4824 45.7658 62.8444 46.0357 63.1548C46.3055 63.4652 46.6357 63.7176 47.0063 63.8965Z" fill="white"/>
<path opacity="0.9" d="M48.7651 68.9842C49.5429 69.4811 49.8652 69.3202 49.5779 68.5993C49.1641 67.7286 48.5164 66.9896 47.707 66.4648C46.9082 65.9889 46.4457 66.1289 46.761 66.8147C47.2514 67.6834 47.9375 68.4262 48.7651 68.9842Z" fill="white"/>
<path opacity="0.9" d="M51.6941 75.8497C52.4509 76.2836 52.7522 75.8497 52.3948 74.863C51.9536 73.8458 51.241 72.9694 50.3347 72.3295C49.571 71.8606 49.2696 72.2385 49.634 73.2253C50.0578 74.2774 50.7723 75.1876 51.6941 75.8497Z" fill="white"/>
<path opacity="0.9" d="M64.5242 2.77848C64.2182 3.48795 64.0039 4.23344 63.8865 4.99699C63.7674 5.77383 63.8865 6.05379 64.1528 5.63388C64.4641 4.93347 64.656 4.18595 64.7204 3.42233C64.8185 2.65249 64.7554 2.35857 64.5242 2.77848Z" fill="white"/>
<path opacity="0.9" d="M63.9848 11.8204C64.4195 11.2473 64.6312 10.5361 64.5804 9.81884C64.5453 8.96502 64.3001 8.58009 64.0128 8.972C63.6413 9.64509 63.4461 10.401 63.4452 11.1695C63.4312 11.9884 63.6484 12.1773 63.9848 11.8204Z" fill="white"/>
<path opacity="0.9" d="M63.9217 17.4263C64.1792 17.1932 64.382 16.906 64.5152 16.5853C64.6485 16.2646 64.709 15.9185 64.6924 15.5717C64.6924 14.8299 64.3491 14.4659 63.9917 14.7878C63.5198 15.3072 63.2468 15.9765 63.2209 16.6774C63.1228 17.3843 63.4802 17.7132 63.9217 17.4263Z" fill="white"/>
<path opacity="0.9" d="M63.6903 22.9622C63.9962 22.7933 64.2515 22.546 64.4301 22.2459C64.6087 21.9458 64.704 21.6037 64.7064 21.2546C64.7064 20.5547 64.328 20.1138 63.8305 20.3658C63.5439 20.5632 63.3051 20.8221 63.1318 21.1237C62.9584 21.4252 62.8548 21.7617 62.8285 22.1084C62.7654 22.8082 63.1228 23.1862 63.6903 22.9622Z" fill="white"/>
<path opacity="0.9" d="M63.4312 25.8734C63.1047 26.0137 62.8184 26.233 62.5982 26.5116C62.3779 26.7902 62.2308 27.1193 62.1699 27.4691C62.0578 28.1689 62.4642 28.5678 63.0879 28.4069C63.4266 28.293 63.7265 28.0863 63.9533 27.8103C64.18 27.5343 64.3245 27.2003 64.3702 26.8462C64.4473 26.1114 64.0198 25.6635 63.4312 25.8734Z" fill="white"/>
<path opacity="0.9" d="M61.9245 33.635C62.2847 33.5508 62.6163 33.3731 62.8857 33.12C63.1552 32.8668 63.3529 32.5472 63.4591 32.1933C63.6273 31.4934 63.2069 31.0455 62.5552 31.1855C62.2014 31.2886 61.8789 31.4783 61.617 31.7374C61.3552 31.9965 61.1622 32.3168 61.0557 32.6692C60.8665 33.334 61.2519 33.761 61.9245 33.635Z" fill="white"/>
<path opacity="0.9" d="M61.7215 37.295C62.0158 36.6722 61.6724 36.2033 61.0208 36.3222C60.6524 36.4184 60.3093 36.5934 60.0153 36.835C59.7213 37.0767 59.4834 37.3794 59.318 37.7219C59.0167 38.3798 59.283 38.8137 59.9417 38.7018C60.3202 38.6042 60.674 38.4286 60.9805 38.1864C61.287 37.9441 61.5394 37.6405 61.7215 37.295Z" fill="white"/>
<path opacity="0.9" d="M59.3459 42.432C59.6262 41.7741 59.3459 41.2912 58.6942 41.3752C58.3338 41.449 57.9949 41.6039 57.7035 41.8283C57.412 42.0527 57.1757 42.3405 57.0125 42.6699C56.7322 43.2928 57.0476 43.7407 57.7133 43.6917C58.0682 43.6322 58.4029 43.486 58.6877 43.2663C58.9725 43.0465 59.1986 42.7599 59.3459 42.432Z" fill="white"/>
<path opacity="0.9" d="M57.454 47.38C57.518 47.2535 57.547 47.1122 57.5382 46.9707C57.5293 46.8293 57.4829 46.6928 57.4037 46.5752C57.3245 46.4576 57.2153 46.3631 57.0875 46.3017C56.9596 46.2402 56.8177 46.2138 56.6762 46.2253C56.3343 46.2465 56.0046 46.3607 55.723 46.5556C55.4414 46.7505 55.2186 47.0187 55.0786 47.331C55.0216 47.4584 54.999 47.5986 55.0131 47.7374C55.0273 47.8762 55.0776 48.0089 55.1592 48.1223C55.2407 48.2356 55.3506 48.3256 55.4779 48.3832C55.6051 48.4409 55.7453 48.4642 55.8844 48.4508C56.2248 48.4562 56.5584 48.3562 56.8395 48.1644C57.1206 47.9727 57.3353 47.6986 57.454 47.38Z" fill="white"/>
<path opacity="0.9" d="M56.0456 52.209C56.0816 52.0604 56.0848 51.9057 56.0551 51.7557C56.0254 51.6057 55.9634 51.4639 55.8734 51.3401C55.7835 51.2164 55.6677 51.1136 55.5341 51.0388C55.4006 50.9641 55.2523 50.9193 55.0997 50.9073C54.7782 50.86 54.4501 50.9219 54.168 51.0831C53.8859 51.2442 53.6662 51.4953 53.5441 51.7961C53.5138 51.9453 53.5157 52.0992 53.5497 52.2475C53.5837 52.3959 53.6489 52.5353 53.7411 52.6565C53.8332 52.7777 53.9502 52.8779 54.0842 52.9504C54.2182 53.0228 54.3661 53.0659 54.5181 53.0768C54.8355 53.1554 55.1711 53.1092 55.4554 52.9477C55.7397 52.7862 55.951 52.5217 56.0456 52.209Z" fill="white"/>
<path opacity="0.9" d="M55.1137 56.9889C55.1318 56.6464 55.0276 56.3087 54.8197 56.0357C54.6119 55.7627 54.3138 55.5723 53.9785 55.4982C53.8316 55.4392 53.6743 55.4106 53.516 55.4141C53.3578 55.4176 53.2019 55.4532 53.0578 55.5186C52.9136 55.584 52.7843 55.678 52.6776 55.7947C52.5709 55.9115 52.489 56.0488 52.4369 56.1981C52.3248 56.7649 52.8504 57.4228 53.6071 57.6747C54.3639 57.9267 55.0226 57.6048 55.1137 56.9889Z" fill="white"/>
<path opacity="0.9" d="M53.1447 62.2658C53.9365 62.6297 54.6092 62.4058 54.6372 61.7759C54.6009 61.3943 54.4563 61.031 54.2205 60.7285C53.9847 60.426 53.6674 60.197 53.3059 60.0683C52.5351 59.7603 51.8484 59.9773 51.7993 60.5512C51.8451 60.9326 51.9947 61.2941 52.2319 61.5964C52.4692 61.8988 52.7849 62.1303 53.1447 62.2658Z" fill="white"/>
<path opacity="0.9" d="M54.595 66.9128C54.5062 66.4855 54.3222 66.0836 54.0565 65.7371C53.7908 65.3906 53.4504 65.1083 53.0604 64.9113C52.2476 64.4914 51.5959 64.6733 51.659 65.3242C51.7719 65.7547 51.9727 66.1573 52.2488 66.5066C52.525 66.8559 52.8705 67.1443 53.2636 67.3538C54.0695 67.8157 54.6511 67.6127 54.595 66.9128Z" fill="white"/>
<path opacity="0.9" d="M54.7634 72.9454C55.5482 73.4703 55.9125 73.3583 55.6813 72.5745C55.3269 71.6294 54.6817 70.8209 53.8384 70.265C53.0326 69.7611 52.5421 69.9361 52.8014 70.6919C53.239 71.6066 53.9171 72.3855 54.7634 72.9454Z" fill="white"/>
<path opacity="0.9" d="M57.5172 79.3141C58.2739 79.7761 58.5822 79.3911 58.2179 78.5163C57.7625 77.5369 57.0598 76.6928 56.1788 76.0668C55.415 75.5699 55.0857 75.8569 55.4781 76.7667C55.9153 77.784 56.6199 78.6642 57.5172 79.3141Z" fill="white"/>
<path opacity="0.9" d="M66.0518 2.77841C66.3701 2.12418 66.5354 1.40625 66.5353 0.678858C66.5464 0.459713 66.5464 0.240141 66.5353 0.0209961H66.1148C65.8753 0.618056 65.7288 1.24822 65.6804 1.88959C65.6103 2.68742 65.8065 3.08635 66.0518 2.77841Z" fill="white"/>
<path opacity="0.9" d="M66.2339 6.31954C65.8659 6.9767 65.7302 7.73848 65.8485 8.4821C65.9396 9.37091 66.2269 9.67181 66.5492 9.40587C66.7672 9.13996 66.9194 8.82658 66.9937 8.49103C67.0679 8.15548 67.0621 7.8072 66.9767 7.47431C66.8505 6.55051 66.5282 6.0256 66.2339 6.31954Z" fill="white"/>
<path opacity="0.9" d="M66.9486 12.6463C66.7138 12.8887 66.5395 13.1829 66.4396 13.5051C66.3398 13.8273 66.3173 14.1684 66.374 14.5009C66.4371 15.2778 66.8435 15.7327 67.285 15.5367C67.5427 15.3213 67.7341 15.0374 67.837 14.7178C67.94 14.3983 67.9502 14.0562 67.8666 13.7311C67.7475 12.9193 67.327 12.4154 66.9486 12.6463Z" fill="white"/>
<path opacity="0.9" d="M67.6144 18.756C67.3281 18.9317 67.099 19.1865 66.9547 19.4895C66.8104 19.7926 66.7572 20.131 66.8016 20.4636C66.8366 21.2335 67.285 21.7234 67.8176 21.5904C68.1246 21.4512 68.3751 21.2119 68.5279 20.9118C68.6807 20.6116 68.7267 20.2685 68.6584 19.9387C68.5744 19.1409 68.0979 18.595 67.6144 18.756Z" fill="white"/>
<path opacity="0.9" d="M67.9158 24.7257C67.5926 24.837 67.3126 25.0469 67.1153 25.3256C66.9179 25.6044 66.8131 25.938 66.8156 26.2794C66.7806 26.9792 67.2291 27.5251 67.8387 27.4481C68.1732 27.3717 68.4705 27.1808 68.6791 26.9086C68.8876 26.6364 68.9944 26.2999 68.9808 25.9574C68.9808 25.1736 68.4974 24.6207 67.9158 24.7257Z" fill="white"/>
<path opacity="0.9" d="M67.0118 32.963C67.3625 32.9191 67.691 32.7676 67.952 32.5295C68.2131 32.2913 68.3938 31.9782 68.4692 31.6333C68.5162 31.4893 68.5273 31.3361 68.5016 31.1868C68.4758 31.0376 68.414 30.8969 68.3215 30.7769C68.229 30.657 68.1086 30.5614 67.9707 30.4984C67.8328 30.4354 67.6816 30.407 67.5303 30.4156C67.1844 30.4847 66.8668 30.6545 66.6175 30.9036C66.3681 31.1527 66.1981 31.4699 66.1288 31.8153C65.9747 32.5081 66.3601 33.005 67.0118 32.963Z" fill="white"/>
<path opacity="0.9" d="M64.419 36.9522C64.0687 37.6521 64.2929 38.17 64.9305 38.135C65.3188 38.068 65.6864 37.9125 66.0048 37.6807C66.3232 37.4489 66.5838 37.1469 66.7664 36.7982C67.0888 36.1894 66.7664 35.6505 66.1148 35.6925C65.7526 35.7538 65.4101 35.9 65.1154 36.1189C64.8207 36.3379 64.582 36.6234 64.419 36.9522Z" fill="white"/>
<path opacity="0.9" d="M63.5992 40.9973C63.2323 41.0463 62.8849 41.1912 62.5921 41.4173C62.2992 41.6435 62.0714 41.9428 61.9315 42.2851C61.6512 42.9849 61.9315 43.5238 62.5832 43.5378C62.9439 43.4998 63.2867 43.3617 63.5728 43.139C63.8589 42.9164 64.0768 42.6181 64.2018 42.2781C64.4821 41.5642 64.2228 40.9833 63.5992 40.9973Z" fill="white"/>
<path opacity="0.9" d="M62.422 47.7718C62.4826 47.6282 62.5093 47.4727 62.5 47.3172C62.4907 47.1616 62.4457 47.0103 62.3685 46.875C62.2912 46.7397 62.1838 46.6239 62.0546 46.5367C61.9253 46.4495 61.7777 46.3931 61.6232 46.3721C61.2781 46.3749 60.9431 46.4888 60.6679 46.6968C60.3928 46.9048 60.192 47.1959 60.0956 47.5268C60.0362 47.673 60.0115 47.831 60.0234 47.9883C60.0354 48.1456 60.0836 48.298 60.1644 48.4336C60.2451 48.5692 60.3562 48.6843 60.489 48.7698C60.6217 48.8553 60.7725 48.909 60.9295 48.9265C61.275 48.9422 61.6148 48.8347 61.8882 48.6231C62.1617 48.4116 62.3509 48.1098 62.422 47.7718Z" fill="white"/>
<path opacity="0.9" d="M61.3079 53.2867C61.3624 52.9561 61.2913 52.6171 61.1086 52.3362C60.9258 52.0552 60.6445 51.8526 60.3199 51.7681C59.9932 51.7105 59.657 51.783 59.3832 51.9701C59.1095 52.1572 58.92 52.4439 58.8554 52.7689C58.812 53.1066 58.8934 53.4486 59.0843 53.7307C59.2752 54.0128 59.5625 54.2158 59.8924 54.3015C60.0533 54.3417 60.221 54.3464 60.3838 54.3153C60.5467 54.2842 60.7008 54.2181 60.8355 54.1216C60.9702 54.025 61.0822 53.9003 61.1638 53.7561C61.2454 53.612 61.2945 53.4518 61.3079 53.2867Z" fill="white"/>
<path opacity="0.9" d="M59.5421 57.1218C59.3961 57.064 59.2389 57.0402 59.0824 57.0524C58.9258 57.0646 58.7742 57.1124 58.6389 57.1921C58.5037 57.2717 58.3885 57.3812 58.3022 57.5122C58.2158 57.6431 58.1605 57.7921 58.1406 57.9476C58.1447 58.3264 58.2662 58.6945 58.4882 59.0015C58.7103 59.3086 59.0222 59.5394 59.3809 59.6623C59.5245 59.7388 59.6854 59.7774 59.8482 59.7742C60.011 59.771 60.1702 59.7262 60.3108 59.6441C60.4513 59.562 60.5684 59.4453 60.651 59.3051C60.7335 59.1649 60.7788 59.006 60.7823 58.8434C60.7871 58.4617 60.6693 58.0885 60.4461 57.7786C60.2228 57.4687 59.906 57.2385 59.5421 57.1218Z" fill="white"/>
<path opacity="0.9" d="M59.2269 65.1141C60.0187 65.4851 60.6283 65.1771 60.6283 64.4143C60.5848 64.0005 60.4322 63.6056 60.186 63.2699C59.9398 62.9342 59.6088 62.6699 59.2269 62.5037C58.4561 62.1818 57.8254 62.5037 57.8254 63.1616C57.8708 63.5801 58.0236 63.9797 58.2692 64.3219C58.5147 64.664 58.8446 64.9369 59.2269 65.1141Z" fill="white"/>
<path opacity="0.9" d="M59.5212 70.902C60.334 71.3569 60.9226 71.0769 60.8456 70.2931C60.7647 69.8384 60.5814 69.4081 60.3095 69.0347C60.0375 68.6612 59.6841 68.3545 59.2759 68.1376C58.4701 67.7177 57.8745 67.9696 57.8745 68.7115C57.977 69.1726 58.1769 69.6066 58.4609 69.9844C58.7449 70.3622 59.1064 70.675 59.5212 70.902Z" fill="white"/>
<path opacity="0.9" d="M60.7964 76.9626C61.5812 77.4735 61.9876 77.3755 61.8054 76.5357C61.5207 75.5534 60.8946 74.7047 60.0396 74.1422C59.2338 73.6523 58.7153 73.8903 58.9185 74.7021C59.2815 75.6396 59.9408 76.4332 60.7964 76.9626Z" fill="white"/>
<path opacity="0.9" d="M62.0507 79.8741C61.4551 79.4962 61.1188 79.5592 61.1678 80.0001H62.2259L62.0507 79.8741Z" fill="white"/>
<path opacity="0.9" d="M68.077 0.797798C68.279 0.578636 68.4001 0.297223 68.4203 0H67.5654C67.6285 0.601872 67.8457 0.944767 68.077 0.797798Z" fill="white"/>
<path opacity="0.9" d="M68.3012 6.61347C68.4903 7.57926 68.8617 8.01317 69.2191 7.8872C69.5765 7.76123 69.7446 7.11039 69.5204 6.1166C69.2962 5.12281 68.8757 4.42295 68.5604 4.57692C68.2451 4.73088 68.119 5.64767 68.3012 6.61347Z" fill="white"/>
<path opacity="0.9" d="M69.9828 11.3795C69.5764 11.4705 69.3942 12.2684 69.5624 13.1152C69.7306 13.962 70.2281 14.5639 70.6695 14.5149C71.111 14.4659 71.3142 13.7241 71.104 12.8422C70.8938 11.9604 70.3893 11.2816 69.9828 11.3795Z" fill="white"/>
<path opacity="0.9" d="M71.3913 17.9792C70.8937 17.9792 70.6134 18.7491 70.7396 19.5819C70.8657 20.4147 71.3913 21.0446 71.9308 21.0376C72.4704 21.0306 72.7857 20.3377 72.6315 19.5119C72.4774 18.6861 71.8888 17.9442 71.3913 17.9792Z" fill="white"/>
<path opacity="0.9" d="M71.3913 25.8314C71.3696 26.1704 71.4721 26.5057 71.6796 26.7749C71.8872 27.044 72.1857 27.2286 72.5194 27.2941C73.1291 27.3361 73.5986 26.7552 73.5355 25.9434C73.4724 25.1315 72.9329 24.4177 72.3513 24.3967C71.7697 24.3757 71.3633 25.0406 71.3913 25.8314Z" fill="white"/>
<path opacity="0.9" d="M71.9798 33.0329C72.3164 33.0535 72.6482 32.9457 72.9084 32.7314C73.1685 32.517 73.3375 32.2121 73.3812 31.8782C73.4159 31.7176 73.4181 31.5518 73.3877 31.3904C73.3573 31.2291 73.2949 31.0754 73.2041 30.9385C73.1134 30.8015 72.9961 30.6841 72.8593 30.5931C72.7224 30.502 72.5687 30.4393 72.4072 30.4084C72.074 30.4229 71.7569 30.5556 71.5129 30.7827C71.2689 31.0097 71.1139 31.3163 71.0759 31.6472C71.0334 31.7979 71.0236 31.9561 71.0473 32.1109C71.0709 32.2657 71.1274 32.4137 71.213 32.5449C71.2986 32.6761 71.4113 32.7876 71.5436 32.8717C71.6758 32.9559 71.8246 33.0108 71.9798 33.0329Z" fill="white"/>
<path opacity="0.9" d="M69.7727 38.2398C70.1585 38.2242 70.5334 38.1081 70.8604 37.9031C71.1873 37.6981 71.4549 37.4113 71.6366 37.0711C71.7253 36.9567 71.7815 36.8206 71.7993 36.6771C71.8171 36.5336 71.7958 36.3879 71.7378 36.2554C71.6797 36.1229 71.5869 36.0085 71.4692 35.9242C71.3516 35.8399 71.2133 35.7888 71.069 35.7764C70.7167 35.7848 70.3729 35.8873 70.0735 36.0731C69.7741 36.2589 69.53 36.5213 69.3663 36.8331C68.9669 37.554 69.1491 38.1768 69.7727 38.2398Z" fill="white"/>
<path opacity="0.9" d="M67.3271 43.9156C67.6828 43.916 68.0289 43.8007 68.3133 43.5874C68.5977 43.374 68.8049 43.0742 68.9037 42.7329C69.184 41.9841 68.9528 41.2982 68.3431 41.2212C67.9777 41.2314 67.6243 41.3538 67.3309 41.5716C67.0375 41.7895 66.8185 42.0923 66.7035 42.4389C66.4302 43.1738 66.7245 43.8317 67.3271 43.9156Z" fill="white"/>
<path opacity="0.9" d="M64.9938 48.1568C64.9454 48.3185 64.9296 48.4882 64.9471 48.6561C64.9647 48.824 65.0153 48.9867 65.096 49.135C65.1767 49.2833 65.2861 49.4142 65.4176 49.5202C65.5492 49.6261 65.7004 49.705 65.8627 49.7524C66.0306 49.7717 66.2008 49.7572 66.363 49.7095C66.5252 49.6619 66.6761 49.5821 66.8068 49.4751C66.9376 49.368 67.0454 49.2358 67.124 49.0863C67.2025 48.9367 67.2502 48.7729 67.2641 48.6046C67.3708 48.2835 67.346 47.9333 67.195 47.6303C67.044 47.3274 66.7792 47.0965 66.4583 46.988C66.1127 46.9678 65.772 47.076 65.5016 47.2918C65.2312 47.5076 65.0503 47.8157 64.9938 48.1568Z" fill="white"/>
<path opacity="0.9" d="M64.0478 53.9725C64.0139 54.3452 64.104 54.7186 64.3041 55.0349C64.5043 55.3512 64.8033 55.5928 65.1549 55.7221C65.8556 55.9181 66.4092 55.4422 66.4652 54.6513C66.5085 54.2819 66.4273 53.9087 66.2344 53.5905C66.0415 53.2724 65.7479 53.0276 65.4001 52.8947C65.2383 52.8606 65.071 52.8627 64.9101 52.9008C64.7492 52.9389 64.5987 53.0121 64.4695 53.1151C64.3402 53.2181 64.2354 53.3484 64.1625 53.4966C64.0896 53.6448 64.0504 53.8074 64.0478 53.9725Z" fill="white"/>
<path opacity="0.9" d="M65.0217 61.7757C65.1709 61.8487 65.3373 61.8792 65.5026 61.8639C65.668 61.8486 65.826 61.7882 65.9592 61.6891C66.0924 61.59 66.1957 61.4562 66.2578 61.3024C66.3198 61.1485 66.3383 60.9806 66.311 60.8169C66.3047 60.4088 66.1793 60.0114 65.9503 59.6733C65.7213 59.3352 65.3986 59.0711 65.0217 58.9134C64.8706 58.8502 64.7056 58.827 64.5429 58.8461C64.3802 58.8651 64.2251 58.9258 64.0927 59.0222C63.9602 59.1185 63.8549 59.2474 63.7869 59.3963C63.7189 59.5452 63.6905 59.7091 63.7044 59.8721C63.72 60.2817 63.8523 60.6783 64.0856 61.0155C64.3189 61.3526 64.6437 61.6163 65.0217 61.7757Z" fill="white"/>
<path opacity="0.9" d="M65.2601 67.9065C66.0378 68.2634 66.6615 67.9065 66.5774 67.0527C66.5265 66.617 66.3662 66.2012 66.1114 65.844C65.8566 65.4867 65.5155 65.1995 65.1199 65.0091C64.3561 64.6941 63.7605 65.0651 63.7885 65.8419C63.8437 66.2808 64.007 66.6991 64.2638 67.0594C64.5206 67.4197 64.8629 67.7108 65.2601 67.9065Z" fill="white"/>
<path opacity="0.9" d="M65.7505 74.2683C66.5564 74.6812 67.152 74.3103 67.0399 73.4635C66.9625 72.9976 66.7796 72.5556 66.5051 72.1712C66.2307 71.7867 65.8719 71.4699 65.4562 71.245C64.6574 70.86 64.0548 71.1959 64.1319 72.0148C64.2184 72.4865 64.4084 72.9332 64.6882 73.3228C64.9681 73.7124 65.3309 74.0354 65.7505 74.2683Z" fill="white"/>
<path opacity="0.9" d="M66.213 77.7185C65.4142 77.2846 64.8747 77.5995 65.0358 78.4603C65.1822 79.0547 65.5045 79.5913 65.9608 80H67.8807C67.6493 79.0489 67.0495 78.2284 66.213 77.7185Z" fill="white"/>
<path opacity="0.9" d="M70.5849 -0.0209961H70.179C70.2344 0.0365885 70.3092 0.0715221 70.3889 0.0769933C70.427 0.0775561 70.4647 0.0689278 70.4988 0.0518766C70.5329 0.0348254 70.5624 0.00984037 70.5849 -0.0209961Z" fill="white"/>
<path opacity="0.9" d="M72.0849 7.57929C72.4773 7.63528 72.6244 7.1104 72.3161 6.05362C72.0078 4.99685 71.4963 4.10803 71.1389 4.08004C70.7816 4.05204 70.6835 4.87789 70.9567 5.89968C71.23 6.92146 71.6925 7.5303 72.0849 7.57929Z" fill="white"/>
<path opacity="0.9" d="M74.1941 14.6129C74.6636 14.7179 74.8178 14.0881 74.5234 13.1573C74.2291 12.2265 73.6195 11.3726 73.1921 11.2886C72.7646 11.2047 72.6245 11.9255 72.8838 12.8283C73.143 13.7311 73.7246 14.515 74.1941 14.6129Z" fill="white"/>
<path opacity="0.9" d="M75.2592 18.3291C74.7477 18.1962 74.5585 18.854 74.7337 19.7288C74.802 20.1199 74.9603 20.4897 75.1963 20.8091C75.4322 21.1285 75.7392 21.3888 76.0931 21.5695C76.6396 21.7234 76.9059 21.1566 76.6607 20.2468C76.4154 19.337 75.7778 18.4551 75.2592 18.3291Z" fill="white"/>
<path opacity="0.9" d="M75.946 26.3703C75.9716 26.752 76.0988 27.1199 76.3143 27.4361C76.5299 27.7523 76.8261 28.0053 77.1723 28.1689C77.7819 28.3649 78.2164 27.8889 78.1042 27.0421C78.0595 26.6416 77.9173 26.2582 77.6901 25.9252C77.463 25.5921 77.1577 25.3197 76.8009 25.1315C76.2193 24.9566 75.8549 25.5375 75.946 26.3703Z" fill="white"/>
<path opacity="0.9" d="M77.2073 31.4024C76.5907 31.1925 76.0441 31.6823 75.939 32.4172C75.8743 32.7545 75.9282 33.1038 76.0916 33.4061C76.2551 33.7083 76.518 33.9449 76.8359 34.0758C76.9877 34.1331 77.1507 34.154 77.312 34.1369C77.4732 34.1197 77.6283 34.0651 77.7645 33.9773C77.9008 33.8895 78.0146 33.771 78.0967 33.6313C78.1788 33.4916 78.227 33.3347 78.2374 33.173C78.2804 32.8063 78.2033 32.4356 78.0176 32.1164C77.8319 31.7972 77.5476 31.5467 77.2073 31.4024Z" fill="white"/>
<path opacity="0.9" d="M74.4463 39.2268C74.8153 39.2839 75.1928 39.229 75.5302 39.0693C75.8675 38.9095 76.149 38.6523 76.3383 38.331C76.4322 38.208 76.4955 38.0646 76.5233 37.9125C76.551 37.7604 76.5424 37.6038 76.4979 37.4557C76.4535 37.3076 76.3746 37.1721 76.2677 37.0603C76.1608 36.9484 76.0289 36.8635 75.8828 36.8123C75.5466 36.7419 75.1966 36.7807 74.884 36.923C74.5714 37.0652 74.3125 37.3035 74.145 37.6031C73.6966 38.31 73.8507 39.0308 74.4463 39.2268Z" fill="white"/>
<path opacity="0.9" d="M72.9329 42.208C72.5826 42.1597 72.2266 42.2403 71.9314 42.4347C71.6362 42.6291 71.4218 42.9241 71.3282 43.2647C71.2527 43.4144 71.2082 43.5778 71.1974 43.745C71.1866 43.9123 71.2097 44.08 71.2653 44.2381C71.3209 44.3963 71.4079 44.5415 71.5211 44.6653C71.6342 44.789 71.7712 44.8888 71.9238 44.9584C72.2615 45.0115 72.6067 44.9348 72.8901 44.744C73.1736 44.5531 73.3741 44.2621 73.4514 43.9296C73.7457 43.1738 73.5355 42.39 72.9329 42.208Z" fill="white"/>
<path opacity="0.9" d="M71.1249 48.1357C70.5293 47.9467 69.8986 48.4506 69.7655 49.2485C69.6858 49.6037 69.7308 49.9755 69.8928 50.3016C70.0548 50.6278 70.324 50.8885 70.6554 51.0401C71.272 51.236 71.8326 50.7461 71.9588 49.9413C72.0436 49.5905 72.0074 49.2214 71.8561 48.8937C71.7048 48.566 71.4471 48.2989 71.1249 48.1357Z" fill="white"/>
<path opacity="0.9" d="M70.3052 57.3667C70.9639 57.5906 71.4824 57.1007 71.4894 56.2609C71.5094 55.8688 71.4147 55.4794 71.2169 55.1401C71.0191 54.8008 70.7266 54.5264 70.3753 54.3503C69.7376 54.1404 69.1701 54.6373 69.142 55.4631C69.1259 55.8597 69.2278 56.2521 69.4348 56.5909C69.6418 56.9297 69.9447 57.1997 70.3052 57.3667Z" fill="white"/>
<path opacity="0.9" d="M70.3962 60.8031C69.6955 60.5581 69.1629 61.034 69.205 61.8739C69.2366 62.3034 69.3835 62.7166 69.63 63.07C69.8766 63.4234 70.2139 63.704 70.6064 63.8824C71.3071 64.1554 71.8327 63.6725 71.7696 62.8117C71.7356 62.3864 71.591 61.9774 71.3501 61.6251C71.1092 61.2728 70.7804 60.9894 70.3962 60.8031Z" fill="white"/>
<path opacity="0.9" d="M71.202 70.4749C71.9657 70.7828 72.5053 70.321 72.4072 69.4531C72.3467 69.006 72.177 68.5807 71.913 68.2145C71.6491 67.8484 71.299 67.5527 70.8936 67.3536C70.1509 67.0667 69.5973 67.5076 69.6744 68.3544C69.7372 68.8052 69.9092 69.234 70.1753 69.6035C70.4415 69.973 70.7939 70.2721 71.202 70.4749Z" fill="white"/>
<path opacity="0.9" d="M71.8958 77.1797C72.6946 77.5226 73.2482 77.0607 73.1501 76.1789C73.0773 75.7167 72.8942 75.2789 72.6161 74.9025C72.3379 74.526 71.9731 74.2221 71.5524 74.0163C70.7676 73.6874 70.1931 74.1073 70.2842 74.9751C70.3582 75.444 70.543 75.8885 70.8232 76.2719C71.1035 76.6553 71.4712 76.9665 71.8958 77.1797Z" fill="white"/>
<path opacity="0.9" d="M73.164 1.02176C73.5284 1.24571 73.7316 0.79783 73.7176 0H72.5054C72.6123 0.401116 72.8427 0.758514 73.164 1.02176Z" fill="white"/>
<path opacity="0.9" d="M74.1099 5.15079C73.6895 4.89185 73.6054 5.58468 73.9488 6.66245C74.1621 7.50286 74.6354 8.25469 75.3012 8.811C75.7496 9.08394 75.8968 8.72702 75.5184 7.62825C75.2624 6.69835 74.7783 5.84687 74.1099 5.15079Z" fill="white"/>
<path opacity="0.9" d="M78.2304 15.0397C77.9207 14.1419 77.3907 13.3358 76.6888 12.6952C76.2053 12.4013 76.1002 12.9892 76.4366 13.941C76.7185 14.8193 77.2461 15.5988 77.9571 16.1875C78.4616 16.5024 78.5948 16.0125 78.2304 15.0397Z" fill="white"/>
<path opacity="0.9" d="M79.3095 20.0858C78.7699 19.7569 78.6087 20.2958 78.868 21.2266C79.1248 22.1228 79.6536 22.9175 80.3816 23.5011C80.9491 23.851 81.1944 23.4171 80.8861 22.4723C80.5983 21.5433 80.0514 20.7155 79.3095 20.0858Z" fill="white"/>
<path opacity="0.9" d="M81.3415 27.2031C80.7459 26.8322 80.4166 27.3011 80.5567 28.1619C80.6919 29.0325 81.1621 29.816 81.8671 30.3455C82.4767 30.7234 82.8971 30.3874 82.743 29.5126C82.5663 28.6006 82.0693 27.7816 81.3415 27.2031Z" fill="white"/>
<path opacity="0.9" d="M82.967 35.7554C82.9932 35.3498 82.9157 34.9443 82.7416 34.577C82.5675 34.2096 82.3026 33.8926 81.972 33.6558C81.3553 33.2709 80.8298 33.6558 80.7317 34.3556C80.6844 34.7323 80.7401 35.1148 80.8932 35.4623C81.0462 35.8099 81.2906 36.1095 81.6006 36.3292C81.7172 36.43 81.8596 36.4962 82.0119 36.5204C82.1641 36.5446 82.3201 36.5257 82.4622 36.4661C82.6043 36.4064 82.7269 36.3082 82.8161 36.1826C82.9053 36.057 82.9576 35.909 82.967 35.7554Z" fill="white"/>
<path opacity="0.9" d="M80.8649 40.7874C80.9674 40.6523 81.0406 40.4973 81.0797 40.3323C81.1188 40.1674 81.123 39.9961 81.092 39.8294C81.061 39.6627 80.9955 39.5043 80.8997 39.3644C80.8038 39.2245 80.6798 39.1061 80.5356 39.0168C80.2369 38.8542 79.8878 38.81 79.5579 38.893C79.228 38.976 78.9416 39.1801 78.7557 39.4647C78.638 39.5918 78.5488 39.7425 78.4941 39.9067C78.4393 40.071 78.4203 40.245 78.4382 40.4172C78.4561 40.5894 78.5105 40.7558 78.5979 40.9053C78.6853 41.0548 78.8036 41.184 78.9449 41.2843C79.2721 41.4418 79.6445 41.4782 79.9961 41.3872C80.3476 41.2963 80.6555 41.0837 80.8649 40.7874Z" fill="white"/>
<path opacity="0.9" d="M77.8379 46.0083C77.9862 45.6858 78.0205 45.3225 77.9352 44.978C77.8499 44.6335 77.6501 44.3281 77.3685 44.1117C77.2134 44.0473 77.0462 44.0172 76.8784 44.0235C76.7106 44.0298 76.5461 44.0723 76.3963 44.1481C76.2465 44.2239 76.1149 44.3312 76.0105 44.4627C75.9062 44.5941 75.8316 44.7466 75.7919 44.9095C75.6549 45.2391 75.6373 45.6061 75.7422 45.9472C75.8471 46.2883 76.0678 46.5822 76.3664 46.7781C76.941 47.0721 77.5787 46.7291 77.8379 46.0083Z" fill="white"/>
<path opacity="0.9" d="M75.6447 49.9063C75.0701 49.6334 74.4815 50.0743 74.3764 50.8791C74.3225 51.2545 74.3809 51.6375 74.5442 51.9799C74.7076 52.3223 74.9685 52.6089 75.2944 52.8037C75.89 53.0696 76.4015 52.6427 76.4926 51.8449C76.5483 51.4748 76.4983 51.0966 76.3483 50.7536C76.1984 50.4107 75.9545 50.117 75.6447 49.9063Z" fill="white"/>
<path opacity="0.9" d="M75.3083 59.2215C75.9459 59.4664 76.4014 58.9835 76.3593 58.1437C76.3483 57.7406 76.2352 57.347 76.0305 56.9994C75.8259 56.6518 75.5364 56.3617 75.1891 56.1561C74.5725 55.9042 74.068 56.3871 74.089 57.2339C74.0968 57.6436 74.2139 58.0438 74.4282 58.3932C74.6425 58.7425 74.9463 59.0285 75.3083 59.2215Z" fill="white"/>
<path opacity="0.9" d="M76.009 65.877C76.7098 66.1219 77.1582 65.6041 77.0321 64.7363C76.9806 64.3117 76.826 63.9061 76.5818 63.5548C76.3375 63.2035 76.011 62.9172 75.6307 62.7207C74.9299 62.4687 74.4815 62.9726 74.5796 63.8404C74.6294 64.2719 74.7863 64.6841 75.0359 65.0397C75.2855 65.3953 75.62 65.6831 76.009 65.877Z" fill="white"/>
<path opacity="0.9" d="M77.0111 72.6236C77.7539 72.8686 78.2444 72.3367 78.0972 71.4619C78.0216 71.0221 77.8389 70.6076 77.5652 70.2549C77.2915 69.9022 76.9352 69.6222 76.5276 69.4393C75.8269 69.1944 75.3154 69.6913 75.4345 70.5731C75.5059 71.0188 75.6875 71.4398 75.9628 71.7978C76.2381 72.1559 76.5984 72.4397 77.0111 72.6236Z" fill="white"/>
<path opacity="0.9" d="M77.9289 79.3772C78.6997 79.6081 79.2392 79.0622 79.1201 78.1944C79.0494 77.7521 78.8641 77.336 78.5826 76.9874C78.3011 76.6387 77.9332 76.3696 77.5155 76.2068C76.7517 75.9689 76.2192 76.4658 76.3243 77.3476C76.3881 77.7974 76.5703 78.2222 76.8522 78.5788C77.1341 78.9353 77.5056 79.2108 77.9289 79.3772Z" fill="white"/>
<path opacity="0.9" d="M76.3454 0.531933C75.8549 0.0280402 75.4275 0.363988 75.4906 1.29479C75.5798 2.25213 75.9531 3.16108 76.5627 3.90522C77.1723 4.52809 77.5787 4.19217 77.5156 3.26137C77.4246 2.25081 77.0149 1.29513 76.3454 0.531933Z" fill="white"/>
<path opacity="0.9" d="M77.6416 8.13233C77.1371 7.62143 77.025 8.13229 77.4314 9.23105C77.773 10.2148 78.3064 11.1211 79.001 11.8975C79.6107 12.5134 79.8909 12.3454 79.4845 11.1977C79.0571 10.0748 78.4331 9.03685 77.6416 8.13233Z" fill="white"/>
<path opacity="0.9" d="M80.3465 16.7754C80.7535 17.7858 81.3319 18.7186 82.0563 19.5328C82.6659 20.1347 82.8551 19.7847 82.4557 18.791C81.9985 17.7376 81.3686 16.7678 80.5917 15.9216C80.0522 15.3757 79.9401 15.7746 80.3465 16.7754Z" fill="white"/>
<path opacity="0.9" d="M83.2121 24.3269C83.3852 24.7923 83.5983 25.242 83.849 25.6706V23.774L83.632 23.543C83.0512 22.9762 82.8832 23.3611 83.2121 24.3269Z" fill="white"/>
<path opacity="0.9" d="M83.85 42.25C83.5811 42.3083 83.3366 42.4475 83.1493 42.6489C83.0244 42.7843 82.9274 42.943 82.864 43.116C82.8006 43.2889 82.772 43.4726 82.7798 43.6566C82.7876 43.8406 82.8317 44.0212 82.9096 44.1882C82.9874 44.3551 83.0974 44.5051 83.2334 44.6295C83.4018 44.7891 83.6025 44.9108 83.822 44.9864L83.85 42.25Z" fill="white"/>
<path opacity="0.9" d="M82.2805 49.1856C82.3957 48.8102 82.3944 48.4087 82.2768 48.0339C82.1593 47.6592 81.9309 47.3288 81.6218 47.0861C81.5059 46.9783 81.3644 46.9018 81.2107 46.8637C81.057 46.8257 80.8961 46.8274 80.7432 46.8687C80.5903 46.9101 80.4505 46.9896 80.337 47.0999C80.2234 47.2102 80.1399 47.3475 80.0942 47.499C79.9716 47.8458 79.9576 48.2217 80.054 48.5767C80.1503 48.9317 80.3526 49.2491 80.6338 49.4866C80.7485 49.6064 80.8912 49.6958 81.0491 49.7469C81.207 49.798 81.3751 49.8092 81.5383 49.7793C81.7016 49.7495 81.8549 49.6796 81.9844 49.576C82.1139 49.4724 82.2157 49.3382 82.2805 49.1856Z" fill="white"/>
<path opacity="0.9" d="M79.7577 55.0923C80.4584 55.5052 81.033 55.2043 81.0891 54.4764C81.0902 54.0628 80.9898 53.6552 80.7968 53.2892C80.6039 52.9232 80.3241 52.61 79.9819 52.3769C79.4354 52.006 78.8818 52.3279 78.8118 53.0767C78.7826 53.4656 78.8544 53.8554 79.0201 54.2084C79.1858 54.5615 79.4398 54.8659 79.7577 55.0923Z" fill="white"/>
<path opacity="0.9" d="M80.1362 61.2091C80.8369 61.524 81.3484 61.1321 81.2573 60.3413C81.1944 59.9093 81.0361 59.4968 80.7936 59.1337C80.5512 58.7705 80.2309 58.4658 79.8559 58.2417C79.2673 57.9408 78.8118 58.3677 78.8819 59.1935C78.9161 59.6047 79.0476 60.0019 79.2657 60.3523C79.4838 60.7028 79.7821 60.9964 80.1362 61.2091Z" fill="white"/>
<path opacity="0.9" d="M81.2643 67.6337C82.0001 67.8716 82.4626 67.3957 82.2944 66.5769C82.1857 66.1412 81.9808 65.7353 81.6947 65.3889C81.4085 65.0426 81.0484 64.7646 80.6407 64.5753C80.0101 64.3374 79.5826 64.8343 79.7298 65.6951C79.8116 66.1173 79.9937 66.5137 80.2607 66.851C80.5278 67.1883 80.8719 67.4567 81.2643 67.6337Z" fill="white"/>
<path opacity="0.9" d="M82.6519 74.1632C83.4017 74.3242 83.8852 73.7853 83.696 72.9525C83.5879 72.5263 83.3768 72.133 83.0812 71.8072C82.7855 71.4814 82.4144 71.233 82.0002 71.0839C81.2995 70.9019 80.8651 71.4408 81.0332 72.3016C81.1175 72.7258 81.3112 73.1206 81.595 73.4471C81.8789 73.7736 82.2432 74.0205 82.6519 74.1632Z" fill="white"/>
<path opacity="0.9" d="M83.8501 77.7814C83.6859 77.6845 83.5055 77.6182 83.3176 77.5854C82.5748 77.4665 82.0843 78.0403 82.2104 78.8801C82.2809 79.2967 82.468 79.685 82.75 79.9999H83.8501V77.7814Z" fill="white"/>
<path opacity="0.9" d="M82.2523 1.44169C82.4869 1.60424 82.7656 1.69132 83.0511 1.69132C83.3366 1.69132 83.6153 1.60424 83.8499 1.44169V0.0419922H81.5235C81.5209 0.317063 81.586 0.588556 81.7131 0.832614C81.8402 1.07667 82.0253 1.28583 82.2523 1.44169Z" fill="white"/>
<path opacity="0.9" d="M81.7057 8.10435C82.4064 8.58025 82.8549 8.10436 82.7918 7.19455C82.7552 6.71493 82.6199 6.24802 82.3944 5.82296C82.169 5.39789 81.8582 5.02382 81.4815 4.7241C80.7808 4.2552 80.1712 4.54211 80.2342 5.47991C80.3631 6.51298 80.8912 7.45482 81.7057 8.10435Z" fill="white"/>
<path opacity="0.9" d="M82.7429 12.3033C82.0421 11.8344 81.7689 12.3033 82.1683 13.4161C82.5098 14.3668 83.0887 15.2147 83.85 15.8795V13.493C83.5543 13.0342 83.1795 12.6313 82.7429 12.3033Z" fill="white"/>
</g>
</svg>
