<svg width="81" height="80" viewBox="0 0 81 80" fill="none" xmlns="http://www.w3.org/2000/svg">
<g opacity="0.9">
<path opacity="0.9" d="M45.1387 57.1473L45.214 57.0658L45.1387 57.1473C54.3789 66.7335 65.2262 71.7491 69.3504 68.3197L70.292 67.3103C69.8377 67.7603 69.2725 68.0825 68.6536 68.2444C63.7698 69.6363 53.4499 64.4451 45.5969 56.652L45.5592 56.6896L45.5969 56.652C40.2423 51.3354 37.4364 46.1818 37.7189 42.9968C37.4113 45.3103 38.3654 49.699 45.1387 57.1473Z" fill="white"/>
<path opacity="0.9" d="M46.2372 55.9057C46.2621 55.8781 46.2852 55.8487 46.3062 55.818L46.2435 55.9057C55.0004 63.749 67.5864 69.6989 71.6856 65.6863L71.8425 65.4857L72.4702 64.6957L72.533 64.6142C72.0741 65.1325 71.4673 65.4979 70.7942 65.6612C65.9104 67.0531 55.1008 62.4387 46.6829 55.354L46.6452 55.4042L46.6829 55.354C41.1274 50.6894 37.9825 46.1189 37.8946 43.1409C37.8381 45.4418 39.307 49.4543 46.2372 55.9057Z" fill="white"/>
<path opacity="0.9" d="M42.6528 27.1725C50.9326 16.0816 61.8991 7.46715 65.2512 9.44207L64.0899 8.53925C61.2463 6.5079 50.7945 14.1819 42.0815 26.7211H42.1192H42.0815C40.1104 29.6678 35.9109 36.5267 37.4112 39.3731C36.8588 38.1756 37.0032 35.0784 42.6528 27.1725ZM42.3703 26.9405H42.3263H42.3703Z" fill="white"/>
<path opacity="0.9" d="M34.9568 23.1976H34.9129H34.9568C36.9216 12.5392 42.4896 2.73988 47.3546 1.34176C47.9881 1.14737 48.6621 1.1257 49.3068 1.27904L48.3652 1.05335L47.5931 0.884055C42.9604 0.257096 36.5512 8.88406 34.2412 23.0283C33.3937 29.0659 33.6135 35.812 36.3755 38.7775C34.2789 36.2446 33.6197 30.4452 34.9568 23.1976Z" fill="white"/>
<path opacity="0.9" d="M31.4665 22.6395C31.5042 11.6552 35.4966 1.61754 40.3803 0.21942C40.6469 0.144639 40.9203 0.0963499 41.1964 0.0752321L39.8656 0C35.1513 0.269593 30.4998 8.67712 30.7195 22.5705C30.9706 28.9342 32.6027 36.3637 36.3691 39.0784C33.4439 36.7524 31.4414 30.4828 31.4665 22.6395Z" fill="white"/>
<path opacity="0.9" d="M51.849 78.6206L51.6985 78.6582C51.7474 78.6494 51.7957 78.6368 51.8427 78.6206H51.849Z" fill="white"/>
<path opacity="0.9" d="M78.3333 42.8401C73.4495 44.2382 60.9639 44.7209 50.4431 43.9498C50.4462 43.9873 50.4462 44.0251 50.4431 44.0626C50.4462 44.0251 50.4462 43.9873 50.4431 43.9498C43.1613 43.4043 38.7358 42.3887 38.3153 41.3542L38.3592 41.304C38.9869 42.1191 43.3811 42.7335 50.4242 42.8589C50.4275 42.8108 50.4275 42.7627 50.4242 42.7147C50.4275 42.7627 50.4275 42.8108 50.4242 42.8589C60.9388 43.0407 73.4182 42.0563 78.3019 40.6582C79.639 40.2758 80.273 39.8996 80.2605 39.5548V39.2789V39.0281C80.2605 38.7397 80.2165 38.4388 80.1914 38.1253C80.1161 38.4075 79.482 38.7523 78.2391 39.0908C73.3554 40.4827 60.8948 41.8181 50.4117 42.0689C43.5066 42.2382 39.2192 41.8933 38.4345 41.2476L38.4659 41.141C39.464 41.5485 43.6761 41.5234 50.2422 40.9843C60.6689 40.1379 73.0729 38.3134 77.9566 36.9216C79.2121 36.5705 79.8399 36.2946 79.9152 36.0564C79.8524 35.5423 79.7834 35.0344 79.708 34.5391C79.2875 35.4795 65.6782 38.257 50.1292 40.2194C46.3628 40.6833 40.1733 41.3479 38.5789 41.0156L38.7547 40.8401C40.1357 40.8024 44.0653 40.2131 49.9283 39.1661C60.173 37.2852 72.4389 34.6708 77.3227 33.2727C78.6911 32.8839 79.3377 32.6457 79.3251 32.514V32.4513L79.0364 31.2288V31.0971C78.3921 31.4041 77.7135 31.6335 77.015 31.7805C72.1313 33.1786 59.947 36.1692 49.7902 38.42C44.3352 39.6363 40.5814 40.4075 39.0309 40.6394C39.173 40.5223 39.3218 40.4134 39.4765 40.3134H39.5205H39.5833L39.646 40.2821H39.6837L39.872 40.2068L40.0541 40.1379L49.4701 37.467V37.4231V37.467C59.4636 34.6332 71.5224 31.1974 76.4062 29.8118L78.4526 29.2225L78.0006 27.8495C77.2956 27.9595 76.6023 28.1337 75.9291 28.3698C71.0453 29.7617 59.0932 33.5172 49.2315 36.746V36.7836V36.746C44.059 38.4451 40.4872 39.6614 38.9744 40.2319L38.5224 40.1629C39.6963 39.4858 43.3308 37.9247 48.8612 35.7742C58.5157 32.0125 70.3046 27.7993 75.1821 26.4075C76.5003 26.0313 77.1783 25.8996 77.285 25.9748L77.1532 25.6551L76.7451 24.6896C76.2806 24.0626 62.935 28.8526 48.5787 35.0971V35.141V35.0971C45.145 36.6081 39.6209 39.1159 38.3592 40.1504L38.1395 40.094C38.7672 39.2539 42.3076 37.1034 48.133 34.1567C57.3733 29.4733 68.8482 24.5454 73.7069 23.1473C75.0816 22.7585 75.7847 22.6833 75.8914 22.8902L75.3829 21.9184L75.2449 21.6614C75.1068 21.4231 74.3911 21.4733 73.0289 21.862C68.1452 23.2601 56.8522 28.4827 47.8003 33.5297C41.931 36.8024 38.4534 39.1724 38.0579 40.1003H38.0076H37.9574C38.0642 39.1159 41.41 36.3824 47.2793 32.6708V32.6332V32.6708C56.0676 27.1222 67.1031 21.4984 71.9869 20.1002C73.3177 19.7241 74.0521 19.699 74.2405 19.9748L73.4935 18.8024C73.28 18.4952 72.533 18.5015 71.2022 18.8777C66.3185 20.2758 55.4398 26.1817 46.8964 32.0751C41.071 36.094 37.8382 39.0657 37.9261 40.1065H37.8695C37.5243 38.9905 40.5688 35.6864 46.3063 31.2476C54.5171 24.8902 65.1383 18.6018 70.0221 17.21C71.3341 16.8338 72.0999 16.8463 72.3573 17.21L72.2066 17.0093L71.5475 16.1441L71.4722 16.0501C71.1708 15.699 70.3987 15.6802 69.1244 16.0501C64.2407 17.4419 53.8266 23.9937 45.8606 30.677V30.7147V30.677C40.211 35.4169 37.3109 38.9466 37.8382 40.1128H37.8068C37.0347 38.8965 39.69 35.047 45.2015 29.9059C52.8096 22.7774 62.9287 15.8745 67.7999 14.4827C69.0554 14.119 69.8526 14.163 70.1979 14.5517L69.2563 13.4983C68.8796 13.0971 68.0761 13.0407 66.8332 13.398C61.9494 14.7899 52.0438 21.9435 44.7119 29.3667C39.3573 34.7899 36.8526 38.8589 37.8068 40.119C36.658 38.7962 38.9053 34.4388 44.0339 28.6457L44.0025 28.6144L44.0339 28.6457C50.9704 20.815 60.5559 13.3353 65.4396 11.9372C66.6386 11.5987 67.4484 11.6551 67.8753 12.0563L67.8376 12.0187L66.9023 11.141C66.8761 11.1107 66.8466 11.0833 66.8144 11.0595C66.3561 10.6582 65.5589 10.5955 64.3725 10.9341C59.4887 12.3259 50.1418 20.0313 43.5003 28.1441C38.7233 33.9749 36.6455 38.4262 37.6687 39.9498C37.5987 39.8621 37.5377 39.7676 37.4866 39.6677C37.5588 39.8246 37.6564 39.9687 37.7754 40.094L37.7252 40.0564L37.788 40.1065H37.7503C37.6754 40.0505 37.6061 39.9875 37.5431 39.9184L37.7126 40.0689C37.6185 39.9811 37.5243 39.8871 37.4301 39.7805C36.0742 37.9623 37.4301 32.9278 41.3221 26.4263C46.7708 17.3604 55.1322 8.87141 60.0286 7.4921C60.4021 7.34648 60.8009 7.27646 61.2018 7.28615C61.6027 7.29584 61.9977 7.38502 62.3637 7.5485L62.0813 7.35415L61.2652 6.8087C60.8902 6.61353 60.4777 6.50082 60.0554 6.47811C59.6331 6.4554 59.2109 6.52324 58.8171 6.67706C53.9333 8.07518 45.8292 16.7084 40.7195 26.025C37.2669 32.2946 36.0617 37.2413 37.1414 39.373C36.1621 37.7366 35.8859 34.0062 39.8469 25.4921H39.8093H39.8469C45.0634 14.7523 54.7619 3.7993 59.4762 5.72407L59.2376 5.59239L58.5094 5.18489H58.4718L58.1956 5.03439C54.3664 3.27891 45.44 11.5109 39.2192 25.1598C38.0265 27.8808 34.5551 36.6018 37.3736 39.7492C37.4775 39.8906 37.6024 40.0153 37.744 40.119C37.593 40.0218 37.4483 39.915 37.3109 39.7993C35.2958 37.8494 35.5407 32.1065 38.3278 24.7147H38.2964H38.3278C42.0942 14.6833 49.1311 5.43565 54.0212 4.025C54.7735 3.76673 55.594 3.78902 56.3312 4.08772L55.0757 3.5485L54.787 3.42314C54.0952 3.20021 53.3507 3.20021 52.659 3.42314C47.7815 4.81499 41.0522 14.2068 37.6436 24.3887H37.6812H37.6436C35.2519 31.536 35.1326 37.1724 36.9405 39.4357C35.4904 37.8307 34.1345 33.8557 36.6957 24.0313C39.872 12.8526 47.3107 1.3479 52.9226 2.71467L52.6652 2.62061L51.5604 2.25069L51.3972 2.20056C50.7349 2.02483 50.0363 2.04005 49.3822 2.24445C44.5047 3.64257 38.5098 13.2977 36.0052 23.8181C34.1722 31.5172 34.7058 37.5422 37.041 39.6739C36.8286 39.5029 36.6293 39.3164 36.4446 39.1159C36.6453 39.3677 36.8749 39.5949 37.1288 39.793C34.6179 38.0313 32.5589 32.9968 33.2996 23.1724C34.4107 12.1253 39.4577 0.445048 45.666 0.840032L44.6428 0.695844L43.6635 0.589271C43.2748 0.58927 42.8881 0.644155 42.5148 0.752287C37.631 2.14414 33.1804 12.1379 32.5715 23.072C32.1069 31.373 33.9901 37.8244 37.066 39.8432C36.8484 39.7253 36.6387 39.5933 36.4383 39.4482C36.876 39.687 37.3483 39.8562 37.8382 39.9498C33.8834 38.746 30.4686 31.7993 29.709 22.583C28.7988 11.5799 32.0191 1.52972 36.9028 0.131603C37.1333 0.0675921 37.3683 0.0214576 37.6059 -0.00634766C37.0912 -0.00634766 36.5764 0.0375364 36.1056 0.0688844C35.8742 0.0966669 35.6454 0.142809 35.4214 0.206835C30.5376 1.59869 27.65 11.6363 28.9683 22.6144C30.0731 31.8244 33.7956 38.7836 37.8444 39.956C33.6637 38.8275 29.5207 31.8934 27.9388 22.6896L27.5433 22.746L27.9388 22.6896C26.0556 11.7617 28.4912 1.77421 33.375 0.382364C33.4739 0.351408 33.5745 0.326289 33.6763 0.307132L32.6405 0.45132L32.402 0.488936C32.2472 0.514891 32.0941 0.550516 31.9437 0.595547C27.06 1.9874 24.9445 11.931 27.2232 22.7962L27.4241 22.7648L27.2232 22.7962C29.144 31.9748 33.5821 38.8777 37.857 39.9623C33.4629 38.9341 28.6168 32.0877 26.2251 22.9717C23.4066 12.2131 25.0763 2.35728 29.9601 0.965432H30.0229H29.9727L29.1692 1.16606L28.4473 1.35414C23.6702 2.88392 22.3645 12.583 25.5346 23.1535L25.6915 23.1096L25.5346 23.1535C28.2527 32.2068 33.3875 38.9905 37.8633 39.9811C33.2745 39.047 27.7505 32.3636 24.5804 23.4168H24.5428H24.5804C20.9396 13.1473 21.7556 3.69273 26.3569 1.97487L25.1956 2.38237L24.9445 2.4827C20.4374 4.28207 19.9226 13.5736 23.915 23.6551L24.0343 23.6112L23.915 23.6551C27.4052 32.5078 33.2055 39.1034 37.8695 39.956C33.105 39.1347 26.9219 32.677 22.9985 23.9748H22.9483H22.9985C18.6044 14.2319 18.642 5.2225 22.942 3.25385H22.8918L21.9565 3.68645L21.6677 3.82436L21.5485 3.88708C17.4117 5.97486 17.6942 14.7711 22.3708 24.2507L22.4587 24.2068L22.3708 24.257C26.5954 32.8275 33.0423 39.1786 37.8758 39.931C32.9481 39.2288 26.1435 33.0344 21.4982 24.6708L21.4355 24.7084L21.4982 24.6708C16.5266 15.6927 15.767 7.31656 19.4769 4.95292H19.4204L18.3407 5.57988C14.5743 7.88709 15.6038 16.1441 20.9019 24.978L20.971 24.9403L20.9082 24.978C25.8422 33.2037 32.8979 39.2476 37.857 39.8996C32.7849 39.3291 25.3902 33.4858 20.0607 25.4796L19.9791 25.536L20.0607 25.4796C15.472 18.5517 12.597 10.0689 16.514 6.72719L16.3634 6.82752L15.3967 7.53599L15.2021 7.68646C12.0634 10.2444 13.7206 17.8307 19.5021 25.8683L19.546 25.8307L19.5021 25.8683C25.1077 33.6739 32.741 39.3604 37.8633 39.8745C32.6594 39.4357 24.7122 33.9811 18.7362 26.4513L18.6421 26.5329L18.7362 26.4513C12.6221 18.7397 10.6384 11.4357 13.6453 8.89648L12.7288 10.1441L12.6472 10.2194C9.88516 12.8275 12.1136 19.8369 18.3847 27.21C24.6055 34.5329 32.7786 39.8056 38.0265 40.188C32.7033 39.8808 24.2163 34.8714 17.6753 27.862L17.5686 27.9748L17.6753 27.862C12.6221 22.4263 8.25933 15.3228 11.1657 11.63L11.0779 11.7178L10.4062 12.4325L10.0484 12.8275C7.8827 15.5109 10.6259 21.8181 17.2045 28.3698C24.0029 35.1473 32.6656 39.956 38.0328 40.2006C32.6091 40.0438 23.6828 35.5235 16.5642 29.0909L16.4387 29.2476L16.5642 29.0909C9.82866 22.9968 6.82182 17.0908 8.68619 14.4137L7.80108 15.5611C6.08736 18.2006 9.2637 23.8494 16.1374 29.6425C16.2127 29.536 16.288 29.4357 16.3696 29.3353C16.288 29.4357 16.2127 29.536 16.1374 29.6425C23.463 35.8181 32.5778 40.1191 38.039 40.2194C32.5213 40.2194 23.168 36.2256 15.5599 30.4262C15.5097 30.4952 15.4594 30.5705 15.4155 30.6457C15.4594 30.5705 15.5097 30.4952 15.5599 30.4262C8.39744 24.9654 5.00767 19.5924 6.70883 17.0657L5.93671 18.2633V18.3071C4.41759 20.815 7.95802 25.8808 15.2021 31.0156C15.2648 30.909 15.3339 30.8087 15.3967 30.7084L15.2021 31.0156C23.0048 36.5391 32.5213 40.2883 38.0704 40.2319C32.4773 40.3761 22.7412 36.9654 14.6936 31.8495C14.6308 31.956 14.5743 32.0626 14.5178 32.1692C14.5743 32.0626 14.6308 31.956 14.6936 31.8495C7.36167 27.1849 3.6392 22.5078 4.87583 20.0877L4.83817 20.1567L4.41132 20.9592L4.22927 21.3291C3.06168 23.6677 6.90343 28.1002 14.3609 32.4764L14.499 32.2131L14.3609 32.4764C22.5842 37.2977 32.4648 40.4576 38.083 40.2444C32.4334 40.5517 22.3896 37.7366 13.9341 33.3479C13.8797 33.4649 13.8294 33.5841 13.7834 33.7053C13.8294 33.5882 13.8797 33.4691 13.9341 33.3479C9.53992 31.0219 2.38373 26.6018 3.36299 23.1285L2.84827 24.3824L2.78549 24.5516C2.05732 26.7209 6.14387 30.4388 13.6579 34.0187L13.7394 33.8118L13.6579 34.0187C22.2201 38.0877 32.3957 40.6206 38.0767 40.2507C32.3643 40.7084 22.0507 38.5579 13.3189 34.9466C9.77217 33.4607 1.59279 29.6551 2.12009 26.3824L2.06986 26.5329L1.69324 27.7868C1.12828 29.7178 5.40942 32.8025 13.1054 35.6739C13.1193 35.6167 13.136 35.5602 13.1557 35.5046C13.136 35.5602 13.1193 35.6167 13.1054 35.6739C21.9439 38.9529 32.3518 40.8213 38.083 40.2946C32.3329 40.9216 21.8121 39.4482 12.8355 36.6457C5.12067 34.2319 0.757902 31.5235 1.17221 29.7492L0.965063 30.7335C0.927399 30.9153 0.889726 31.0971 0.85834 31.2789C0.73907 32.9529 5.12693 35.3228 12.6849 37.373C12.6849 37.3291 12.6849 37.2789 12.6849 37.2288C12.6884 37.2768 12.6884 37.325 12.6849 37.373C21.7368 39.8306 32.3267 41.0031 38.0893 40.3134C32.3141 41.1034 21.6489 40.3134 12.5091 38.3824C12.5091 38.3824 12.5091 38.42 12.5091 38.4325C12.5091 38.4451 12.5091 38.4012 12.5091 38.3824C4.7754 36.7272 0.312218 34.6771 0.531925 33.1661L0.349876 34.6206C0.349876 35.4795 1.86272 37.2037 12.4149 39.1347C12.4177 39.0951 12.4177 39.0553 12.4149 39.0156C12.4177 39.0553 12.4177 39.0951 12.4149 39.1347C21.605 40.7272 32.3204 41.1849 38.1018 40.326C32.3267 41.2852 21.5547 41.2601 12.3019 40.1755C6.94737 39.5485 0.49425 38.3761 0.167828 36.6645V36.7147L0.123901 38.1504C0.161565 38.815 1.79367 40.0689 12.2831 40.9466C12.2831 40.9466 12.2831 40.8839 12.2831 40.8526V40.9466C21.5673 41.6551 32.3706 41.3667 38.152 40.3197H38.1834H38.1457C32.3831 41.4482 21.5736 42.2006 12.2957 42.0062C12.2957 42.0626 12.2957 42.1253 12.2957 42.188C12.2957 42.1253 12.2957 42.0626 12.2957 42.0062C7.01014 41.8871 0.619811 41.4796 0.142733 40.2194V40.5642C0.174119 40.9341 0.205502 41.3542 0.236889 41.7805C0.600975 42.5078 5.02022 42.9216 12.3208 42.7586C21.5547 42.5517 32.3204 41.5046 38.0955 40.3071C32.3267 41.6049 21.6238 43.0846 12.4463 43.8181C4.9135 44.4137 0.519361 44.3448 0.444033 43.7366L0.65746 45.2037C0.726511 45.6802 5.11437 45.4858 12.5844 44.5767C21.7054 43.4733 32.3706 41.6802 38.1269 40.3134C32.3894 41.7742 21.8058 43.9999 12.779 45.6175C5.69816 46.8714 1.42958 47.4482 1.07805 47.2162C1.19104 47.6676 1.31032 48.1441 1.43586 48.6269C1.89411 48.6959 6.0748 47.8871 12.9548 46.3636C21.8937 44.3824 32.4145 41.8557 38.1269 40.3322C32.4334 41.9498 22.0381 44.8902 13.2373 47.3667V47.4106V47.3667C6.39496 49.2977 2.29585 50.4451 1.93804 50.5015C2.07614 50.9717 2.22052 51.4357 2.3649 51.8683C2.46534 51.7178 6.52051 50.3197 13.457 48.0564C22.4398 45.1347 33.149 41.7867 38.6856 40.1441L39.1564 40.0125C33.8018 41.63 22.8793 45.5234 13.8273 49.0469C6.99758 51.7052 3.06169 53.4357 3.06169 53.7366L3.13073 53.9059L3.62037 55.0595C3.45716 54.6896 7.30517 52.7021 14.1224 49.7366V49.6927V49.7366C22.7412 45.9749 33.1364 41.931 38.6354 40.1755C38.491 40.2257 38.378 40.2632 38.2964 40.3009C32.7472 42.1817 22.7851 46.5328 14.5681 50.6833C7.91407 54.0375 4.21045 56.326 4.47409 56.8651L5.02022 57.9059V57.9435L5.10809 58.0877C4.92605 57.4106 8.4916 54.8965 14.8945 51.3416C22.8981 46.9028 32.6405 42.3197 38.1771 40.351C38.1563 40.357 38.1385 40.3703 38.1269 40.3886C32.628 42.4513 23.1366 47.3793 15.4155 52.2445V52.2758V52.2445C9.20721 56.1567 5.81116 58.978 6.09364 59.7993L6.24431 60.0501L6.84065 60.9843L6.88459 61.0532C6.58956 60.3636 7.90781 58.3824 15.8173 52.8714C23.3501 47.7053 32.6594 42.5266 38.1207 40.4012C32.7096 42.6081 23.6325 48.1253 16.401 53.699V53.7304V53.699C10.4062 58.326 7.34284 61.7053 8.00824 62.6645L8.10868 62.8024L8.17772 62.8965V62.9341L8.75525 63.6927L8.82429 63.7868C8.10867 62.7209 11.0151 59.141 16.8154 54.2883V54.257V54.2883C23.8271 48.4325 32.7221 42.6771 38.0955 40.4137C32.7849 42.7523 24.1598 48.8275 17.4682 55.0658C13.5637 58.7648 9.11933 63.5485 10.1237 65.3416L10.9774 66.3009L11.0339 66.3636C10.0295 65.141 12.5405 61.0595 17.939 55.605C24.3858 49.0971 32.81 42.8024 38.0767 40.42C32.8728 42.8777 24.7436 49.467 18.6169 56.3259H18.6483H18.6169C13.4444 62.1504 11.1908 66.5203 12.3961 67.7993L12.5279 67.9247L13.3628 68.7209L13.4256 68.7774C12.1262 67.4294 14.1851 62.8714 19.1505 56.8651C24.9947 49.7617 32.9105 42.9654 38.0579 40.4639C32.9795 43.0281 25.3714 50.094 19.9038 57.5234H19.9352H19.9038C15.1456 63.9874 13.3816 68.8589 14.9886 70.1818L16.1248 71.0909C14.3735 69.7429 15.924 64.6833 20.475 57.9811H20.4437H20.475C25.6601 50.3322 33.0297 43.0846 38.0516 40.4764C33.0988 43.1535 26.0744 50.6332 21.2911 58.5579C17.0853 65.5297 15.8424 70.815 17.7193 72.2382L17.8762 72.3511L19.0061 73.1034C17.7507 72.1504 16.4952 69.0407 21.9 58.9654H21.8686H21.9C26.382 50.8526 33.1553 43.2162 38.0453 40.4952C33.2369 43.2789 26.8277 51.1159 22.7663 59.4733C19.0689 67.0783 18.4286 72.8212 20.7701 74.1629L21.8247 74.7899L22.0758 74.9216C19.5648 73.5987 19.9603 67.6865 23.4003 59.8745C27.1667 51.3542 33.2996 43.3855 38.0516 40.5642C33.3938 43.4357 27.6249 51.5799 24.3105 60.3134H24.3482H24.3105C21.2848 68.3072 21.2283 74.3698 23.8146 75.7868L24.1096 75.9247L25.2019 76.4075H25.2333C22.4461 75.0783 22.2013 68.8401 24.9759 60.5956C27.9639 51.7304 33.4629 43.4733 38.0579 40.5329C33.557 43.4858 28.4535 51.8871 25.9238 60.9153C24.8127 65.0532 22.7286 74.8965 27.2985 77.1723L27.7756 77.3416L28.7046 77.6551H28.78C27.1604 76.9654 23.7581 73.9874 26.6143 61.1222H26.5766H26.6143C28.8113 51.9874 33.6323 43.5046 38.0641 40.5203C33.9462 43.9999 29.527 52.5893 27.7944 61.8307C26.5076 68.815 26.6708 76.8401 30.9331 78.6144C31.3516 78.7272 31.7701 78.8338 32.1886 78.9341C28.7988 77.6802 27.1667 70.9467 28.5038 62.0062C29.8785 52.6771 34.009 44.025 38.265 40.978C34.122 44.0564 30.4121 52.7711 29.5144 62.1755C28.8867 69.699 29.9287 78.1755 34.7937 79.4545L36.3881 79.6802C32.1446 78.8463 29.8471 72.3385 30.2489 62.282C30.795 52.84 34.2036 44.1002 38.265 40.9654C34.3103 44.1002 31.3286 52.8777 31.2721 62.3259C31.2219 72.1504 34.3417 79.4043 38.4973 79.8307L39.9097 79.8933C35.729 79.3855 32.3392 72.1441 32.0191 62.3385C31.7178 52.8651 34.3982 44.1003 38.265 40.9529C34.4986 44.1191 32.2702 52.8651 33.0674 62.3134C33.9337 72.5579 38.0893 80.0125 42.5838 79.8683L44.2222 79.7868C39.6147 80.1191 35.0699 72.6206 33.8081 62.2758C32.6594 52.8714 34.6053 44.1441 38.265 40.9592C34.7309 44.1379 33.1992 52.7962 34.8251 62.1441C36.6078 72.4137 41.5732 79.8495 46.2121 79.5548L46.8399 79.4796L47.7752 79.3416L48.0828 79.2915C43.2995 80.1065 37.7628 72.5705 35.5281 62.0376C33.5633 52.7586 34.8125 44.1567 38.2588 40.9717C34.938 44.1567 34.0906 52.6582 36.5074 61.8244H36.545H36.5074C39.2506 72.2068 45.1764 79.6363 49.9723 78.8902L50.9264 78.6645L51.6734 78.4764C46.8148 79.6175 40.3742 72.1692 37.1979 61.6488H37.1602H37.1979C34.461 52.5893 35.0259 44.1692 38.2588 40.9592C35.164 44.1316 34.982 52.4137 38.152 61.3103C41.9184 71.8118 48.88 79.1974 53.7638 77.8056L53.9521 77.7429L55.4336 77.2162C55.3207 77.2604 55.2055 77.2981 55.0883 77.3291C50.2045 78.7209 42.9165 71.4482 38.8111 61.072H38.7672H38.8111C35.3398 52.2946 35.2519 44.1441 38.2588 40.9717C35.3837 44.1065 35.8357 52.119 39.7151 60.6833H39.759H39.7151C44.3164 70.8463 52.0124 77.956 56.8899 76.5642L57.254 76.4451L57.6557 76.2633L58.409 75.9184L58.7417 75.7492C58.5517 75.839 58.3542 75.9124 58.1516 75.9686C53.2679 77.3667 45.2956 70.3887 40.3428 60.3887H40.2926H40.3428C36.1809 51.9874 35.4779 44.0877 38.2588 40.9968C35.6097 44.0877 36.658 51.7492 41.1965 59.9184L41.3033 59.8557L41.1965 59.9184C46.6264 69.6677 55.0067 76.4388 59.8654 75.047C60.1114 74.9758 60.3509 74.8835 60.581 74.7711L60.9199 74.5767L62.075 73.8933C58.0073 76.1441 49.5203 71.8871 41.7929 59.5611C37.7189 52.5454 36.1935 46.4639 37.3987 42.7962C36.4446 46.4012 38.2713 52.5642 42.5964 59.0344L42.6968 58.9654L42.6027 59.0344C48.7984 68.2946 57.7813 74.6708 62.6902 73.2727C63.1168 73.1562 63.5202 72.9674 63.8829 72.7147L63.977 72.6457L64.7428 72.0814C64.8103 72.0369 64.8753 71.9888 64.9375 71.9372C64.5913 72.1702 64.2097 72.3459 63.8075 72.4576C58.9238 73.8557 49.6898 67.6614 43.1802 58.6269H43.1488H43.1802C38.3969 51.9874 36.4195 45.6551 37.6499 42.2193C37.7126 42.0814 37.7754 41.9561 37.8444 41.8244C36.4509 45.0846 38.6668 51.4043 43.9335 58.025L44.0214 57.9498L43.9335 58.025C50.8385 66.7272 60.424 72.6457 65.3078 71.2539C65.8302 71.1115 66.316 70.8593 66.7328 70.514L67.6179 69.7303L67.7183 69.6363C67.3367 70.0595 66.8647 70.3916 66.3373 70.6081C61.4535 71.9999 51.6483 66.2821 44.4419 57.8369C38.8739 51.3103 36.4885 45.0595 37.9386 41.9121C37.9888 41.8306 38.039 41.7491 38.0955 41.6739C37.8887 42.089 37.765 42.5405 37.7314 43.003C37.7893 42.5564 37.9142 42.121 38.1018 41.7115C37.9168 42.1687 37.8353 42.6612 37.8633 43.1535C37.8699 42.852 37.9056 42.5517 37.97 42.257C37.5306 45.0407 40.9141 49.7805 47.2291 54.5705L47.2918 54.4827C47.2724 54.513 47.2515 54.5423 47.2291 54.5705C58.1642 62.7209 70.5557 66.5893 73.776 62.8652L73.8638 62.7272L74.5606 61.6426C71.6919 65.4357 59.0995 61.8683 47.5994 53.9999L47.5618 54.0563L47.5994 53.9999C45.1701 52.2758 37.9009 46.746 38.0265 42.5579C38.1395 45.141 41.7929 49.1473 48.0702 53.1473L48.1205 53.0595L48.0702 53.1473C57.2979 58.9968 68.7352 62.6018 73.619 61.21C74.381 61.0405 75.0525 60.5934 75.5022 59.9561L75.7157 59.5548L75.9605 59.0908L76.0546 58.9153L76.2241 58.5705C76.0121 58.9228 75.728 59.2267 75.3906 59.4622C75.0531 59.6977 74.6698 59.8595 74.2656 59.9372C69.3818 61.3353 57.8001 58.0062 48.3904 52.5078L48.359 52.5705L48.3904 52.5015C41.6422 48.5579 37.8444 44.5642 38.0453 42.1065C38.0453 41.9999 38.0893 41.8871 38.1144 41.7805C37.6812 44.0689 41.6485 47.8871 48.7859 51.5987L48.8235 51.5172L48.7859 51.5987C58.4216 56.6143 70.1979 59.5234 75.0816 58.1316C75.4877 58.0589 75.8731 57.8991 76.2112 57.6631C76.5494 57.4271 76.8322 57.1206 77.0402 56.7648L77.0778 56.6771L77.5612 55.4858V55.4106C75.973 58.6708 63.1924 57.4294 49.0244 50.9404C49.0166 50.9665 49.0061 50.9917 48.993 51.0156L49.0244 50.9404C44.9567 48.978 38.4408 45.3604 38.1207 42.1629C38.491 44.2068 42.5713 47.1786 49.3634 49.9686L49.3948 49.8808C49.3948 49.8808 49.3947 49.9435 49.3634 49.9686C59.3381 54.0814 71.3843 56.2821 76.268 54.8839C77.3917 54.5642 78.0383 54.0814 78.2454 53.4733C78.2628 53.4325 78.2775 53.3906 78.2894 53.3479L78.5844 52.3886L78.6409 52.1817C78.4212 52.7335 77.7872 53.1849 76.6949 53.4921C71.8112 54.8902 59.6708 52.9968 49.5768 49.2726C49.5768 49.2726 49.5768 49.3291 49.5768 49.3604V49.2726C42.3076 46.5893 38.0893 43.6864 38.1144 41.7491C38.1144 41.6614 38.1144 41.5736 38.1457 41.4921C37.8947 43.2727 42.2449 45.9184 49.8342 48.2758V48.1943V48.2758C60.0725 51.4545 72.3259 52.9028 77.2096 51.5047C78.4086 51.1661 79.0489 50.6833 79.187 50.1065L79.4883 48.6771C78.9359 51.4608 65.2137 51.4921 49.9848 47.5548V47.6488V47.5548C42.452 45.4482 38.5161 43.4608 38.1897 41.63C38.5412 43.1034 42.9165 44.9843 50.1543 46.5266V46.4451C50.1569 46.4722 50.1569 46.4995 50.1543 46.5266C60.5684 48.7335 72.9725 49.3981 77.8562 47.9999C79.1117 47.6426 79.7394 47.1786 79.821 46.6582L79.9843 45.3103V45.2288C79.5009 47.5862 65.741 48.3072 50.2422 45.7742C50.2392 45.8097 50.2392 45.8453 50.2422 45.8808V45.7742C44.9378 44.8275 38.5852 43.304 38.1897 41.3855C38.4659 42.5642 42.9165 43.8934 50.3175 44.7209V44.6457C50.3175 44.6457 50.3175 44.6959 50.3175 44.7209C60.8258 45.931 73.2989 45.7805 78.1827 44.3824C79.4381 44.025 80.0658 43.6237 80.1349 43.2037C80.1349 43.1347 80.1349 43.0658 80.1349 42.9968L80.1726 41.6802C80.273 42.0626 79.6453 42.4702 78.3333 42.8401ZM37.8947 39.9623H37.8633H37.8947ZM37.8947 39.9623H37.9323H37.8821H37.8947ZM37.8947 40.0062H37.857H37.8947ZM37.8947 40.0062H37.8633H37.9072H37.8947ZM37.8947 40.0062H37.8444H37.9261H37.8947ZM13.0992 35.4357C13.0992 35.4357 13.0992 35.4357 13.0992 35.3855L13.1933 35.0846C13.2875 35.2162 13.2498 35.3291 13.2184 35.4482L13.0992 35.4357ZM38.6228 40.1379H38.4596H38.3717H38.5475H38.6228ZM38.7735 40.1379H38.604H38.5161H38.6982H38.7735ZM38.1081 40.2946H38.2839H38.1081ZM38.3341 40.2946H38.4282H38.2148H38.1457H38.3341ZM38.0076 40.2068H37.9763H38.0076ZM38.0641 40.1692H38.1269H38.0641ZM38.1646 40.2632H38.2336H38.3027H38.1457H38.1646ZM38.1207 40.094H38.1646H38.1207ZM38.196 40.0689H38.1583H38.1081H38.196ZM38.1457 40.0689H38.1018H38.1457ZM38.1457 40.0689H38.0516H38.0076H38.1457ZM38.0202 40.0689H38.0641H37.9826H37.9386H38.0202ZM38.1081 40.0689H38.0704H38.0202H38.1081ZM38.0265 40.0689H38.083H37.9826H37.9449H38.0265ZM38.2588 40.2006H38.1897H38.4659H38.5349H38.2588ZM38.378 40.2006H38.309H38.4282H38.5224H38.378ZM38.4722 40.2006H38.4031H38.5287H38.6166H38.4722ZM38.4722 40.2006H38.3592H38.2776H38.4722ZM38.3655 40.2006H38.4722H38.5475H38.4282H38.3655ZM38.4973 40.2006H38.4094H38.5601H38.6166H38.4973ZM38.5475 40.2006H38.4784H38.5663H38.6605H38.5475ZM38.4345 40.2006H38.3717H38.4157H38.5098H38.4345ZM38.3529 40.2006H38.4659H38.3466H38.3529ZM38.3529 40.2006H38.3969H38.4471H38.3466H38.3529ZM38.3529 40.2006H38.4973H38.5538H38.4031H38.4659H38.3529ZM38.3529 40.2006H38.4659H38.5412H38.4659H38.3529ZM38.3529 40.2006H38.4659H38.5224H38.4157H38.3529ZM38.3215 40.2006H38.4659H38.5412H38.3843H38.3215ZM38.3215 40.2006H38.3843H38.2901H38.3215ZM38.0893 40.025L38.2462 40.0626H38.2964L38.1583 40.0313H38.0955L38.0893 40.025ZM38.196 40.0689H38.152H38.196ZM38.083 40.0313H38.1332H38.1709H38.083ZM38.083 40.0313H38.2085H38.2525L38.0955 39.9999L38.083 40.0313ZM38.083 40.0313H38.1269H38.0767H38.083ZM38.083 40.0626H38.1144H38.1583H38.0767H38.083ZM38.083 40.0626H38.1269H38.1646H38.083ZM38.083 40.1065H38.1144H38.1457H38.083ZM38.1583 40.1065H38.1897H38.1583ZM38.196 40.2006H38.2839H38.3529H38.196ZM38.3843 40.2319H38.3341H38.422H38.3843ZM38.4596 40.1943L38.2776 40.2256H38.2211H38.4031H38.4596V40.1943ZM38.5538 40.1567H38.4157H38.5977H38.5538ZM38.6919 40.119H38.5538H38.4659H38.6542H38.6919ZM38.7484 40.119H38.6228H38.7798H38.7484ZM38.8802 40.119H38.7044H38.6542H38.8928H38.8802ZM47.3797 54.1379L47.3295 54.2194C47.3307 54.2361 47.3307 54.2528 47.3295 54.2695L47.3797 54.1379ZM38.2336 41.1284H38.265H38.2336ZM38.2336 40.6708H38.2839H38.2336ZM38.2336 40.7836L38.1646 40.8212L38.2336 40.7836ZM38.265 40.7836H38.2964L38.2148 40.8338L38.265 40.7836ZM39.4012 40.2131H39.3698L39.2945 40.257H39.3259H39.3698L39.4012 40.2131ZM38.378 40.7711L38.2964 40.8275V40.7899L38.378 40.7711ZM38.8928 40.42L38.6982 40.514L38.7861 40.4639L39.0811 40.326L38.8928 40.42ZM38.9492 40.42L39.2443 40.2821L39.1187 40.3447L38.8363 40.489L38.9492 40.42ZM38.7107 40.514L38.4973 40.6206L38.5852 40.5642L38.8111 40.4576L38.7107 40.514ZM38.6417 40.5579L38.5601 40.6143H38.491H38.4596L38.6417 40.5579ZM38.4659 40.7962L38.4094 40.8338L38.4471 40.7899L38.4659 40.7962ZM38.3906 40.6582H38.4345H38.3906ZM38.4596 40.8087L38.4157 40.8526L38.3466 40.909L38.3843 40.8651L38.4596 40.8087ZM38.4596 40.8087L38.5161 40.7711L38.4345 40.8338L38.4596 40.8087ZM38.5287 40.7773L38.4596 40.8338L38.5287 40.7773ZM38.5287 40.7773L38.4973 40.8212L38.4031 40.8965L38.4408 40.8526L38.5287 40.7773ZM38.5287 40.7773L38.4847 40.8212L38.4157 40.884L38.4659 40.8338L38.5287 40.7773ZM38.491 40.7773L38.5287 40.7397L38.491 40.7773ZM38.5475 40.583L38.6291 40.5391L38.5726 40.583H38.5475ZM38.5475 40.583L38.6166 40.5266L38.7861 40.4388L38.6919 40.5015L38.5475 40.583ZM38.7672 40.4639L39.0497 40.3197L39.1376 40.2758L39.2569 40.2194L39.1501 40.2695L38.9744 40.3636L39.0497 40.3197L38.9179 40.3949L38.717 40.5015L38.7672 40.4639ZM39.1438 40.3134L39.0371 40.3761L39.1125 40.3322L39.2004 40.2821H39.2569L39.3447 40.2382H39.2945L39.1438 40.3197H39.1752L39.1438 40.3134ZM39.0874 40.3134L39.2819 40.2068H39.2255H39.2631H39.2066H39.238L39.0748 40.3009L39.012 40.3322L39.0874 40.3134ZM38.9492 40.3886L39.0434 40.326L39.1501 40.2695L39.0748 40.3134L38.9492 40.3886ZM39.1564 40.2695L39.2631 40.2131L39.3698 40.1629H39.3322L39.1564 40.2695ZM39.2631 40.2068L39.0371 40.3197L39.1501 40.257L39.395 40.1379L39.2631 40.2068ZM39.0309 40.3134L38.943 40.3698L38.7986 40.4514L38.8802 40.3949L39.0309 40.3134ZM39.0936 40.514L39.3322 40.3886L39.2631 40.4263L39.3698 40.3761L39.2255 40.4451H39.2757L39.1501 40.514L39.012 40.5893L39.0936 40.514ZM39.0434 40.5517L38.9492 40.6143L38.8614 40.6708L38.9367 40.6143L39.0434 40.5517ZM39.0057 40.5517L39.1062 40.489L39.0309 40.5454L38.9242 40.6081L39.0057 40.5517ZM39.0057 40.5517L39.0936 40.514L39.0371 40.5579L38.9681 40.6018L39.0057 40.5517ZM39.0497 40.5517L39.1376 40.4952L39.0936 40.514L38.9932 40.583C39.0234 40.5555 39.0572 40.5323 39.0936 40.514L39.0497 40.5517ZM39.1313 40.5078L39.0685 40.5517L39.1313 40.5078ZM39.1815 40.4764H39.2317L39.1501 40.5203L39.1815 40.4764ZM39.2317 40.4764L39.1501 40.5203H39.1941L39.3322 40.4451L39.2317 40.4764ZM39.2317 40.4764L39.3196 40.4325L39.1941 40.4952L39.2317 40.4764ZM39.2819 40.4388H39.3385L39.4514 40.3824L39.3385 40.4388H39.2819ZM39.2819 40.4388L39.3887 40.3824L39.4891 40.3447L39.2819 40.4388ZM39.3761 40.3824L39.0748 40.514L39.1941 40.4576L39.4138 40.3636H39.4765L39.3761 40.3824ZM39.2882 40.4137C39.169 40.4639 39.0434 40.514 38.9179 40.5767L39.0434 40.5078L39.4326 40.351L39.2882 40.4137ZM38.9681 40.5391L38.717 40.652L38.83 40.5893L39.0999 40.4764L38.9681 40.5391ZM38.9304 40.5391L39.0936 40.4639L39.4075 40.3447L39.238 40.4137L38.9304 40.5391ZM38.9806 40.5015L38.6291 40.6457L38.7798 40.5705L39.1941 40.4137L38.9806 40.5015ZM38.8551 40.5642L38.7233 40.6269L38.4471 40.7523L38.5412 40.6958C38.6527 40.6286 38.768 40.5679 38.8865 40.514L38.8551 40.5642ZM38.6354 40.6771L38.5412 40.7335L38.422 40.7899C38.5036 40.6645 38.5852 40.6332 38.6668 40.5955L38.6354 40.6771ZM38.3969 40.9341L38.3655 40.978L38.309 41.0156L38.3969 40.9341ZM38.3341 41.1912H38.2964H38.3278H38.3341ZM38.3341 41.1912L38.2964 41.2288L38.3341 41.1912ZM38.3341 41.1723H38.2964H38.3341ZM38.3341 41.1723C38.3314 41.1847 38.3314 41.1976 38.3341 41.21V41.1723ZM38.3655 41.2476L38.3341 41.2789L38.378 41.2413L38.3655 41.2476ZM38.3655 41.0908L38.4408 41.0344L38.4094 41.072L38.3655 41.0908ZM38.4031 41.0908L38.4471 41.0595V41.0971L38.4031 41.0908ZM38.4471 41.0908L38.5224 41.0344L38.4847 41.0783L38.4471 41.0908ZM38.4471 41.0908L38.5098 41.0344V41.072L38.4471 41.0908ZM38.4784 41.0908L38.5287 41.0469L38.4784 41.0908ZM38.6228 40.9592L38.5161 41.0595L38.5601 41.0093L38.6166 40.9654L38.6228 40.9592ZM38.6605 40.7899L38.8237 40.6958L38.7233 40.7648L38.6542 40.8087L38.6605 40.7899ZM38.7233 40.7899L38.7923 40.7397L38.9304 40.6582L38.8488 40.7147L38.7233 40.7899ZM38.7233 40.7899L38.7798 40.7523L38.7358 40.7899H38.7233ZM38.7547 40.7899L38.83 40.7397L38.7672 40.7836L38.7547 40.7899ZM38.7861 40.7899L38.8865 40.7272L38.8111 40.7836L38.7861 40.7899ZM38.7861 40.7899L38.8677 40.7335L38.8237 40.7711L38.7672 40.8087L38.7861 40.7899ZM38.83 40.7523L38.7798 40.7899L38.8363 40.746C38.8611 40.7257 38.8885 40.7088 38.9179 40.6958L38.83 40.7523ZM38.9242 40.7021L38.8802 40.7335L38.9242 40.7021ZM38.9242 40.7021L39.0057 40.6457L38.9242 40.7021ZM39.056 40.6143L39.1376 40.5642H39.1878L39.056 40.6143ZM39.2255 40.514H39.2694H39.2255ZM39.3322 40.4514H39.2882H39.3196L39.3698 40.42L39.3322 40.4514ZM39.4263 40.4012L39.3573 40.4388H39.4138L39.4263 40.4012ZM39.4263 40.3573L39.0183 40.5203L39.1815 40.4514L39.6272 40.2821L39.4263 40.3573ZM39.6649 40.2695L39.3071 40.4012L39.4828 40.3322L39.6398 40.2758L39.6649 40.2695ZM39.6084 40.2695L39.4389 40.326L39.125 40.4388L39.3761 40.3447L39.5958 40.2695H39.6084ZM39.577 40.2695H39.5017H39.5707H39.577ZM39.238 40.3824L38.8111 40.5391L39.0748 40.4388L39.5205 40.2883L39.238 40.3824ZM39.2757 40.3824H39.3636L38.8237 40.5579L39.2757 40.3824ZM38.5538 40.6269L39.4326 40.3385H39.4703L39.351 40.3761H39.4075L39.2945 40.4075H39.351L38.9492 40.5454L38.3215 40.7711L38.5538 40.6269ZM38.2211 40.7773L38.6856 40.6018L38.4847 40.6896L38.1395 40.8275C38.194 40.741 38.2757 40.6749 38.3717 40.6394L38.2211 40.7773ZM38.1144 40.8526L38.3843 40.7397L38.2839 40.7962L38.152 40.8526H38.1144ZM38.1144 41.0219L38.196 40.978V41.0093H38.152L38.1144 41.0219ZM38.1144 41.2225H38.1457H38.1144Z" fill="white"/>
</g>
</svg>
